<svg xmlns="http://www.w3.org/2000/svg" width="1006" height="494" overflow="hidden"><defs><clipPath id="a"><path d="M137 113h1006v494H137z"/></clipPath></defs><g clip-path="url(#a)" transform="translate(-137 -113)"><path fill="#FFF" fill-rule="evenodd" d="m1012.947 178-60.54 54.948c-13.796 2.752-44.959 7.283-62.407 11.006v6.393c14.689 11.005 31.244 20.15 48.611 25.653h74.336v-.08h74.335c17.448-5.504 33.922-14.649 47.718-26.545v-5.502c-15.581-1.861-48.61-9.145-62.406-11.896L1012.947 178ZM267.053 178l60.54 54.948c13.796 2.752 44.959 7.283 62.407 11.006v6.393c-14.689 11.005-31.244 20.15-48.611 25.653h-74.336v-.081h-74.335c-17.448-5.503-33.922-14.648-47.718-26.544v-5.502c15.581-1.861 48.61-9.145 62.406-11.896L267.053 178Z"/><path fill="#FFF" d="M340 271h599v74H340z"/><path fill="#082E59" fill-rule="evenodd" d="m273.07 199.857 39.598 36.16c2.77 0 4.562-.902 7.333-.902L266.552 186 214 235.115c6.436.902 11.081.902 18.414 1.886l40.656-37.144ZM267 243.657c-19.167 0-39.307-1.879-58.555-4.657L149 250.111C176.418 263.02 229.554 264 267 264c38.417 0 94.223 0 118-13.889L326.445 239c-19.167 2.778-39.307 4.657-59.445 4.657"/><path fill="#082E59" fill-rule="evenodd" d="m328.936 225.923-62.436-56.03v8.283l60.569 55.137c13.803 2.761 44.98 7.307 62.437 11.043v6.415c-14.696 11.043-31.259 20.219-48.634 25.741H266.5v73.489h79v-67.074c17.456-6.415 34.019-16.565 50.501-28.501V238.753l-67.065-12.83Zm-62.436-56.03V169l-61.543 56.923L137 238.753v14.698c16.563 12.829 32.152 22.087 49.608 29.395v67.074H266.5v-73.489h-74.371c-17.456-5.522-33.938-14.698-47.74-26.635v-5.521c15.588-1.868 48.633-9.176 62.435-11.937l59.676-54.162v-8.283Z"/><path fill="#082E59" fill-rule="evenodd" d="M896.821 257.516h-32.989v-22.869c4.62-1.858 13.779-10.021 15.562-14.627v-.888c18.318-7.354 39.393-21.98 44.013-32.89v-14.625c-27.478.888-57.711 3.636-84.297-2.748-7.376-15.515-10.051-37.496-11.915-54.869h-14.671c.892 1.858-.891 6.384-2.755 6.384-39.393 5.495-80.649 6.383-121.014 6.383H591.57c-40.365 0-81.621-.888-121.014-6.383-1.864 0-2.756-4.606-2.756-6.384h-14.67c-1.864 17.373-4.539 39.273-11.915 54.869-26.586 6.384-56.819 3.636-84.378 2.748v14.625c4.539 11.879 26.586 25.617 45.796 33.778 1.864 4.606 10.05 11.879 14.67 14.627v22.869h-33.961L354 274.001h572l-29.179-16.485Z"/><path fill="#FFF" fill-rule="evenodd" d="M194 282h144.001v60.001H194Z"/><path fill="#082E59" fill-rule="evenodd" d="M591 301h99.001v5.002H591ZM527 290h37.001v45H527ZM480 290h36.001v45H480ZM432 290h37.001v45H432ZM384 290h38.001v45H384ZM341 290h32.001v45H341Z"/><path fill="#082E59" fill-rule="evenodd" d="M340 290h215v3H340ZM1066 235.194 1013.45 186 960 235.194c2.77 0 4.563.903 7.333.903l39.677-36.218 40.58 37.122c7.33-.904 11.89-.904 18.41-1.807M1013.5 264c37.69 0 90.97-.898 118.5-13.889L1072.3 239c-19.33 2.778-39.47 4.657-58.8 4.657-20.224 0-40.447-1.879-59.697-4.657L895 250.111C918.879 264 974.921 264 1013.5 264M934 276h159v73.001H934Z"/><path fill="#FFF" fill-rule="evenodd" d="M942 282h144v60.001H942Z"/><path fill="#082E59" fill-rule="evenodd" d="M1075.1 225.612 1013.54 169l-62.455 56.612L884 238.371v15.506c18.355 13.73 35.816 23.743 56.039 30.123v-7.268c-17.461-6.38-34.922-15.506-49.623-26.489v-6.38c18.355-3.634 48.73-8.237 62.456-10.983l60.588-54.835 59.69 53.866c13.81 2.746 46.87 10.014 62.46 11.872v5.491c-13.81 11.871-30.29 20.997-47.76 26.489V284c19.25-6.38 37.69-17.363 55.15-31.092v-14.617l-67.9-12.679ZM716 290h37.001v45H716ZM764 290h36.001v45H764ZM812 290h36.001v45H812ZM859 290h37.001v45H859ZM908 290h31v45h-31Z"/><path fill="#082E59" fill-rule="evenodd" d="M725 290h215v3H725ZM1047 291h30v44.001h-30ZM949 291h31v44.001h-31ZM989 291h48v44.001h-48Z"/><path fill="#FFF" fill-rule="evenodd" d="M1046 300h31v4h-31ZM949 300h32.001v4H949ZM988 300h50v4h-50Z"/><path fill="#082E59" fill-rule="evenodd" d="M181 341h918v16H181ZM591 310h19.282v25H591v-25Zm26.573 0h45.854v25h-45.854v-25Zm53.146 0h19.282v25h-19.282v-25Z"/><path fill="#082E59" fill-rule="evenodd" d="M574 290h132v45h-8.265v-39.486h-115.47V335H574Z"/><path fill="#FFF" fill-rule="evenodd" d="M423.18 226.862h433.641c2.761 0 5.524-.89 9.18-1.862-1.869 2.753-5.525 4.616-9.18 6.397V268H423.18v-36.603c-3.656-1.862-6.418-3.644-9.18-6.397 3.655.972 6.418 1.862 9.18 1.862"/><path fill="#082E59" fill-rule="evenodd" d="M432 235h37.001v28.001H432Z"/><path fill="#FFF" fill-rule="evenodd" d="M432 242h37.001v3.001H432Z"/><path fill="#082E59" fill-rule="evenodd" d="M480 235h36.001v28.001H480ZM527 235h37.001v28.001H527ZM574 235h38.001v28.001H574ZM622 235h36.001v28.001H622ZM669 235h37.001v28.001H669ZM716 235h38.001v28.001H716ZM764 235h36.001v28.001H764ZM812 235h36.001v28.001H812Z"/><path fill="#FFF" fill-rule="evenodd" d="M480 242h36.001v3.001H480ZM527 242h37.001v3.001H527ZM574 242h38.001v3.001H574ZM622 242h36.001v3.001H622ZM669 242h37.001v3.001H669ZM716 242h38.001v3.001H716ZM764 242h36.001v3.001H764ZM812 242h36.001v3.001H812ZM384.955 264h512.117l11.929 4H374Z"/><path fill="#FFF" fill-rule="evenodd" d="M640.081 267c-15.65 0-33.176.892-48.909 0l-2.771 14.676c-6.44 2.757-11.983 3.649-19.401 4.622v9.162h.897c6.44 1.865 12.879 2.756 19.4 3.649 7.337.892 13.776.892 20.297.892h60.812c6.439 0 13.857 0 20.297-.892 6.439-.893 12.879-1.865 19.401-3.649H711v-9.162c-6.44-.892-12.879-1.865-19.4-4.622L688.828 267c-16.466.892-36.764 0-48.747 0"/><path fill="#082E59" fill-rule="evenodd" d="M685.16 271c-15.623.896-32.222.896-45.078.896-11.962 0-29.455 0-44.183-.896 0 0-1.872 11.967-4.638 13.839-2.767 2.768-20.261 5.536-20.261 5.536 22.051 5.536 45.973 4.559 69 4.559 23.028 0 46.949.895 69.001-4.559 0 0-17.495-2.768-20.262-5.536-2.684-1.872-3.579-13.839-3.579-13.839"/><path fill="#FFF" fill-rule="evenodd" d="M916 179.091c-28.451 1.796-58.685 2.775-81.625-3.672-.891 0-.891-.898-1.864-1.877-7.295-13.875-11.023-37.871-12.806-53.542-.892 4.652-2.756 6.448-5.513 7.427-36.638 5.55-77.004 5.55-113.723 5.55h-19.292c-13.78.898-27.478.898-41.258.898v7.427c57.794 0 120.127 3.673 175.084-7.427 0 0 5.512 44.318 14.671 49.868 10.052 5.551 83.409 2.776 83.409 2.776-74.249 26.77-187.972 21.22-273.164 21.22v9.223h213.586c17.427.898 44.014-13.875 62.333-32.32v-5.551Zm-276-45.216c-13.78 0-27.479 0-41.258-.898h-19.291c-36.638 0-77.005 0-113.643-5.55-2.756-.898-4.539-2.775-5.512-7.427-1.864 15.671-5.512 39.748-12.807 53.542 0 .897-.892 1.877-1.865 1.877-22.939 6.447-53.173 5.549-81.624 3.672v5.551c18.319 18.445 45.797 33.218 62.333 32.32h213.586v-9.223c-85.272 0-198.915 5.55-273.163-21.22 0 0 73.357 2.775 83.408-2.776 9.159-5.55 14.671-49.868 14.671-49.868 55.038 11.1 118.263 7.427 175.084 7.427v-7.427Z"/><path fill="#082E59" fill-rule="evenodd" d="M203 291h30.001v44.001H203ZM300 291h31v44.001h-31ZM243 291h48v44.001h-48Z"/><path fill="#FFF" fill-rule="evenodd" d="M203 300h31v4h-31ZM299 300h32.001v4H299ZM242 300h50v4h-50Z"/><path fill="#082E59" fill-rule="evenodd" d="M933.589 485h-6.397v3.667c4.616 0 6.397 3.668 6.397 8.313v24.854h-9.15V485h-25.672v3.667c4.535 0 7.37 2.771 7.37 8.313v49.791c-11.904 1.874-23.809 3.667-38.466 4.563v-46.043h19.273v-10.104H842v3.667c4.535 0 7.369 2.771 7.369 8.311V562.499c18.302 0 39.356-3.667 56.768-8.312v48.814h17.41l.892-70.981h9.15v70.981H951V485h-17.411ZM393.194 547.274 406 536.369l-27.477-17.241c7.376-7.297 12.807-17.241 15.562-24.457h-21.073V482h-17.427v12.671h-20.182v9.061h31.206c-1.865 13.551-17.427 31.754-37.609 41.698l1.864 4.571c13.779-3.609 28.45-12.671 40.364-22.694l21.966 19.967ZM399 606c18.263 0 32.001-11.883 32.001-27.404 0-14.632-13.738-26.515-32.001-26.515v9.135c8.243 0 14.627 8.245 14.627 17.38 0 10.024-6.384 17.381-14.627 18.269V606Zm0-54c-17.373 0-32 11.883-32 27.404 0 14.632 14.627 26.515 32 26.515v-9.135c-7.273 0-13.737-8.245-13.737-17.38 0-10.024 6.384-18.269 13.737-18.269V552Z"/><path fill="#082E59" fill-rule="evenodd" d="M410.72 484.081v3.65c4.48 0 7.2 2.758 7.2 8.274v14.681H398v10.059l19.92-.892v31.148H436L435.12 484h-24.4ZM690.816 485H666.01v3.667c4.621 0 7.377 2.771 7.377 8.313v60.792c-10.051 1.875-23.832 2.771-37.613 3.668v-14.751c13.781-3.666 23.832-14.749 23.832-27.625 0-15.647-14.672-27.626-32.992-27.626v8.312c8.268 0 14.672 9.209 14.672 19.314 0 11.082-6.404 19.395-14.672 19.395v33.167c16.536-.896 32.992-2.77 46.773-6.438v37.813h17.429v-70.002h20.185v-9.209h-20.185V485Zm-64.202 6.438c-17.429 0-32.101 11.979-32.101 27.626 0 12.876 10.051 23.959 23.832 27.625v15.647c-11.025.897-19.293.897-29.345.897v10.104c11.917 0 24.724-.896 37.614-1.874v-33.167c-7.377 0-13.781-8.313-13.781-19.395 0-10.106 6.404-19.313 13.781-19.313v-8.15ZM620.784 407.909V394H610v1.8c1.824 0 3.568.982 3.568 2.782V430h7.216v-17.591h7.217v-4.582h-7.217ZM595.162 427H584v1.925c1.888 0 3.693.922 3.693 2.847V445H622v-4.772h-26.92V427ZM605.318 410.764c0-2.809-1.869-5.618-4.633-8.428H608v-3.717h-11.948V393h-4.633v10.245c3.658 0 6.421 3.718 6.421 7.519 0 3.718-2.763 7.518-6.421 7.518V422c7.397-.082 13.899-4.709 13.899-11.236M591.5 393h-3.658v5.619H575v3.717h7.316c-1.87 1.9-3.659 5.619-3.659 8.428 0 6.527 5.528 11.236 12.843 11.236v-3.718c-2.763 0-5.527-3.717-5.527-7.518 0-3.718 2.764-7.519 5.527-7.519V393ZM525.722 393h-2.779v1.889c1.88 0 2.779 1.889 2.779 3.697v11.173h-3.679V393H510.022v1.889c2.78 0 3.68.904 3.68 3.697v21.359c-5.561.904-11.121 1.889-17.581 2.793v-20.455h9.24v-4.601H485v1.808c2.78 0 3.679.904 3.679 3.696v24.152c8.342 0 17.582-1.889 24.942-3.696V445h8.34v-31.627h3.679V445H533v-52h-7.278ZM697.666 398.567v31.434H705V393h-11v1.883c2.771-.082 3.666.819 3.666 3.684M680.133 440.209v-13.285L669 426v1.934c1.883 0 2.783.925 2.783 3.783v13.284H706v-4.792h-25.867ZM675.942 422H689v-24.918h-13.058v3.676h5.621v16.667h-5.621V422Zm-13.141 0h13.059v-4.657h-5.62v-16.667h5.62V397H659v.898c1.901 0 3.719 1.798 3.719 3.677V422ZM795.001 415.277v-3.683H784.06c4.505-4.664 5.47-11.129 5.47-17.594h-40.945v4.664h32.741c0 3.684-.886 9.248-1.851 12.93H744v3.683h20.915v9.247H749.47v4.665h31.856V444h7.239v-19.394H773.12v-9.247h21.881Z"/><path fill="none" stroke="#082E59" stroke-miterlimit="8" stroke-width="5.84609" d="M172 416h267M841 416h267"/></g></svg>