<?xml version="1.0" encoding="utf-8"?>
<!-- Generator: Adobe Illustrator 16.0.0, SVG Export Plug-In . SVG Version: 6.00 Build 0)  -->
<!DOCTYPE svg PUBLIC "-//W3C//DTD SVG 1.1//EN" "http://www.w3.org/Graphics/SVG/1.1/DTD/svg11.dtd">
<svg version="1.1" id="Layer_1" xmlns="http://www.w3.org/2000/svg" xmlns:xlink="http://www.w3.org/1999/xlink" x="0px" y="0px"
	 width="222px" height="26px" viewBox="0 0 222 26" enable-background="new 0 0 222 26" xml:space="preserve">
<g>
	<path fill="#0066A5" d="M136.004,5.665c-0.223,0.126-0.525,0.188-0.908,0.188c-0.385,0-0.691-0.065-0.916-0.194
		c-0.225-0.13-0.336-0.301-0.336-0.516c0-0.222,0.111-0.396,0.336-0.521c0.225-0.126,0.531-0.188,0.916-0.188
		c0.375,0,0.676,0.063,0.902,0.188c0.225,0.125,0.338,0.299,0.338,0.521C136.336,5.365,136.225,5.539,136.004,5.665z M136.547,0.433
		h-2.938v1.02h2.938V0.433z M137.865,1.984h-5.574v1.031h5.574V1.984z M141.035,3.281h-1.229V0.5h-1.164v7.148h1.164V4.456h1.229
		V3.281z M136.912,3.941c-0.441-0.336-1.053-0.504-1.828-0.504c-0.732,0-1.336,0.166-1.807,0.499
		c-0.475,0.332-0.711,0.738-0.711,1.219c0,0.443,0.236,0.837,0.705,1.18c0.469,0.345,1.07,0.516,1.803,0.516
		c0.773,0,1.385-0.17,1.832-0.509c0.449-0.34,0.672-0.735,0.672-1.187C137.578,4.683,137.357,4.277,136.912,3.941z M140.104,8.912
		h-5.262V7.327h-1.232v2.704h6.494V8.912z"/>
	<path fill="#0066A5" d="M150.816,5.409h-3.955v1.618h2.859v3.214h-1.152V8.158h-5.529V7.027h2.604V5.409h-3.602V4.29h6.141
		c0.064-0.311,0.139-0.676,0.215-1.097c0.078-0.421,0.131-0.835,0.16-1.242h-5.543v-1.12h6.885c0,0.178-0.027,0.461-0.076,0.853
		c-0.053,0.393-0.102,0.722-0.146,0.987c-0.064,0.371-0.119,0.675-0.166,0.914c-0.045,0.241-0.092,0.476-0.145,0.705h1.451V5.409z"
		/>
	<path fill="#0066A5" d="M160.318,7.534h-1.152V3.887h-1.762V2.713h1.762V0.485h1.152V7.534z M160.508,10.016h-6.605v-3.18h1.152
		v2.061h5.453V10.016z M154.555,2.181h-1.684V1.039h4.609v1.142h-1.695v0.144c0,0.392,0.072,0.747,0.215,1.064
		c0.145,0.317,0.344,0.591,0.596,0.82c0.248,0.229,0.473,0.403,0.664,0.521c0.189,0.119,0.408,0.222,0.652,0.31l-0.697,0.999
		c-0.162-0.067-0.328-0.148-0.498-0.244c-0.17-0.096-0.377-0.24-0.623-0.433c-0.189-0.148-0.357-0.301-0.502-0.46
		c-0.145-0.158-0.283-0.323-0.416-0.493c-0.098,0.185-0.217,0.372-0.367,0.56c-0.146,0.189-0.326,0.375-0.543,0.56
		c-0.234,0.207-0.459,0.373-0.668,0.498c-0.213,0.126-0.402,0.234-0.572,0.322l-0.82-0.963c0.252-0.119,0.506-0.263,0.764-0.433
		c0.26-0.17,0.533-0.392,0.82-0.665c0.23-0.229,0.414-0.514,0.557-0.854c0.139-0.34,0.209-0.709,0.209-1.108V2.181z"/>
	<path fill="#0066A5" d="M164.41,2.603h-1.916v-1.12h5.076v1.12h-1.93v0.41c0,0.274,0.049,0.697,0.143,1.269
		c0.098,0.573,0.299,1.088,0.602,1.547c0.271,0.398,0.559,0.724,0.854,0.974c0.293,0.252,0.514,0.422,0.654,0.511l-0.742,0.964
		c-0.09-0.059-0.258-0.178-0.508-0.36c-0.244-0.181-0.496-0.423-0.746-0.726c-0.193-0.237-0.355-0.472-0.494-0.709
		c-0.137-0.236-0.256-0.468-0.357-0.699c-0.105,0.274-0.232,0.54-0.385,0.798c-0.15,0.259-0.344,0.532-0.582,0.82
		c-0.201,0.244-0.398,0.455-0.6,0.631c-0.197,0.178-0.424,0.359-0.676,0.543l-0.953-0.842c0.393-0.273,0.754-0.58,1.08-0.92
		c0.33-0.339,0.605-0.712,0.828-1.119c0.242-0.458,0.414-0.952,0.51-1.481c0.094-0.527,0.143-0.927,0.143-1.201V2.603z
		 M171.027,5.473h-1.238v4.764h-1.154V0.485h1.154v3.768h1.238V5.473z"/>
	<path fill="#0066A5" d="M177.898,9.193c-0.395,0.124-0.91,0.188-1.545,0.188c-0.645,0-1.158-0.069-1.541-0.205
		c-0.385-0.138-0.576-0.313-0.576-0.527c0-0.229,0.193-0.395,0.582-0.493c0.389-0.1,0.9-0.15,1.545-0.15
		c0.635,0,1.15,0.056,1.539,0.166c0.393,0.111,0.59,0.277,0.59,0.499C178.492,8.893,178.293,9.066,177.898,9.193z M178.992,7.469
		c-0.615-0.321-1.492-0.483-2.639-0.483c-1.152,0-2.029,0.153-2.633,0.46c-0.602,0.308-0.902,0.712-0.902,1.214
		c0,0.495,0.307,0.905,0.918,1.23c0.613,0.326,1.486,0.488,2.617,0.488c1.146,0,2.023-0.155,2.639-0.465
		c0.611-0.311,0.918-0.713,0.918-1.208C179.91,8.202,179.604,7.791,178.992,7.469z M180.742,5.457h-3.736v-0.72h2.771V3.729h-5.52
		V3.163h5.377V2.232h-5.377V1.667h5.396V0.658h-6.594v4.079h2.639v0.72h-3.734v1.064h8.777V5.457z"/>
	<path fill="#0066A5" d="M190.076,7.534h-1.162V0.485h1.162V7.534z M190.277,10.016h-6.582V6.969h1.174v1.927h5.408V10.016z
		 M187.93,5.14l-0.678,0.975c-0.162-0.066-0.381-0.185-0.654-0.354s-0.527-0.366-0.764-0.588c-0.164-0.155-0.313-0.314-0.449-0.476
		c-0.137-0.163-0.268-0.348-0.393-0.555c-0.104,0.2-0.229,0.401-0.377,0.604c-0.15,0.204-0.33,0.416-0.543,0.638
		c-0.23,0.236-0.463,0.441-0.705,0.615c-0.24,0.173-0.453,0.312-0.637,0.416l-0.809-0.909c0.287-0.163,0.584-0.364,0.891-0.605
		c0.309-0.24,0.586-0.526,0.836-0.859c0.291-0.37,0.48-0.744,0.578-1.124c0.096-0.381,0.145-0.775,0.145-1.182V0.751h1.229v0.985
		c0,0.392,0.055,0.775,0.162,1.148c0.107,0.372,0.283,0.71,0.525,1.013c0.25,0.304,0.527,0.561,0.828,0.771
		C187.412,4.879,187.684,5.037,187.93,5.14z"/>
	<path fill="#0066A5" d="M195.721,2.313c0.215,0.274,0.32,0.599,0.32,0.976c0,0.37-0.105,0.691-0.32,0.964
		c-0.217,0.274-0.529,0.41-0.943,0.41c-0.404,0-0.717-0.136-0.936-0.41c-0.217-0.273-0.326-0.595-0.326-0.964
		c0-0.376,0.109-0.702,0.326-0.976c0.219-0.272,0.531-0.409,0.936-0.409C195.191,1.904,195.504,2.041,195.721,2.313z M195.896,1.045
		c-0.332-0.174-0.705-0.26-1.119-0.26c-0.709,0-1.293,0.244-1.756,0.736c-0.461,0.491-0.691,1.081-0.691,1.767
		c0,0.688,0.23,1.275,0.691,1.762c0.463,0.488,1.047,0.731,1.756,0.731c0.422,0,0.799-0.09,1.135-0.271
		c0.338-0.18,0.617-0.418,0.838-0.714h2.129v2.737h1.152V0.485h-1.152v1.251h-2.162C196.504,1.45,196.23,1.218,195.896,1.045z
		 M197.223,3.505c0.002-0.071,0.004-0.142,0.004-0.217c0-0.081-0.002-0.159-0.01-0.232c-0.008-0.073-0.016-0.147-0.023-0.221h1.686
		V3.71h-1.672C197.213,3.644,197.219,3.576,197.223,3.505z M200.229,8.896h-5.428V6.891h-1.199v3.125h6.627V8.896z"/>
	<path fill="#0066A5" d="M210.664,6.173h-4v4.068h-1.186V6.173h-3.592v-1.12h6.063c0.08-0.265,0.174-0.693,0.271-1.285
		c0.1-0.591,0.166-1.145,0.193-1.663h-5.541v-1.12h6.871c0,0.163-0.029,0.501-0.088,1.015c-0.059,0.514-0.117,0.947-0.178,1.302
		c-0.051,0.361-0.113,0.704-0.188,1.025c-0.074,0.322-0.127,0.564-0.154,0.725h1.527V6.173z"/>
	<path fill="#0066A5" d="M216.18,1.599c0.189,0.195,0.283,0.378,0.283,0.548c0,0.156-0.094,0.327-0.277,0.516
		c-0.186,0.188-0.494,0.282-0.93,0.282c-0.414,0-0.717-0.094-0.908-0.282c-0.193-0.188-0.291-0.36-0.291-0.516
		c0-0.17,0.094-0.353,0.279-0.548c0.184-0.197,0.49-0.293,0.92-0.293C215.682,1.306,215.99,1.402,216.18,1.599z M220.074,0.495
		h-1.152v5.508h-2.049v1.064h2.049v0.787h1.152V0.495z M218.625,4.176c-0.215,0.051-0.725,0.112-1.525,0.183
		s-1.445,0.105-1.934,0.105h-2.992v1.142h2.051v1.639h1.209v-1.65c0.301,0,0.816-0.032,1.545-0.094
		c0.727-0.063,1.275-0.131,1.646-0.206V4.176z M220.275,8.908h-5.42V7.633h-1.219v2.394h6.639V8.908z M213.498,0.878
		c-0.402,0.366-0.605,0.789-0.605,1.269c0,0.487,0.201,0.912,0.602,1.274c0.396,0.362,0.984,0.543,1.762,0.543
		c0.766,0,1.352-0.179,1.75-0.537c0.398-0.357,0.6-0.785,0.6-1.28c0-0.48-0.195-0.903-0.584-1.269
		c-0.389-0.365-0.977-0.548-1.766-0.548C214.486,0.33,213.898,0.513,213.498,0.878z"/>
	<g>
		<rect x="113.457" y="0.396" fill="#0066A5" width="9.449" height="23.721"/>
		<polygon fill="#0066A5" points="36.758,0.396 36.758,5.387 47.805,5.387 47.805,24.117 57.279,24.117 57.279,5.387 68.33,5.387 
			68.33,0.396 		"/>
		<path fill="#0066A5" d="M31.166,5.387V0.396H0.314v19.182c0,2.502,2.029,4.532,4.532,4.532h26.32v-4.995H9.79v-4.367h21.376V9.756
			H9.79V5.387H31.166z"/>
		<g>
			<polygon fill="#F05A22" points="96.819,13.053 85.668,13.053 98.458,25.705 109.609,25.705 			"/>
			<path fill="#F05A22" d="M101.766,0.396H73.078v23.721h9.475V5.387h14.268v7.666h9.479V4.924
				C106.3,2.421,104.27,0.396,101.766,0.396z"/>
		</g>
	</g>
	<path fill="#0066A5" d="M132.209,13.299h2.16v0.655h-1.428v1.025h1.307v0.655h-1.307v1.167h1.438v0.655h-2.17V13.299z"/>
	<path fill="#0066A5" d="M135.076,12.99h0.699v4.467h-0.699V12.99z"/>
	<path fill="#0066A5" d="M137.016,15.623c0.029-0.411,0.23-0.721,0.623-0.721c0.395,0,0.551,0.334,0.57,0.721H137.016z
		 M138.682,16.634c-0.262,0.168-0.555,0.312-0.896,0.312c-0.434,0-0.74-0.281-0.77-0.775h1.865c0-1.072-0.283-1.852-1.285-1.852
		c-0.838,0-1.25,0.73-1.25,1.62c0,1.007,0.516,1.59,1.408,1.59c0.377,0,0.67-0.082,0.928-0.244V16.634z"/>
	<path fill="#0066A5" d="M141.182,15.049c-0.125-0.064-0.262-0.111-0.477-0.111c-0.434,0-0.711,0.394-0.711,0.972
		c0,0.564,0.234,0.999,0.727,0.999c0.199,0,0.42-0.083,0.541-0.143l0.031,0.661c-0.205,0.071-0.414,0.102-0.705,0.102
		c-0.885,0-1.328-0.685-1.328-1.619c0-0.889,0.461-1.591,1.305-1.591c0.281,0,0.488,0.036,0.68,0.101L141.182,15.049z"/>
	<path fill="#0066A5" d="M141.988,14.974h-0.518V14.39h0.518v-0.615l0.703-0.256v0.871h0.625v0.584h-0.625v1.429
		c0,0.262,0.063,0.506,0.33,0.506c0.127,0,0.248-0.029,0.32-0.083l0.02,0.632c-0.145,0.048-0.307,0.071-0.518,0.071
		c-0.549,0-0.855-0.388-0.855-0.995V14.974z"/>
	<path fill="#0066A5" d="M143.813,14.39h0.625v0.697h0.01c0.033-0.286,0.32-0.769,0.738-0.769c0.068,0,0.143,0,0.215,0.023v0.803
		c-0.061-0.041-0.186-0.063-0.313-0.063c-0.572,0-0.572,0.81-0.572,1.25v1.126h-0.703V14.39z"/>
	<path fill="#0066A5" d="M146.307,15.85c0-0.46,0.219-0.912,0.674-0.912c0.461,0,0.682,0.439,0.682,0.912
		c0,0.511-0.141,1.059-0.682,1.059C146.445,16.908,146.307,16.356,146.307,15.85z M145.57,15.945c0,0.88,0.52,1.583,1.41,1.583
		c0.896,0,1.416-0.703,1.416-1.583c0-1.014-0.613-1.627-1.416-1.627C146.184,14.318,145.57,14.932,145.57,15.945z"/>
	<path fill="#0066A5" d="M148.947,14.39h0.666v0.417h0.01c0.221-0.351,0.521-0.488,0.887-0.488c0.637,0,0.916,0.512,0.916,1.203
		v1.936h-0.703v-1.64c0-0.373-0.004-0.88-0.455-0.88c-0.508,0-0.619,0.625-0.619,1.019v1.501h-0.701V14.39z"/>
	<path fill="#0066A5" d="M152.166,14.39h0.701v3.067h-0.701V14.39z M152.166,13.066h0.701v0.763h-0.701V13.066z"/>
	<path fill="#0066A5" d="M155.359,15.049c-0.127-0.064-0.264-0.111-0.479-0.111c-0.436,0-0.713,0.394-0.713,0.972
		c0,0.564,0.234,0.999,0.729,0.999c0.199,0,0.42-0.083,0.539-0.143l0.031,0.661c-0.203,0.071-0.412,0.102-0.701,0.102
		c-0.885,0-1.332-0.685-1.332-1.619c0-0.889,0.461-1.591,1.305-1.591c0.285,0,0.488,0.036,0.682,0.101L155.359,15.049z"/>
	<path fill="#0066A5" d="M157.539,15.032c-0.215-0.084-0.373-0.13-0.631-0.13c-0.188,0-0.414,0.077-0.414,0.338
		c0,0.489,1.223,0.18,1.223,1.287c0,0.715-0.561,1.001-1.131,1.001c-0.27,0-0.541-0.053-0.799-0.13l0.041-0.656
		c0.223,0.124,0.451,0.203,0.693,0.203c0.178,0,0.463-0.079,0.463-0.377c0-0.601-1.225-0.189-1.225-1.298
		c0-0.661,0.51-0.952,1.061-0.952c0.33,0,0.545,0.059,0.764,0.112L157.539,15.032z"/>
	<path fill="#0066A5" d="M160.217,16.568c0-0.47,0.467-0.527,0.781-0.527h0.305c0,0.238-0.031,0.458-0.146,0.629
		c-0.109,0.168-0.279,0.275-0.494,0.275C160.41,16.945,160.217,16.832,160.217,16.568z M159.861,15.236
		c0.234-0.204,0.535-0.334,0.832-0.334c0.414,0,0.609,0.165,0.609,0.66h-0.387c-0.295,0-0.643,0.03-0.91,0.18
		c-0.266,0.148-0.459,0.416-0.459,0.876c0,0.583,0.465,0.91,0.941,0.91c0.32,0,0.672-0.189,0.836-0.529h0.01
		c0.004,0.095,0.004,0.298,0.031,0.458h0.617c-0.014-0.238-0.025-0.453-0.029-0.686c-0.006-0.226-0.012-0.458-0.012-0.768V15.61
		c0-0.905-0.34-1.292-1.162-1.292c-0.301,0-0.666,0.089-0.939,0.233L159.861,15.236z"/>
	<path fill="#0066A5" d="M162.635,14.39h0.666v0.417h0.01c0.219-0.351,0.52-0.488,0.885-0.488c0.639,0,0.92,0.512,0.92,1.203v1.936
		h-0.705v-1.64c0-0.373-0.006-0.88-0.455-0.88c-0.51,0-0.619,0.625-0.619,1.019v1.501h-0.701V14.39z"/>
	<path fill="#0066A5" d="M166.398,15.913c0-0.409,0.125-0.976,0.58-0.976c0.453,0,0.629,0.548,0.629,0.976
		c0,0.436-0.15,0.995-0.619,0.995C166.527,16.908,166.398,16.336,166.398,15.913z M167.635,17.457h0.684V12.99h-0.703v1.756h-0.014
		c-0.209-0.29-0.453-0.428-0.807-0.428c-0.828,0-1.131,0.749-1.131,1.595c0,0.841,0.303,1.615,1.131,1.615
		c0.332,0,0.621-0.119,0.83-0.416h0.01V17.457z"/>
	<path fill="#0066A5" d="M171.227,13.954h-1.051v-0.655h2.832v0.655h-1.047v3.503h-0.734V13.954z"/>
	<path fill="#0066A5" d="M173.328,15.623c0.031-0.411,0.23-0.721,0.623-0.721c0.395,0,0.551,0.334,0.574,0.721H173.328z
		 M174.996,16.634c-0.262,0.168-0.557,0.312-0.896,0.312c-0.436,0-0.74-0.281-0.771-0.775h1.865c0-1.072-0.283-1.852-1.281-1.852
		c-0.84,0-1.256,0.73-1.256,1.62c0,1.007,0.521,1.59,1.412,1.59c0.377,0,0.672-0.082,0.928-0.244V16.634z"/>
	<path fill="#0066A5" d="M175.76,12.99h0.703v4.467h-0.703V12.99z"/>
	<path fill="#0066A5" d="M177.699,15.623c0.033-0.411,0.232-0.721,0.625-0.721c0.395,0,0.551,0.334,0.572,0.721H177.699z
		 M179.367,16.634c-0.262,0.168-0.555,0.312-0.895,0.312c-0.438,0-0.74-0.281-0.773-0.775h1.867c0-1.072-0.283-1.852-1.283-1.852
		c-0.84,0-1.254,0.73-1.254,1.62c0,1.007,0.518,1.59,1.408,1.59c0.379,0,0.672-0.082,0.93-0.244V16.634z"/>
	<path fill="#0066A5" d="M181.867,15.049c-0.125-0.064-0.262-0.111-0.477-0.111c-0.434,0-0.713,0.394-0.713,0.972
		c0,0.564,0.236,0.999,0.729,0.999c0.199,0,0.418-0.083,0.541-0.143l0.031,0.661c-0.205,0.071-0.412,0.102-0.703,0.102
		c-0.887,0-1.33-0.685-1.33-1.619c0-0.889,0.459-1.591,1.305-1.591c0.283,0,0.486,0.036,0.68,0.101L181.867,15.049z"/>
	<path fill="#0066A5" d="M183.006,15.85c0-0.46,0.221-0.912,0.676-0.912c0.463,0,0.682,0.439,0.682,0.912
		c0,0.511-0.141,1.059-0.682,1.059C183.146,16.908,183.006,16.356,183.006,15.85z M182.271,15.945c0,0.88,0.52,1.583,1.41,1.583
		c0.896,0,1.416-0.703,1.416-1.583c0-1.014-0.613-1.627-1.416-1.627C182.885,14.318,182.271,14.932,182.271,15.945z"/>
	<path fill="#0066A5" d="M185.637,14.39h0.654v0.429h0.012c0.221-0.375,0.539-0.5,0.801-0.5c0.379,0,0.646,0.16,0.797,0.543
		c0.166-0.37,0.516-0.543,0.846-0.543c0.664,0,0.854,0.518,0.854,1.203v1.936h-0.701v-1.828c0-0.287,0-0.691-0.404-0.691
		c-0.467,0-0.523,0.632-0.523,1.03v1.489h-0.703v-1.828c0-0.287,0-0.691-0.404-0.691c-0.467,0-0.523,0.632-0.523,1.03v1.489h-0.703
		V14.39z"/>
	<path fill="#0066A5" d="M190.295,14.39h0.658v0.429h0.01c0.221-0.375,0.539-0.5,0.801-0.5c0.379,0,0.646,0.16,0.799,0.543
		c0.162-0.37,0.514-0.543,0.842-0.543c0.668,0,0.855,0.518,0.855,1.203v1.936h-0.701v-1.828c0-0.287,0-0.691-0.404-0.691
		c-0.465,0-0.525,0.632-0.525,1.03v1.489h-0.699v-1.828c0-0.287,0-0.691-0.406-0.691c-0.465,0-0.523,0.632-0.523,1.03v1.489h-0.705
		V14.39z"/>
	<path fill="#0066A5" d="M197.447,17.457h-0.666v-0.416h-0.01c-0.215,0.298-0.52,0.487-0.887,0.487
		c-0.637,0-0.918-0.512-0.918-1.203V14.39h0.703v1.638c0,0.375,0.006,0.881,0.457,0.881c0.508,0,0.619-0.625,0.619-1.018V14.39
		h0.701V17.457z"/>
	<path fill="#0066A5" d="M198.172,14.39h0.666v0.417h0.01c0.221-0.351,0.518-0.488,0.887-0.488c0.637,0,0.914,0.512,0.914,1.203
		v1.936h-0.701v-1.64c0-0.373-0.004-0.88-0.455-0.88c-0.508,0-0.619,0.625-0.619,1.019v1.501h-0.701V14.39z"/>
	<path fill="#0066A5" d="M201.389,14.39h0.705v3.067h-0.705V14.39z M201.389,13.066h0.705v0.763h-0.705V13.066z"/>
	<path fill="#0066A5" d="M204.58,15.049c-0.123-0.064-0.26-0.111-0.477-0.111c-0.434,0-0.711,0.394-0.711,0.972
		c0,0.564,0.234,0.999,0.729,0.999c0.199,0,0.418-0.083,0.541-0.143l0.029,0.661c-0.203,0.071-0.414,0.102-0.701,0.102
		c-0.887,0-1.332-0.685-1.332-1.619c0-0.889,0.461-1.591,1.305-1.591c0.285,0,0.488,0.036,0.682,0.101L204.58,15.049z"/>
	<path fill="#0066A5" d="M205.656,16.568c0-0.47,0.467-0.527,0.781-0.527h0.303c0,0.238-0.029,0.458-0.145,0.629
		c-0.109,0.168-0.279,0.275-0.494,0.275C205.85,16.945,205.656,16.832,205.656,16.568z M205.301,15.236
		c0.236-0.204,0.535-0.334,0.832-0.334c0.416,0,0.607,0.165,0.607,0.66h-0.385c-0.295,0-0.641,0.03-0.91,0.18
		c-0.266,0.148-0.461,0.416-0.461,0.876c0,0.583,0.467,0.91,0.943,0.91c0.322,0,0.672-0.189,0.836-0.529h0.01
		c0.006,0.095,0.006,0.298,0.031,0.458h0.617c-0.014-0.238-0.025-0.453-0.031-0.686c-0.004-0.226-0.01-0.458-0.01-0.768V15.61
		c0-0.905-0.34-1.292-1.164-1.292c-0.299,0-0.666,0.089-0.938,0.233L205.301,15.236z"/>
	<path fill="#0066A5" d="M208.303,14.974h-0.518V14.39h0.518v-0.615l0.703-0.256v0.871h0.623v0.584h-0.623v1.429
		c0,0.262,0.063,0.506,0.33,0.506c0.127,0,0.246-0.029,0.32-0.083l0.021,0.632c-0.146,0.048-0.309,0.071-0.52,0.071
		c-0.549,0-0.855-0.388-0.855-0.995V14.974z"/>
	<path fill="#0066A5" d="M210.127,14.39h0.705v3.067h-0.705V14.39z M210.127,13.066h0.705v0.763h-0.705V13.066z"/>
	<path fill="#0066A5" d="M212.131,15.85c0-0.46,0.219-0.912,0.676-0.912c0.463,0,0.68,0.439,0.68,0.912
		c0,0.511-0.139,1.059-0.68,1.059C212.271,16.908,212.131,16.356,212.131,15.85z M211.396,15.945c0,0.88,0.52,1.583,1.41,1.583
		c0.896,0,1.416-0.703,1.416-1.583c0-1.014-0.613-1.627-1.416-1.627C212.01,14.318,211.396,14.932,211.396,15.945z"/>
	<path fill="#0066A5" d="M214.771,14.39h0.668v0.417h0.01c0.219-0.351,0.52-0.488,0.887-0.488c0.637,0,0.918,0.512,0.918,1.203
		v1.936h-0.705v-1.64c0-0.373-0.004-0.88-0.457-0.88c-0.506,0-0.617,0.625-0.617,1.019v1.501h-0.703V14.39z"/>
	<path fill="#0066A5" d="M219.58,15.032c-0.215-0.084-0.373-0.13-0.629-0.13c-0.189,0-0.414,0.077-0.414,0.338
		c0,0.489,1.221,0.18,1.221,1.287c0,0.715-0.561,1.001-1.131,1.001c-0.268,0-0.541-0.053-0.799-0.13l0.043-0.656
		c0.221,0.124,0.449,0.203,0.691,0.203c0.18,0,0.461-0.079,0.461-0.377c0-0.601-1.221-0.189-1.221-1.298
		c0-0.661,0.508-0.952,1.059-0.952c0.33,0,0.545,0.059,0.768,0.112L219.58,15.032z"/>
	<path fill="#0066A5" d="M132.879,20.604h0.24c0.369,0,0.777,0.043,0.777,0.541c0,0.521-0.416,0.579-0.777,0.579h-0.24V20.604z
		 M132.145,24.107h0.734V22.38h0.234c0.313,0,0.404,0.119,0.51,0.429l0.439,1.299h0.818l-0.588-1.626
		c-0.072-0.186-0.186-0.412-0.387-0.43V22.04c0.467-0.071,0.756-0.477,0.756-0.965c0-1.156-0.939-1.126-1.727-1.126h-0.791V24.107z"
		/>
	<path fill="#0066A5" d="M135.846,22.272c0.033-0.411,0.232-0.722,0.625-0.722c0.391,0,0.551,0.333,0.57,0.722H135.846z
		 M137.514,23.285c-0.264,0.166-0.557,0.31-0.896,0.31c-0.438,0-0.738-0.28-0.771-0.774h1.865c0-1.073-0.281-1.853-1.283-1.853
		c-0.84,0-1.254,0.733-1.254,1.62c0,1.007,0.52,1.592,1.41,1.592c0.377,0,0.67-0.085,0.93-0.246V23.285z"/>
	<path fill="#0066A5" d="M139.867,21.682c-0.215-0.083-0.373-0.131-0.629-0.131c-0.189,0-0.414,0.078-0.414,0.339
		c0,0.49,1.221,0.18,1.221,1.287c0,0.715-0.563,1.003-1.131,1.003c-0.268,0-0.541-0.057-0.799-0.133l0.045-0.655
		c0.219,0.126,0.447,0.203,0.689,0.203c0.178,0,0.463-0.077,0.463-0.374c0-0.603-1.221-0.191-1.221-1.3
		c0-0.661,0.506-0.953,1.057-0.953c0.33,0,0.545,0.059,0.764,0.113L139.867,21.682z"/>
	<path fill="#0066A5" d="M141.088,22.272c0.031-0.411,0.23-0.722,0.625-0.722c0.393,0,0.549,0.333,0.568,0.722H141.088z
		 M142.754,23.285c-0.26,0.166-0.555,0.31-0.896,0.31c-0.434,0-0.738-0.28-0.77-0.774h1.865c0-1.073-0.281-1.853-1.285-1.853
		c-0.836,0-1.25,0.733-1.25,1.62c0,1.007,0.52,1.592,1.41,1.592c0.377,0,0.67-0.085,0.926-0.246V23.285z"/>
	<path fill="#0066A5" d="M144.002,23.221c0-0.472,0.469-0.531,0.781-0.531h0.305c0,0.238-0.031,0.458-0.146,0.631
		c-0.111,0.166-0.277,0.274-0.494,0.274C144.197,23.595,144.002,23.481,144.002,23.221z M143.646,21.884
		c0.234-0.202,0.533-0.333,0.834-0.333c0.412,0,0.607,0.168,0.607,0.661h-0.389c-0.293,0-0.639,0.031-0.906,0.18
		c-0.268,0.146-0.461,0.417-0.461,0.875c0,0.583,0.465,0.913,0.943,0.913c0.32,0,0.67-0.191,0.834-0.532h0.01
		c0.004,0.096,0.004,0.298,0.033,0.46h0.617c-0.016-0.238-0.023-0.453-0.033-0.685c-0.004-0.228-0.01-0.461-0.01-0.77V22.26
		c0-0.904-0.342-1.292-1.164-1.292c-0.297,0-0.666,0.09-0.938,0.232L143.646,21.884z"/>
	<path fill="#0066A5" d="M146.436,21.037h0.623v0.699h0.01c0.033-0.287,0.32-0.769,0.74-0.769c0.068,0,0.141,0,0.213,0.023v0.803
		c-0.061-0.04-0.188-0.063-0.313-0.063c-0.57,0-0.57,0.807-0.57,1.251v1.125h-0.703V21.037z"/>
	<path fill="#0066A5" d="M150.115,21.701c-0.125-0.066-0.262-0.115-0.477-0.115c-0.434,0-0.713,0.394-0.713,0.973
		c0,0.566,0.236,1.001,0.729,1.001c0.199,0,0.418-0.085,0.539-0.145l0.033,0.662c-0.203,0.071-0.414,0.103-0.705,0.103
		c-0.885,0-1.33-0.686-1.33-1.621c0-0.889,0.461-1.591,1.307-1.591c0.281,0,0.486,0.035,0.682,0.102L150.115,21.701z"/>
	<path fill="#0066A5" d="M150.693,19.64h0.701v1.815h0.01c0.18-0.297,0.482-0.487,0.85-0.487c0.641,0,0.918,0.512,0.918,1.203v1.937
		h-0.703v-1.639c0-0.376-0.004-0.883-0.457-0.883c-0.506,0-0.617,0.626-0.617,1.02v1.502h-0.701V19.64z"/>
	<path fill="#0066A5" d="M155.352,19.949h0.734v4.158h-0.734V19.949z"/>
	<path fill="#0066A5" d="M156.809,21.037h0.668v0.418h0.008c0.221-0.351,0.521-0.487,0.889-0.487c0.639,0,0.916,0.512,0.916,1.203
		v1.937h-0.703v-1.639c0-0.376-0.004-0.883-0.457-0.883c-0.506,0-0.617,0.626-0.617,1.02v1.502h-0.703V21.037z"/>
	<path fill="#0066A5" d="M161.617,21.682c-0.215-0.083-0.373-0.131-0.629-0.131c-0.189,0-0.414,0.078-0.414,0.339
		c0,0.49,1.223,0.18,1.223,1.287c0,0.715-0.564,1.003-1.135,1.003c-0.266,0-0.539-0.057-0.795-0.133l0.041-0.655
		c0.219,0.126,0.449,0.203,0.693,0.203c0.178,0,0.461-0.077,0.461-0.374c0-0.603-1.223-0.191-1.223-1.3
		c0-0.661,0.508-0.953,1.059-0.953c0.33,0,0.545,0.059,0.766,0.113L161.617,21.682z"/>
	<path fill="#0066A5" d="M162.572,21.623h-0.521v-0.586h0.521v-0.611l0.701-0.257v0.868h0.625v0.586h-0.625v1.43
		c0,0.262,0.063,0.507,0.33,0.507c0.125,0,0.248-0.029,0.32-0.085l0.021,0.633c-0.148,0.047-0.311,0.072-0.518,0.072
		c-0.553,0-0.855-0.389-0.855-0.998V21.623z"/>
	<path fill="#0066A5" d="M164.395,21.037h0.703v3.07h-0.703V21.037z M164.395,19.716h0.703v0.764h-0.703V19.716z"/>
	<path fill="#0066A5" d="M166.068,21.623h-0.52v-0.586h0.52v-0.611l0.701-0.257v0.868h0.623v0.586h-0.623v1.43
		c0,0.262,0.063,0.507,0.33,0.507c0.127,0,0.248-0.029,0.32-0.085l0.021,0.633c-0.146,0.047-0.311,0.072-0.52,0.072
		c-0.551,0-0.854-0.389-0.854-0.998V21.623z"/>
	<path fill="#0066A5" d="M170.355,24.107h-0.664v-0.418h-0.014c-0.213,0.299-0.518,0.49-0.885,0.49
		c-0.641,0-0.918-0.514-0.918-1.205v-1.938h0.703v1.641c0,0.375,0.006,0.882,0.455,0.882c0.51,0,0.619-0.626,0.619-1.021v-1.501
		h0.703V24.107z"/>
	<path fill="#0066A5" d="M171.311,21.623h-0.52v-0.586h0.52v-0.611l0.699-0.257v0.868h0.627v0.586h-0.627v1.43
		c0,0.262,0.064,0.507,0.332,0.507c0.125,0,0.246-0.029,0.32-0.085l0.021,0.633c-0.148,0.047-0.311,0.072-0.52,0.072
		c-0.549,0-0.854-0.389-0.854-0.998V21.623z"/>
	<path fill="#0066A5" d="M173.615,22.272c0.033-0.411,0.232-0.722,0.623-0.722c0.395,0,0.551,0.333,0.574,0.722H173.615z
		 M175.283,23.285c-0.264,0.166-0.555,0.31-0.895,0.31c-0.438,0-0.74-0.28-0.773-0.774h1.867c0-1.073-0.283-1.853-1.283-1.853
		c-0.84,0-1.254,0.733-1.254,1.62c0,1.007,0.52,1.592,1.408,1.592c0.381,0,0.674-0.085,0.93-0.246V23.285z"/>
</g>
</svg>
