<svg xmlns="http://www.w3.org/2000/svg" width="790.90155pt" height="150pt" viewBox="0 0 790.90152 150"><path fill="#bcbec0" d="M298.48 430.161a75.634 75.634 0 0 0-14.22-2.8L230.7 471.34 122.265 544.5a73.456 73.456 0 0 0 5.821 8.13l105.557-80.486zM324.49 443.777a77.308 77.308 0 0 0-10.022-6.794l-78.692 61.837-96.805 64.698a76.83 76.83 0 0 0 10.623 7.3l83.243-66.924zM334.183 452.999a78.807 78.807 0 0 0-7.909-7.754l-89.963 69.059-85.287 57.312a77.396 77.396 0 0 0 11.526 5.078l74.565-59.192zM280.703 427.084a71.84 71.84 0 0 0-4.218-.108c-5.545 0-10.952.592-16.168 1.707l-28.546 26.113-115.445 78.057a78.71 78.71 0 0 0 4.736 9.659l109.918-84.51zM187.654 426.975c-42.497 0-76.955 34.445-76.955 76.955a77.023 77.023 0 0 0 4.456 25.848l115.03-89.985c-12.178-8.099-26.804-12.818-42.53-12.818M312.739 436.032a78.456 78.456 0 0 0-11.271-4.914l-62.486 49.831-109.554 73.286a77.071 77.071 0 0 0 8.726 8.609l93.092-73.364zM232.862 567.304a76.554 76.554 0 0 0 43.62 13.58c42.502 0 76.964-34.459 76.964-76.956a76.783 76.783 0 0 0-4.91-27.098zM347.75 474.823a77.21 77.21 0 0 0-5.186-10.355l-103.046 79.72-56.914 36.53c1.664.098 3.353.163 5.052.163 4.741 0 9.391-.45 13.903-1.266l29.95-26.623zM341.835 463.267a77.956 77.956 0 0 0-6.387-8.799l-92.994 71.306-78.234 51.46a75.756 75.756 0 0 0 14.803 3.16l55.959-45.816z" style="stroke-width:4.32185" transform="matrix(.959 0 0 .959 -106.16 -409.283)"/><path fill="#f5821f" d="M302.61 507.045h5.851v-20.991h-5.852zM313.79 480.755h20.978v-5.852H313.79zM275.926 480.755h20.991v-5.852h-20.99zM302.61 469.488h5.851v-20.983h-5.852z" style="stroke-width:4.32185" transform="matrix(.959 0 0 .959 -106.16 -409.283)"/><path fill="#ed1c24" d="M158.557 541.187h-12.624v-60.433h12.624v24.579l23.053-24.579h16.341l-24.665 24.734 26.096 35.699h-16.246l-18.688-26.515-5.89 6.06z" style="stroke-width:4.32185" transform="matrix(.959 0 0 .959 -106.16 -409.283)"/><path fill="#ed1c24" d="M240.72 480.753h-11.795v21.462h-.164c-1.854-2.87-5.39-6.993-12.97-6.993-9.85 0-18.601 7.58-18.601 23.075 0 12.282 5.553 24.068 18.86 24.068 4.88 0 10.096-1.768 12.957-6.82h.173v5.64h11.54zm-31.4 38.382c0-7.07 2.512-13.73 10.015-13.73 8.077 0 10.096 7.252 10.096 14.404 0 6.647-2.948 12.87-10.433 12.87-7.581 0-9.677-8.245-9.677-13.544M291.724 541.187H279.94v-27.189c0-3.284-.173-8.838-7.663-8.838-5.22 0-9.266 3.527-9.266 10.364v25.663h-11.781v-44.779h11.28v6.56h.173c1.594-2.696 4.965-7.748 13.466-7.748 8.756 0 15.576 5.143 15.576 14.992z" style="stroke-width:4.32185" transform="matrix(.959 0 0 .959 -106.16 -409.283)"/><path fill="#6d6e71" d="M585.638 525.6v-95.46h17.793v42.44h.29c2.774-7.533 7.364-15.943 11.189-22.919l10.394-19.521h20.126l-23.545 41.057 24.73 54.404h-20.14l-16.82-37.61-6.224 10.274V525.6zM818.456 525.598h-5.687v-95.46h5.687zM935.419 525.598h-5.675v-95.46h5.675zM689.092 525.6c4.464 0 9.3-.237 13.16-2.506 14.681-8.54 14.681-30.322 14.681-49.118 0-15.792-1.132-26.333-5.177-32.971-5.463-8.93-14.159-10.865-18.45-10.865h-37.194v95.46zm-15.183-13.99v-67.424h11.782c10.636 0 12.9 8.933 12.9 31.467 0 27.573-.994 35.958-16.946 35.958zM773.621 430.14h17.789v95.461h-18.588l-13.83-33.974c-4.715-11.315-8.536-22.923-12.75-37.929h-.255c.687 7.9 1.392 17.59 1.936 27.258.502 9.53.895 19.077.895 26.722v17.923h-17.836V430.14h18.445l13.882 34.782c4.551 11.068 8.432 22.383 12.706 37.933h.255c-.592-8.657-1.296-17.953-1.763-27.124-.501-9.17-.886-18.303-.886-26.817zM392.866 454.193c-1.802 3.116-2.693 6.6-2.693 10.606 0 7.317 2.576 13.501 7.732 18.635 5.221 5.087 11.583 7.654 19.055 7.654 7.494 0 13.791-2.567 19.02-7.654 5.13-5.134 7.767-11.318 7.767-18.635 0-4.007-.972-7.58-2.775-10.727-1.88-3.203-4.2-5.843-7.031-7.987h8.708v-13.96h-17.153v-5.341H408.38v5.341h-17.157v13.96h8.591c-2.774 2.317-5.086 5.052-6.95 8.108m57.313-25.3v69.672h17.114V464.29h9.681v-13.96h-9.68v-21.436zm18.165 84.69h-54.624v-18.255h-17.106V527.5h71.73zm-44.77-57.545c1.966 2.364 3.064 5.26 3.064 8.76 0 3.532-1.098 6.432-3.064 8.843-1.984 2.304-4.21 3.484-6.613 3.484-2.433 0-4.628-1.18-6.642-3.484-2.01-2.411-2.983-5.311-2.983-8.842 0-3.419.973-6.31 2.983-8.709 2.014-2.433 4.21-3.578 6.642-3.578 2.403 0 4.629 1.145 6.613 3.526M506.162 448.829c0 5.164-1.175 9.875-3.392 13.955-2.369 4.119-5.407 7.394-9.18 9.797-3.103 2.023-5.675 3.41-7.658 4.292-2.006.877-3.116 1.288-3.285 1.387l7.321 12.741c.165 0 1.09-.26 2.775-.8 1.729-.505 4.663-1.996 8.877-4.334 3.907-2.213 7.036-4.534 9.422-6.937 2.368-2.355 3.57-3.63 3.656-3.777.164.147 1.426 1.422 3.782 3.777 2.441 2.403 5.588 4.724 9.495 6.859 4.205 2.23 7.17 3.604 8.885 4.279 1.72.63 2.65.933 2.732.933l7.018-12.84c-.038-.07-1.045-.545-2.982-1.379-1.88-.89-4.417-2.23-7.49-4.2-4.066-2.568-7.238-5.891-9.499-10.014-2.286-4.115-3.366-8.79-3.366-14.094v-3.518h18.26v-13.938h-53.618v13.938h18.247zm59.966 64.667h-55.726v-18.203h-17.158v32.167h72.884zm-1.046-14.975h-17.158v-35.327H536.14v-13.938h11.785v-20.429h17.158zM862.656 445.039h-24.647v-13.925h72.849v13.925h-25.5c1.107 2.606 3.09 5.169 5.982 7.878 2.952 2.667 7.235 5.411 13.121 8.182 2.127.937 4.175 1.767 6.28 2.472 2.083.717 3.228 1.106 3.401 1.193l-7.537 13.618c-.074 0-1.037-.294-2.822-.839-1.841-.51-4.858-1.685-9.245-3.5-6.379-2.693-11.31-5.71-14.81-9.068-3.458-3.375-5.209-5.151-5.334-5.389-.168.238-1.936 2.014-5.35 5.337-3.371 3.333-8.341 6.427-14.72 9.344-4.132 1.889-7.145 2.965-8.994 3.453-1.859.402-2.926.662-3.03.662l-7.481-13.618c.173-.087 1.258-.476 3.354-1.146 2.13-.665 4.196-1.517 6.301-2.52 5.307-2.77 9.305-5.467 12.04-8.124 2.728-2.641 4.828-5.303 6.142-7.935m51.486 38.55v13.93h-31.134v30.024H865.85v-30.024h-31.031v-13.93zM395.411 576.977V552.46h4.568v10.886h.056a52.206 52.206 0 0 1 2.866-5.895l2.684-4.991h5.156l-6.038 10.536 6.323 13.981h-5.139l-4.317-9.668-1.59 2.645v7.023zM412.217 576.977V552.46h12.849v3.574h-8.285v6.21h7.632v3.574h-7.632v7.58h8.285v3.58zM431.961 563.138h2.455c1.024.022 1.832-.25 2.446-.813.562-.579.851-1.594.873-3.033 0-1.38-.281-2.278-.847-2.697-.605-.39-1.552-.58-2.835-.562h-2.092zm-4.568 13.839v-24.518h9.34c2.156.047 3.656.778 4.503 2.19.816 1.37 1.218 2.966 1.197 4.772 0 1.076-.147 2.13-.45 3.172a5.812 5.812 0 0 1-1.828 2.65 6.52 6.52 0 0 1-2.42 1.132c-.895.225-1.798.337-2.71.337h-3.064v10.265zM458.82 568.258c-.03.458-.064.929-.103 1.409-.044 2.264-.562 4.118-1.565 5.57-.998 1.509-2.749 2.287-5.26 2.326-1.85-.022-3.301-.312-4.365-.873-1.089-.58-1.897-1.366-2.424-2.364-.502-1.025-.826-2.218-.973-3.596-.172-1.344-.246-2.844-.22-4.482v-3.492c.039-1.569.143-3.025.311-4.374.208-1.31.558-2.455 1.055-3.427.497-1.007 1.279-1.768 2.342-2.3 1.037-.522 2.468-.786 4.27-.786 4.115.048 6.345 2.157 6.695 6.345.086.6.12 1.218.095 1.845h-4.5c-.02-.415-.055-.89-.099-1.413a9.26 9.26 0 0 0-.268-1.47c-.125-.484-.332-.877-.618-1.188-.276-.298-.713-.445-1.305-.445-.877.017-1.538.246-1.992.687-.48.436-.804.99-.973 1.668a9.2 9.2 0 0 0-.285 2.031c-.021.705-.034 1.31-.034 1.811v6.82c0 .506.034 1.059.09 1.668.07.588.195 1.172.385 1.746a3.26 3.26 0 0 0 1.02 1.349c.415.38 1.011.575 1.79.575.652 0 1.132-.234 1.43-.692.328-.402.549-.916.657-1.538.203-1.353.276-2.494.237-3.41zM465.738 568.561c0 .502.03 1.06.095 1.669.065.583.194 1.167.398 1.746.216.544.544.994 1.007 1.348.41.376 1.01.57 1.798.57.795 0 1.434-.194 1.914-.57.454-.38.782-.851.985-1.417a8.063 8.063 0 0 0 .35-1.906c.022-.636.03-1.254.03-1.841v-8.164a9.7 9.7 0 0 0-.354-2.07 3.606 3.606 0 0 0-.933-1.7c-.48-.436-1.141-.665-1.993-.686-.868.021-1.534.25-1.992.687-.48.44-.808.994-.99 1.668a9.784 9.784 0 0 0-.285 2.036c-.017.704-.03 1.31-.03 1.81zm-4.698-5.817c.043-1.56.147-3.016.316-4.365.207-1.305.553-2.455 1.054-3.427.501-1.003 1.275-1.768 2.338-2.304 1.055-.518 2.481-.778 4.287-.778 1.807 0 3.25.26 4.335.783 1.06.531 1.837 1.296 2.338 2.303.532.973.882 2.118 1.05 3.428.152 1.348.234 2.804.251 4.369v3.496c0 1.638-.047 3.134-.155 4.482-.147 1.374-.471 2.572-.968 3.596-.506.994-1.306 1.785-2.42 2.364-1.085.562-2.563.851-4.43.873-1.846-.022-3.311-.311-4.383-.873-1.08-.58-1.884-1.37-2.403-2.364-.497-1.024-.825-2.222-.985-3.592a32.802 32.802 0 0 1-.225-4.481zM486.68 576.977V552.46h4.568v10.886h.057a52.206 52.206 0 0 1 2.865-5.895l2.684-4.991h5.156l-6.038 10.536 6.323 13.981h-5.139l-4.317-9.668-1.59 2.645v7.023zM507.159 560.424h.064c.554-1.041 1.24-1.707 2.058-1.98.79-.284 1.46-.423 2.018-.397 1.245 0 2.273.359 3.094 1.085.783.77 1.167 1.975 1.146 3.622v14.223h-4.24v-12.309c0-.933-.091-1.664-.285-2.182-.251-.527-.796-.808-1.634-.852-.804 0-1.383.307-1.733.912-.372.653-.536 1.483-.489 2.494v11.937h-4.24V558.54h4.24zM521.466 570.967c-.021 1.12.108 1.94.385 2.46.264.527.89.79 1.867.79.955 0 1.569-.263 1.837-.79.216-.523.311-1.34.29-2.46v-6.163c.021-.916-.065-1.72-.256-2.416-.224-.7-.847-1.063-1.87-1.089-1.068.026-1.717.39-1.967 1.09-.208.695-.307 1.5-.286 2.415zm2.252 6.5c-2.701.044-4.473-.652-5.324-2.087-.873-1.47-1.262-3.795-1.163-6.976.017-1.607.086-3.042.186-4.308.09-1.293.32-2.369.691-3.242.41-.916 1.068-1.62 1.962-2.122.87-.458 2.084-.683 3.648-.683 1.595 0 2.84.225 3.734.683a4.243 4.243 0 0 1 1.85 2.122c.367.873.596 1.95.683 3.242.086 1.266.116 2.7.095 4.308.12 3.181-.242 5.507-1.098 6.976-.83 1.435-2.584 2.13-5.264 2.087M544.552 569.857c.23 1.305.368 2.62.433 3.959h.095c.021-1.504.142-2.865.363-4.093l1.404-11.18h4.27l-3.73 18.432h-4.615l-1.405-7.464a43.232 43.232 0 0 1-.553-4.65h-.134a45.733 45.733 0 0 1-.423 4.395l-1.31 7.72h-4.732l-3.773-18.433h4.464l1.491 11.24c.203 1.232.32 2.594.367 4.098h.065c.065-1.323.208-2.64.428-3.946l1.75-11.392h3.488zM552.693 552.459h4.235v24.518h-4.235zM567.846 565.388v-1.608c.022-.946-.143-1.603-.488-1.98-.368-.332-.986-.5-1.872-.5-1.059.025-1.685.371-1.876 1.032-.203.653-.298 1.422-.272 2.3v.756zm-8.743-.497c-.126-4.495 1.988-6.781 6.327-6.842 1.508 0 2.714.173 3.63.523.89.376 1.556.916 2.001 1.63.467.7.757 1.542.86 2.52.113 1.002.16 2.143.16 3.435v2.485h-8.743v2.693c.043 1.17.277 1.944.696 2.316.437.398.994.584 1.655.566 1.57 0 2.26-1.162 2.088-3.479h4.244c.315 4.374-1.686 6.617-6.003 6.73-4.867.069-7.166-2.52-6.915-7.754zM582.073 565.392c.04-.42.052-.852.052-1.314a5.853 5.853 0 0 0-.255-1.305c-.224-.938-.855-1.43-1.897-1.474-1.003.026-1.582.385-1.755 1.09-.086.319-.155.7-.198 1.131-.026.441-.06.886-.104 1.345v6.154c.043.894.216 1.642.506 2.234.306.631.795.942 1.46.942 1.461 0 2.191-1.089 2.191-3.276zm0 9.62h-.069c-.389.895-.899 1.513-1.508 1.867-.627.35-1.374.545-2.252.588-.899-.022-1.638-.216-2.217-.588a4.142 4.142 0 0 1-1.379-1.439 7.03 7.03 0 0 1-.678-1.997c-.147-.743-.25-1.469-.29-2.182v-6.673c.06-2.511.484-4.231 1.262-5.169.791-.938 1.889-1.396 3.302-1.37 1.794-.108 3.099.679 3.911 2.351h.061a9.553 9.553 0 0 1-.143-1.647v-6.292h4.24v24.518h-4.24zM596.651 565.409c.035-.415.052-.852.052-1.31a6.087 6.087 0 0 0-.255-1.314c-.23-.933-.864-1.426-1.902-1.465-.998.022-1.581.38-1.75 1.085-.09.32-.16.696-.203 1.132-.026.441-.056.886-.104 1.344v6.155c.048.894.216 1.642.51 2.234.307.631.791.947 1.46.947 1.462 0 2.192-1.094 2.192-3.28zm-3.959 13.63c0 .398.173.675.523.822.372.181.834.272 1.387.272.951-.026 1.574-.328 1.863-.925.264-.562.393-1.218.393-1.966v-2.122l-.069-.065c-.423.847-.95 1.444-1.59 1.794-.666.367-1.474.574-2.416.618-1.798-.044-2.995-.705-3.596-1.993a7.207 7.207 0 0 1-.674-1.996 12.988 12.988 0 0 1-.26-2.183v-6.677c.065-2.507.489-4.24 1.267-5.2.765-.937 1.854-1.395 3.267-1.37 1.954-.064 3.22.735 3.795 2.395h.069v-1.902h4.235v17.888c0 .917-.073 1.79-.237 2.62a5.579 5.579 0 0 1-1.025 2.152c-.484.64-1.188 1.12-2.096 1.439-.933.367-2.139.557-3.621.557-1.461 0-2.697-.302-3.7-.911-1.003-.636-1.582-1.72-1.759-3.246zM611.575 565.388v-1.608c.018-.946-.142-1.603-.492-1.98-.363-.332-.986-.5-1.867-.5-1.06.025-1.686.371-1.876 1.032-.208.653-.298 1.422-.277 2.3v.756zm-8.743-.497c-.125-4.495 1.988-6.781 6.327-6.842 1.509 0 2.714.173 3.626.523.89.376 1.56.916 2.001 1.63.471.7.757 1.542.865 2.52.108 1.002.16 2.143.16 3.435v2.485h-8.748v2.693c.048 1.17.281 1.944.696 2.316.44.398.998.584 1.66.566 1.564 0 2.26-1.162 2.083-3.479h4.248c.316 4.374-1.685 6.617-6.003 6.73-4.866.069-7.17-2.52-6.915-7.754zM618.965 580.278c.787-.104 1.366-.471 1.75-1.09.42-.583.597-1.322.528-2.212h-2.278v-4.313h4.305v4.218c0 2.805-1.435 4.417-4.305 4.832zM640.17 573.398c1.97.022 3.21-.64 3.72-1.996.428-1.353.632-3.782.606-7.274.026-2.878-.178-4.966-.605-6.254-.454-1.223-1.353-1.84-2.706-1.84h-3.004v17.364zm-6.557 3.579v-24.518h9.517c.307 0 .661.022 1.05.07.393.081.808.228 1.24.427.437.19.87.471 1.31.847.428.376.808.847 1.124 1.44.938 1.633 1.383 4.46 1.34 8.47a44.678 44.678 0 0 1-.446 7.248c-.22 1.158-.583 2.191-1.084 3.107a6.265 6.265 0 0 1-2.209 2.252 4.241 4.241 0 0 1-1.642.527c-.584.078-1.167.13-1.75.13zM660.056 567.262c-.557.354-1.145.708-1.767 1.072-.644.393-1.27.82-1.88 1.279a1.944 1.944 0 0 0-.592 1.02 4.237 4.237 0 0 0-.173 1.206c0 .7.155 1.257.458 1.668.294.462.847.687 1.664.687.7 0 1.206-.182 1.525-.553a2.5 2.5 0 0 0 .627-1.28c.134-1.11.182-2.143.138-3.098zm.588 9.715c-.26-.613-.341-1.244-.26-1.897l-.055-.004c-.497.765-1.085 1.357-1.764 1.768-.644.397-1.34.6-2.087.622-3.423.026-5.121-1.82-5.074-5.523 0-1.077.19-1.958.575-2.654.346-.722.812-1.305 1.413-1.746a9.845 9.845 0 0 1 2.088-1.245c.756-.315 1.564-.64 2.42-.968.942-.376 1.595-.804 1.953-1.28.342-.479.41-1.08.203-1.806-.09-.402-.31-.66-.66-.782-.342-.108-.83-.164-1.462-.164-.968 0-1.612.233-1.931.687-.307.467-.446 1.128-.424 2.001h-4.037c-.069-1.802.355-3.237 1.262-4.296.908-1.076 2.676-1.62 5.299-1.642 1.487 0 2.65.164 3.492.493.869.332 1.487.765 1.854 1.31.402.544.661 1.136.765 1.771.095.627.125 1.258.078 1.884v10.883a9.6 9.6 0 0 0 .363 2.589zM673.305 577.04c-.627.065-1.275.1-1.953.122a8.572 8.572 0 0 1-1.988-.217 2.66 2.66 0 0 1-1.466-.907c-.419-.41-.622-1.046-.622-1.893v-12.508h-1.724v-3.094h1.694v-5.057h4.27v5.057h1.79v3.094h-1.79v11.458c.112.371.371.583.76.622.385.047.727.047 1.03 0zM682.666 567.262c-.553.354-1.14.708-1.759 1.072-.648.393-1.27.82-1.884 1.279a1.938 1.938 0 0 0-.588 1.02 4.242 4.242 0 0 0-.177 1.206c0 .7.16 1.257.462 1.668.29.462.843.687 1.66.687.704 0 1.21-.182 1.526-.553.328-.35.535-.778.63-1.28.13-1.11.178-2.143.13-3.098zm.588 9.715a3.662 3.662 0 0 1-.25-1.897l-.066-.004c-.492.765-1.08 1.357-1.759 1.768-.643.397-1.34.6-2.078.622-3.436.026-5.126-1.82-5.083-5.523 0-1.077.195-1.958.58-2.654a4.44 4.44 0 0 1 1.413-1.746 9.81 9.81 0 0 1 2.083-1.245 97.77 97.77 0 0 1 2.424-.968c.942-.376 1.59-.804 1.954-1.28.337-.479.406-1.08.194-1.806-.09-.402-.307-.66-.657-.782-.337-.108-.83-.164-1.456-.164-.977 0-1.617.233-1.936.687-.303.467-.441 1.128-.42 2.001h-4.045c-.065-1.802.355-3.237 1.27-4.296.908-1.076 2.672-1.62 5.3-1.642 1.482 0 2.649.164 3.491.493.87.332 1.483.765 1.85 1.31.402.544.657 1.136.765 1.771.1.627.121 1.258.078 1.884v10.883a9.6 9.6 0 0 0 .363 2.589zM704.96 560.036c.51-.35.976-.79 1.395-1.31a2.803 2.803 0 0 0 .618-1.663c-.021-.61-.194-1.08-.51-1.41a1.623 1.623 0 0 0-1.232-.53 1.588 1.588 0 0 0-1.167.336c-.34.26-.514.679-.514 1.267.022.574.195 1.15.514 1.715.307.562.606 1.098.895 1.595m-1.413 5.744c-.216.069-.471.216-.76.454a4.926 4.926 0 0 0-.908.99 4.78 4.78 0 0 0-.623 1.313 4.63 4.63 0 0 0-.138 1.6 5.517 5.517 0 0 0 1.106 2.558c.545.778 1.323 1.18 2.321 1.201.614 0 1.184-.138 1.712-.419.51-.242.972-.557 1.4-.925zm6.223 2.623c.463-1.456.71-2.947.757-4.469h3.613a16.63 16.63 0 0 1-2.148 8.246l2.921 4.889h-4.91l-.88-1.63c-1.617 1.461-3.528 2.165-5.719 2.127-1.91-.022-3.462-.74-4.659-2.153-1.244-1.357-1.875-3.099-1.897-5.234 0-1.81.437-3.319 1.318-4.52.852-1.171 2.014-2.235 3.466-3.19a30.65 30.65 0 0 1-1.348-2.554 6.285 6.285 0 0 1-.64-2.744c.022-1.915.644-3.29 1.867-4.119a6.807 6.807 0 0 1 3.886-1.184c1.396 0 2.614.45 3.669 1.344 1.037.89 1.569 2.144 1.59 3.751-.06 2.684-1.3 4.728-3.712 6.124zM735.85 552.46h4.567v24.518h-4.762l-3.544-8.735c-1.159-2.766-2.256-6.007-3.285-9.732h-.065c.173 2.096.342 4.425.51 6.988.156 2.537.23 4.819.23 6.859v4.62h-4.569V552.46h4.728l3.548 8.925c1.133 2.683 2.218 5.93 3.26 9.737h.06a353.315 353.315 0 0 1-.441-6.963 105.656 105.656 0 0 1-.238-6.897zM751.862 565.388v-1.608c.026-.946-.138-1.603-.488-1.98-.36-.332-.986-.5-1.863-.5-1.063.025-1.694.371-1.88 1.032-.208.653-.298 1.422-.277 2.3v.756zm-8.743-.497c-.121-4.495 1.988-6.781 6.327-6.842 1.508 0 2.719.173 3.63.523.89.376 1.56.916 2.001 1.63.472.7.757 1.542.865 2.52.108 1.002.16 2.143.16 3.435v2.485h-8.748v2.693c.048 1.17.277 1.944.696 2.316.445.398.994.584 1.664.566 1.565 0 2.256-1.162 2.079-3.479h4.248c.316 4.374-1.685 6.617-6.007 6.73-4.858.069-7.166-2.52-6.915-7.754zM765.832 577.04c-.627.065-1.275.1-1.958.122a8.535 8.535 0 0 1-1.984-.217 2.66 2.66 0 0 1-1.465-.907c-.415-.41-.622-1.046-.622-1.893v-12.508h-1.724v-3.094h1.694v-5.057h4.265v5.057h1.794v3.094h-1.794v11.458c.117.371.376.583.765.622.38.047.722.047 1.029 0zM781.883 569.857a31.68 31.68 0 0 1 .428 3.959h.095c.021-1.504.147-2.865.371-4.093l1.4-11.18h4.27l-3.729 18.432h-4.62l-1.396-7.464a44.364 44.364 0 0 1-.562-4.65h-.13a45.731 45.731 0 0 1-.427 4.395l-1.306 7.72h-4.732l-3.777-18.433h4.464l1.496 11.24c.203 1.232.324 2.594.367 4.098h.065a32.67 32.67 0 0 1 .428-3.946l1.754-11.392h3.484zM794.042 570.967c-.021 1.12.104 1.94.38 2.46.264.527.895.79 1.872.79.955 0 1.573-.263 1.833-.79.211-.523.31-1.34.293-2.46v-6.163c.018-.916-.064-1.72-.259-2.416-.229-.7-.843-1.063-1.867-1.089-1.067.026-1.72.39-1.966 1.09-.212.695-.307 1.5-.286 2.415zm2.252 6.5c-2.701.044-4.477-.652-5.329-2.087-.873-1.47-1.257-3.795-1.162-6.976.021-1.607.086-3.042.185-4.308.091-1.293.32-2.369.692-3.242.415-.916 1.072-1.62 1.962-2.122.869-.458 2.088-.683 3.652-.683 1.595 0 2.84.225 3.73.683a4.243 4.243 0 0 1 1.85 2.122c.371.873.6 1.95.687 3.242.086 1.266.112 2.7.09 4.308.126 3.181-.242 5.507-1.097 6.976-.83 1.435-2.58 2.13-5.26 2.087M809.156 561.8h.07c.497-1.288 1.05-2.16 1.65-2.619.64-.492 1.163-.782 1.582-.864.432-.095.787-.13 1.063-.095v5.009c-1.188-.147-2.165-.004-2.925.432-.355.212-.644.532-.878.938-.229.467-.359 1.028-.397 1.698v10.68h-4.24v-18.437h4.075zM815.191 576.977V552.46h4.231v11.076c0 .761-.017 1.539-.073 2.33h.073l4.007-7.326h4.637l-4.637 7.425 4.512 11.012h-4.737l-2.645-7.515-1.137 1.897v5.618zM852.147 568.258c-.03.458-.07.929-.108 1.409-.04 2.264-.562 4.118-1.56 5.57-.999 1.509-2.754 2.287-5.265 2.326-1.85-.022-3.306-.312-4.365-.873-1.085-.58-1.897-1.366-2.424-2.364-.502-1.025-.821-2.218-.973-3.596-.173-1.344-.246-2.844-.22-4.482v-3.492c.039-1.569.142-3.025.315-4.374.203-1.31.554-2.455 1.05-3.427.498-1.007 1.28-1.768 2.343-2.3 1.042-.522 2.468-.786 4.274-.786 4.11.048 6.34 2.157 6.69 6.345.087.6.122 1.218.1 1.845h-4.5c-.02-.415-.055-.89-.098-1.413a9.275 9.275 0 0 0-.273-1.47c-.125-.484-.328-.877-.622-1.188-.272-.298-.709-.445-1.301-.445-.873.017-1.539.246-1.992.687-.48.436-.8.99-.973 1.668a9.202 9.202 0 0 0-.285 2.031c-.022.705-.035 1.31-.035 1.811v6.82c0 .506.035 1.059.095 1.668.07.588.19 1.172.38 1.746.23.545.567.994 1.025 1.349.41.38 1.011.575 1.785.575.657 0 1.132-.234 1.43-.692.333-.402.55-.916.657-1.538.2-1.353.281-2.494.238-3.41zM858.338 570.967c-.026 1.12.108 1.94.38 2.46.268.527.89.79 1.872.79.96 0 1.569-.263 1.832-.79.216-.523.316-1.34.294-2.46v-6.163c.022-.916-.065-1.72-.26-2.416-.224-.7-.846-1.063-1.866-1.089-1.068.026-1.72.39-1.967 1.09-.211.695-.31 1.5-.285 2.415zm2.252 6.5c-2.701.044-4.478-.652-5.325-2.087-.873-1.47-1.266-3.795-1.162-6.976.017-1.607.082-3.042.185-4.308.087-1.293.32-2.369.692-3.242.406-.916 1.067-1.62 1.958-2.122.873-.458 2.087-.683 3.652-.683 1.594 0 2.835.225 3.73.683a4.202 4.202 0 0 1 1.85 2.122c.37.873.6 1.95.686 3.242a55.51 55.51 0 0 1 .096 4.308c.12 3.181-.247 5.507-1.103 6.976-.825 1.435-2.58 2.13-5.26 2.087M870.708 572.663h4.304v4.313h-4.304zM877.618 580.278c.79-.104 1.374-.471 1.754-1.09.415-.583.593-1.322.528-2.212h-2.282v-4.313h4.304v4.218c0 2.805-1.434 4.417-4.304 4.832zM891.904 576.977V552.46h4.568v20.939h8.471v3.578zM912.948 577.04c-.63.065-1.284.1-1.958.122a8.52 8.52 0 0 1-1.988-.217 2.675 2.675 0 0 1-1.465-.907c-.41-.41-.622-1.046-.622-1.893v-12.508h-1.72v-3.094h1.69v-5.057h4.27v5.057h1.793v3.094h-1.794v11.458c.117.371.372.583.765.622.38.047.722.047 1.03 0zM922.421 565.392c.035-.42.06-.852.06-1.314a6.135 6.135 0 0 0-.263-1.305c-.23-.938-.86-1.43-1.897-1.474-.999.026-1.582.385-1.76 1.09-.081.319-.15.7-.194 1.131-.021.441-.056.886-.108 1.345v6.154c.052.894.22 1.642.514 2.234.307.631.796.942 1.461.942 1.461 0 2.187-1.089 2.187-3.276zm0 9.62h-.06c-.394.895-.904 1.513-1.517 1.867-.627.35-1.379.545-2.256.588-.89-.022-1.63-.216-2.213-.588a4.181 4.181 0 0 1-1.379-1.439 7.023 7.023 0 0 1-.674-1.997 15.1 15.1 0 0 1-.298-2.182v-6.673c.065-2.511.488-4.231 1.266-5.169.791-.938 1.889-1.396 3.298-1.37 1.798-.108 3.107.679 3.92 2.351h.064a9.153 9.153 0 0 1-.15-1.647v-6.292h4.243v24.518h-4.244zM930.634 572.663h4.305v4.313h-4.305z" style="stroke-width:4.32185" transform="matrix(.959 0 0 .959 -106.16 -409.283)"/></svg>