<svg xmlns="http://www.w3.org/2000/svg" xml:space="preserve" width="705.29108" height="400" viewBox="0 0 705.29106 400"><defs><clipPath id="a" clipPathUnits="userSpaceOnUse"><path d="M0 595.28h841.89V0H0Z"/></clipPath></defs><g clip-path="url(#a)" transform="matrix(2.35514 0 0 -2.35514 -683.998 824.735)"><path d="M0 0v14.645h29.635v9.748H.006l.008 14.782h35.63v9.746h-43.22c-3.723 0-4.504-2.871-4.509-5.28V-7.098c0-2.575 2.511-4.165 4.393-4.165h44.016v9.362H1.687C.397-1.901 0-1.235 0 0m-162.061 48.921-27.591-26.013v26.013h-11.327v-60.184h11.327V9.526l5.826 5.476 22.693-26.265h13.717l-28.513 32.657 28.274 27.527zM85.78 31.593c-.053 3.315-.854 7.599-7.155 7.599H57.129l-.01-17.811h20.707c5.197 0 7.946 3.111 7.946 9.005zm11.761 2.604-.007-5.168c0-11.304-8.957-17.407-17.386-17.407H57.119l-.015-22.885H45.193v56.728c0 2.344 1.022 3.456 3.426 3.456h36.043c5.896 0 12.802-6.417 12.879-14.724M-19.963-15.916l-122.833-10.316v82.064l122.833 10.316z" style="fill:#c70012;fill-opacity:1;fill-rule:nonzero;stroke:none" transform="translate(492.356 284.037)"/><path d="M0 0h20.534l.015-50.438H32.63V0h20.564v9.746H0Zm-40.694-41.076h34.638v-9.362h-42.998c-1.889 0-4.397 1.59-4.393 4.166V4.466c0 2.409.782 5.28 4.501 5.28h42.21V0h-35.626l-.01-14.782h29.635v-9.748h-29.638v-14.645c0-1.235.393-1.901 1.681-1.901" style="fill:#fff;fill-opacity:1;fill-rule:nonzero;stroke:none" transform="translate(411.216 323.212)"/><path d="m0 0-1.124 2.182c2.321.073 3.696.755 6.015 2.134 2.365 1.431 3.566 3.257 3.566 5.436v2.308h4.537V9.752c0-2.179 1.205-4.005 3.577-5.436 2.322-1.379 3.699-2.061 5.998-2.134L21.459 0c-1.904.009-3.988.445-6.201 1.302-2.221.865-3.682 1.977-4.35 3.304l-.178.366-.178-.368c-.67-1.367-2.116-2.479-4.306-3.315C4.064.442 1.965.009 0 0m24.307-4.713v2.996H-2.799v-2.996H8.645v-1.928H.807v-2.882h15.479v-1.711H1.131v-3.983c0-.923.299-1.685.876-2.265.589-.578 1.372-.872 2.329-.872h16.299v2.686H5.469v1.839h15.164v7.188h-7.639v1.928zM-7.449-18.354h-4.349V12.06h4.349zM-31.398 7.583h9.764v-.848c0-4.524-1.12-7.964-3.333-10.215-1.933-1.96-4.344-3.284-7.174-3.913l1.405-1.993c3.148.22 6.413 1.799 9.446 4.586 2.943 2.706 4.431 6.717 4.431 11.905v3.958h-14.539zm-11.819-14.62-1.648-1.808c-1.696.166-3.577.943-4.947 2.032-1.542 1.257-2.508 2.563-2.857 3.89l-.209.724-.189-.724c-.351-1.349-1.315-2.645-2.849-3.859-1.634-1.299-3.675-1.911-5.042-2.053l-1.611 1.794c1.905.488 3.609 1.739 5.064 3.728 1.549 2.124 2.334 4.706 2.334 7.667v3.229h-5.664v3.48h15.922v-3.48h-5.691V4.354c0-2.973.79-5.551 2.343-7.667 1.475-1.989 3.166-3.237 5.044-3.724m2.282-11.317h4.334V12.06h-4.334zM-65.789 12.06v-30.414h-4.338V1.064h-7.83v2.961h7.83v8.035Zm-19.031-1.953h-4.344V-6c0-.926.316-1.675.934-2.235a3.215 3.215 0 0 1 2.241-.865h13.007v3.504H-84.82Zm-26.874-14.591c-.686-1.479-1.571-2.237-2.634-2.237-1.074 0-1.972.758-2.657 2.237-.668 1.437-1.002 3.228-1.002 5.327 0 2.049.334 3.822 1.002 5.261.685 1.479 1.58 2.231 2.657 2.231 1.067 0 1.954-.752 2.634-2.231.647-1.443.972-3.213.972-5.261 0-2.099-.325-3.89-.972-5.327m7.451 6.787h-2.225c-.263 2.801-1.297 4.949-2.836 6.622-1.491 1.626-3.145 2.51-5.024 2.51-2.14 0-4.004-1.048-5.528-3.122-1.555-2.092-2.337-4.625-2.337-7.53 0-2.934.782-5.469 2.337-7.529 1.531-2.036 3.388-3.068 5.528-3.068 1.89 0 3.576.828 5.024 2.455 1.445 1.629 2.513 3.924 2.808 6.676h2.253v-17.671h4.009V12.06h-4.009zm6.097-20.657h4.011V12.06h-4.011zM95.738-9.039h4.273v3.809h7.735v3.327H89.054V-5.23h6.684zm2.469-5.807v4.513h-4.343v-4.884c0-.983.295-1.735.923-2.298.593-.556 1.355-.839 2.283-.839h18.063v3.508zm5.475 4.864h6.752v-2.07h4.35V12.06h-4.35V-6.846h-6.752zM94.818 5.896c0-1.032.332-1.905.981-2.614.662-.69 1.48-1.042 2.424-1.042.91 0 1.705.352 2.366 1.042.653.695.983 1.569.983 2.614 0 1.049-.33 1.928-.983 2.608-.661.693-1.456 1.046-2.366 1.046-.944 0-1.762-.353-2.424-1.049-.649-.694-.981-1.571-.981-2.605m-4.455 0c0 1.757.772 3.274 2.273 4.506 1.528 1.257 3.402 1.885 5.584 1.885 2.182 0 4.058-.628 5.564-1.885 1.498-1.251 2.253-2.764 2.253-4.506 0-1.744-.755-3.254-2.253-4.486-1.516-1.246-3.391-1.881-5.564-1.881-2.167 0-4.051.635-5.584 1.881-1.501 1.231-2.273 2.736-2.273 4.486m-31.701 5.167h14.517V7.105c0-5.193-1.495-9.203-4.423-11.905-3.199-2.966-6.211-4.505-9.211-4.709l-1.541 2.148c2.787.64 5.166 1.947 7.07 3.881 2.223 2.237 3.344 5.675 3.344 10.215v.848h-9.756Zm23.295-7.115v8.112h-4.336v-30.414h4.336V.472h4.316v3.476Zm-33.414 8.046V6.707h-4.227V4.064h4.227V2.533h-4.227V-.048h4.227v-5.383h4.331v17.425zm-.291-24.577c0 1.099-.516 2.085-1.544 2.937-1.02.838-2.242 1.272-3.626 1.272-1.383 0-2.61-.434-3.629-1.272-1.029-.866-1.547-1.852-1.547-2.937 0-1.095.518-2.066 1.547-2.896 1.014-.825 2.235-1.241 3.629-1.241 1.393 0 2.613.416 3.622 1.241 1.026.812 1.548 1.788 1.548 2.896m4.539 0c0-1.829-.949-3.416-2.811-4.722-1.891-1.304-4.214-1.963-6.898-1.963-2.683 0-5.006.659-6.893 1.963-1.871 1.314-2.818 2.893-2.818 4.722 0 1.82.947 3.418 2.821 4.736 1.884 1.318 4.204 1.983 6.89 1.983 2.684 0 5.007-.665 6.898-1.983 1.862-1.313 2.811-2.911 2.811-4.736M38.37 8.097h-3.695v-9.564h3.695zm7.021-12.374h-17.37v2.809h2.7v9.565h-2.516v2.893h16.971V8.097h-2.861v-9.565h3.076zM-130.309.53c.305.407.57 1.108.809 2.078.223.967.336 1.854.336 2.71v6.56h-20.49V8.412h16.136V5.201c0-.811-.035-1.657-.099-2.596a10.027 10.027 0 0 0-.487-2.277l-.045-.154h-18.366v-3.47h10.841V-6.54h-8.357v-3.463h16.788v-8.351h4.387V-6.54h-8.551v3.244h11.273v3.47h-4.449zm-29.079 11.57h-4.281v-22.368h4.281V1.466h4.1v3.523h-4.1zm-15.934-16.519c.857 0 1.591.545 2.24 1.671.604 1.078.917 2.363.917 3.82 0 1.464-.313 2.744-.917 3.805-.64 1.091-1.392 1.648-2.24 1.648-.817 0-1.552-.557-2.198-1.648-.618-1.037-.937-2.314-.937-3.805 0-1.482.319-2.768.937-3.824.64-1.107 1.375-1.667 2.198-1.667m0-2.749c-1.979 0-3.719.817-5.178 2.421-1.46 1.623-2.201 3.585-2.201 5.819 0 1.231.264 2.409.748 3.509a4.145 4.145 0 0 0 1.548 1.769h-3.382v3.47h6.289v2.613h4.286V9.82h6.332V6.35h-3.294s.981-.495 1.514-1.769a9.058 9.058 0 0 0 .722-3.509c0-2.25-.722-4.204-2.167-5.819-1.442-1.604-3.203-2.421-5.217-2.421m.162-7.678h16.321v-3.476h-17.475c-.912 0-1.68.288-2.278.845-.591.555-.893 1.331-.893 2.298v6.414h4.325z" style="fill:#c70012;fill-opacity:1;fill-rule:nonzero;stroke:none" transform="translate(474.215 235.023)"/><path d="m0 0 3.843 4.82h1.575L1.465-.09l4.174-5.925H3.864L0-.303v-5.712h-1.421V4.82H0Z" style="fill:#c70012;fill-opacity:1;fill-rule:nonzero;stroke:none" transform="translate(294.598 205.76)"/><path d="M0 0c0-1.274.105-2.159.316-2.648.211-.487.641-.73 1.288-.73.604 0 1.013.248 1.23.744.215.495.323 1.373.323 2.634 0 1.007-.136 1.689-.411 2.048-.275.356-.661.537-1.157.537-.559 0-.964-.194-1.214-.582C.125 1.621 0 .953 0 0m-1.318-.492c0 1.585.229 2.661.684 3.231.462.57 1.208.855 2.238.855 1.08 0 1.828-.313 2.245-.936.418-.618.626-1.627.626-3.026 0-1.496-.216-2.542-.647-3.135-.432-.589-1.173-.884-2.224-.884-1.02 0-1.764.276-2.229.825-.462.555-.693 1.579-.693 3.07" style="fill:#c70012;fill-opacity:1;fill-rule:nonzero;stroke:none" transform="translate(303.136 203.97)"/><path d="M0 0v7.655h1.236V6.456c.324.908 1.023 1.362 2.098 1.362h.258V6.529a2.992 2.992 0 0 1-.662.074c-1.13 0-1.694-.697-1.694-2.09V0Z" style="fill:#c70012;fill-opacity:1;fill-rule:nonzero;stroke:none" transform="translate(310.231 199.746)"/><path d="M0 0h2.922c0 1.055-.154 1.771-.464 2.149-.196.246-.51.369-.942.369-.55 0-.939-.185-1.17-.553C.115 1.598 0 .941 0 0m0-.935c0-.992.123-1.67.368-2.039.245-.363.628-.545 1.148-.545.378 0 .685.132.921.399.234.268.365.624.389 1.065H4.18c0-.769-.23-1.375-.691-1.818-.462-.437-1.105-.654-1.929-.654-1.178 0-1.953.363-2.326 1.089-.368.732-.552 1.666-.552 2.805 0 1.522.218 2.581.655 3.179.442.604 1.185.907 2.231.907.991 0 1.682-.277 2.076-.832.397-.55.595-1.468.595-2.754v-.802z" style="fill:#c70012;fill-opacity:1;fill-rule:nonzero;stroke:none" transform="translate(316.995 204.111)"/><path d="M0 0c-.938 0-1.588-.123-1.95-.368-.363-.245-.545-.636-.545-1.171 0-.441.107-.791.323-1.046.216-.255.501-.382.854-.382.501 0 .891.196 1.171.589C.132-1.985.272-1.193.272 0zm-3.555 1.766c.03 1.491.88 2.239 2.554 2.239s2.51-.774 2.51-2.319v-3.762c0-.61.059-1.188.177-1.737H.309v1.141c-.353-.869-.989-1.304-1.906-1.304-1.424 0-2.135.832-2.135 2.496 0 .776.255 1.372.766 1.79.51.415 1.271.624 2.282.624h.956v.655c0 .986-.434 1.48-1.303 1.48-.348 0-.637-.108-.868-.323-.226-.212-.339-.539-.339-.98z" style="fill:#c70012;fill-opacity:1;fill-rule:nonzero;stroke:none" transform="translate(327.571 203.56)"/><path d="M336.336 210.581h1.421v-10.835h-1.421z" style="fill:#c70012;fill-opacity:1;fill-rule:nonzero;stroke:none"/><path d="M0 0h-1.236v6.309c0 .368-.013.816-.037 1.346H.045L0 6.639c.226.438.511.741.854.913.348.177.76.266 1.237.266.701 0 1.214-.188 1.538-.559.329-.368.494-1.007.494-1.914V0H2.886v5.322c0 .991-.44 1.488-1.318 1.488C.523 6.81 0 6.091 0 4.651Z" style="fill:#c70012;fill-opacity:1;fill-rule:nonzero;stroke:none" transform="translate(342.056 199.746)"/><path d="M0 0c0-.975.405-1.464 1.214-1.464.428 0 .753.091.98.273.225.186.338.476.338.868 0 .275-.128.509-.383.699-.255.196-.638.41-1.148.641-.716.324-1.269.668-1.657 1.031-.387.368-.58.806-.58 1.316 0 .673.232 1.199.698 1.576.467.377 1.112.568 1.936.568.771 0 1.362-.168 1.774-.502.413-.329.619-.729.619-1.198v-.421H2.378c0 .79-.379 1.185-1.134 1.185-.344 0-.623-.093-.839-.28-.216-.187-.324-.441-.324-.766 0-.295.191-.557.574-.787.383-.225.766-.422 1.148-.589.648-.304 1.151-.628 1.51-.972.357-.343.536-.77.536-1.28 0-1.581-.878-2.371-2.635-2.371-1.752 0-2.627.826-2.627 2.473z" style="fill:#c70012;fill-opacity:1;fill-rule:nonzero;stroke:none" transform="translate(350.057 202.057)"/><path d="M0 0v.936h1.258v1.45l1.237.552V.936h1.649V0H2.495v-4.887c0-.319.09-.564.272-.736.187-.166.464-.25.832-.25.137 0 .329.019.574.059v-.934c-.295-.09-.701-.134-1.222-.134-1.128 0-1.693.467-1.693 1.4V0Z" style="fill:#c70012;fill-opacity:1;fill-rule:nonzero;stroke:none" transform="translate(355.127 206.466)"/><path d="M361.022 207.401h1.237v-7.655h-1.237zm-.08 3.334h1.398v-1.332h-1.398z" style="fill:#c70012;fill-opacity:1;fill-rule:nonzero;stroke:none"/><path d="M0 0v.936h1.258v1.45l1.237.552V.936h1.649V0H2.495v-4.887c0-.319.09-.564.272-.736.187-.166.464-.25.832-.25.137 0 .329.019.574.059v-.934c-.295-.09-.701-.134-1.222-.134-1.128 0-1.693.467-1.693 1.4V0Z" style="fill:#c70012;fill-opacity:1;fill-rule:nonzero;stroke:none" transform="translate(363.871 206.466)"/><path d="M0 0h1.237v-5.322c0-1.04.424-1.56 1.273-1.56.495 0 .868.182 1.118.545.251.363.376.763.376 1.199V0h1.237v-6.309c0-.373.012-.822.037-1.346H4.004v1.015c-.387-.784-1.049-1.177-1.987-1.177-.628 0-1.121.162-1.48.485C.179-7.002 0-6.523 0-5.896Z" style="fill:#c70012;fill-opacity:1;fill-rule:nonzero;stroke:none" transform="translate(369.847 207.401)"/><path d="M0 0v.936h1.258v1.45l1.237.552V.936h1.649V0H2.495v-4.887c0-.319.09-.564.272-.736.186-.166.463-.25.832-.25.137 0 .329.019.574.059v-.934c-.295-.09-.702-.134-1.222-.134-1.128 0-1.693.467-1.693 1.4V0Z" style="fill:#c70012;fill-opacity:1;fill-rule:nonzero;stroke:none" transform="translate(376.803 206.466)"/><path d="M0 0h2.922c0 1.055-.154 1.771-.464 2.149-.196.246-.51.369-.942.369-.55 0-.939-.185-1.17-.553C.116 1.598 0 .941 0 0m0-.935c0-.992.123-1.67.368-2.039.246-.363.628-.545 1.148-.545.378 0 .685.132.921.399.234.268.365.624.389 1.065h1.355c0-.769-.231-1.375-.692-1.818-.461-.437-1.104-.654-1.929-.654-1.178 0-1.953.363-2.326 1.089-.368.732-.552 1.666-.552 2.805 0 1.522.218 2.581.655 3.179.442.604 1.185.907 2.231.907.991 0 1.683-.277 2.076-.832.397-.55.596-1.468.596-2.754v-.802z" style="fill:#c70012;fill-opacity:1;fill-rule:nonzero;stroke:none" transform="translate(383.92 204.111)"/><path d="M0 0c0-1.274.105-2.159.316-2.648.211-.487.641-.73 1.288-.73.604 0 1.013.248 1.23.744.215.495.323 1.373.323 2.634 0 1.007-.136 1.689-.411 2.048-.275.356-.661.537-1.157.537-.559 0-.964-.194-1.214-.582C.125 1.621 0 .953 0 0m-1.318-.492c0 1.585.229 2.661.684 3.231.462.57 1.207.855 2.238.855 1.08 0 1.828-.313 2.245-.936.418-.618.626-1.627.626-3.026 0-1.496-.216-2.542-.647-3.135-.432-.589-1.173-.884-2.224-.884-1.02 0-1.764.276-2.229.825-.462.555-.693 1.579-.693 3.07" style="fill:#c70012;fill-opacity:1;fill-rule:nonzero;stroke:none" transform="translate(395.917 203.97)"/><path d="M0 0h1.178v1.288c0 .663.166 1.144.5 1.443.339.298.916.449 1.73.449.177 0 .356-.015.538-.043v-.906a1.513 1.513 0 0 1-.288.014c-.829 0-1.243-.331-1.243-.994V0h1.531v-.936H2.415v-6.719H1.178v6.719H0Z" style="fill:#c70012;fill-opacity:1;fill-rule:nonzero;stroke:none" transform="translate(401.989 207.401)"/><path d="M0 0v10.835h5.661V9.628H1.42V6.175h3.932V4.969H1.42V1.208h4.329V0Z" style="fill:#c70012;fill-opacity:1;fill-rule:nonzero;stroke:none" transform="translate(411.828 199.746)"/><path d="M0 0h-1.236v6.309c0 .368-.013.816-.037 1.346H.045L0 6.639c.226.438.511.741.854.913.349.177.761.266 1.237.266.701 0 1.214-.188 1.538-.559.329-.368.494-1.007.494-1.914V0H2.886v5.322c0 .991-.439 1.488-1.318 1.488C.523 6.81 0 6.091 0 4.651Z" style="fill:#c70012;fill-opacity:1;fill-rule:nonzero;stroke:none" transform="translate(421.073 199.746)"/><path d="M0 0h2.923c0 1.055-.154 1.771-.465 2.149-.195.246-.51.369-.941.369-.551 0-.94-.185-1.171-.553C.116 1.598 0 .941 0 0m0-.935c0-.992.122-1.67.368-2.039.245-.363.628-.545 1.149-.545.377 0 .683.132.92.399.234.268.365.624.389 1.065h1.355c0-.769-.231-1.375-.692-1.818-.461-.437-1.104-.654-1.929-.654-1.178 0-1.953.363-2.326 1.089-.368.732-.551 1.666-.551 2.805 0 1.522.217 2.581.654 3.179.442.604 1.185.907 2.23.907.993 0 1.684-.277 2.077-.832.397-.55.595-1.468.595-2.754v-.802z" style="fill:#c70012;fill-opacity:1;fill-rule:nonzero;stroke:none" transform="translate(429.177 204.111)"/><path d="M0 0v7.655h1.237V6.456c.324.908 1.023 1.362 2.098 1.362h.257V6.529a2.972 2.972 0 0 1-.662.074c-1.129 0-1.693-.697-1.693-2.09V0Z" style="fill:#c70012;fill-opacity:1;fill-rule:nonzero;stroke:none" transform="translate(436.176 199.746)"/><path d="M0 0c0-1.095.118-1.874.353-2.341.236-.46.609-.691 1.119-.691.471 0 .83.186 1.074.559.251.378.376 1.143.376 2.296 0 1.163-.114 1.945-.346 2.341-.23.401-.591.605-1.082.605-.555 0-.942-.232-1.163-.692C.11 1.619 0 .928 0 0m-.965-4.864H.448c0-.385.121-.658.362-.826.24-.161.496-.243.765-.243.873 0 1.311.428 1.311 1.282v1.552c-.369-.628-.943-.942-1.723-.942-1.006 0-1.698.429-2.076 1.288-.27.618-.404 1.534-.404 2.745 0 2.523.798 3.785 2.399 3.785.839 0 1.44-.393 1.804-1.179v1.016h1.236v-8.399c0-1.388-.881-2.083-2.643-2.083-.804 0-1.413.176-1.826.523-.412.354-.618.768-.618 1.244z" style="fill:#c70012;fill-opacity:1;fill-rule:nonzero;stroke:none" transform="translate(442.903 203.787)"/><path d="M0 0h1.428l1.871-6.183L5.145 0h1.334L2.996-10.482H1.723l.846 2.827z" style="fill:#c70012;fill-opacity:1;fill-rule:nonzero;stroke:none" transform="translate(448.916 207.401)"/><path d="M0 0h7.073v-1.207H4.246v-9.628h-1.42v9.628H0Z" style="fill:#c70012;fill-opacity:1;fill-rule:nonzero;stroke:none" transform="translate(460.281 210.581)"/><path d="M0 0h2.923c0 1.055-.154 1.771-.464 2.149-.196.246-.51.369-.942.369-.55 0-.94-.185-1.171-.553C.116 1.598 0 .941 0 0m0-.935c0-.992.123-1.67.369-2.039.245-.363.627-.545 1.148-.545.378 0 .684.132.921.399.234.268.365.624.388 1.065h1.356c0-.769-.231-1.375-.693-1.818-.461-.437-1.104-.654-1.928-.654-1.178 0-1.954.363-2.327 1.089-.367.732-.551 1.666-.551 2.805 0 1.522.217 2.581.655 3.179.441.604 1.185.907 2.23.907.992 0 1.684-.277 2.077-.832.396-.55.595-1.468.595-2.754v-.802z" style="fill:#c70012;fill-opacity:1;fill-rule:nonzero;stroke:none" transform="translate(470.467 204.111)"/><path d="M0 0h1.317c0-.854-.235-1.519-.707-1.995a2.292 2.292 0 0 0-1.7-.714c-1.119 0-1.875.331-2.267.994-.393.663-.589 1.629-.589 2.901 0 1.486.216 2.54.647 3.158.432.618 1.178.927 2.238.927.721 0 1.289-.203 1.702-.604.411-.403.617-1.064.617-1.987H-.06c0 .501-.088.887-.264 1.162a.855.855 0 0 1-.766.421c-.54 0-.932-.195-1.178-.582-.24-.387-.361-1.055-.361-2.003 0-1.339.11-2.238.332-2.694.221-.457.61-.684 1.17-.684C-.376-1.695 0-1.128 0 0" style="fill:#c70012;fill-opacity:1;fill-rule:nonzero;stroke:none" transform="translate(481.39 202.293)"/><path d="M0 0h1.236v-4.196c.409.786 1.105 1.179 2.091 1.179.712 0 1.228-.194 1.546-.582.324-.383.486-1.013.486-1.891v-5.345H4.122v5.322c0 .992-.432 1.488-1.296 1.488-1.058 0-1.59-.719-1.59-2.159v-4.651H0Z" style="fill:#c70012;fill-opacity:1;fill-rule:nonzero;stroke:none" transform="translate(485.525 210.581)"/><path d="M0 0h-1.237v6.309c0 .368-.012.816-.036 1.346H.044L0 6.639c.226.438.511.741.854.913.348.177.76.266 1.237.266.701 0 1.214-.188 1.538-.559.329-.368.493-1.007.493-1.914V0H2.886v5.322c0 .991-.44 1.488-1.319 1.488C.522 6.81 0 6.091 0 4.651Z" style="fill:#c70012;fill-opacity:1;fill-rule:nonzero;stroke:none" transform="translate(494.925 199.746)"/><path d="M0 0c0-1.274.104-2.159.315-2.648.212-.487.641-.73 1.289-.73.603 0 1.013.248 1.23.744.215.495.322 1.373.322 2.634 0 1.007-.136 1.689-.411 2.048-.274.356-.661.537-1.156.537-.56 0-.964-.194-1.214-.582C.125 1.621 0 .953 0 0m-1.318-.492c0 1.585.228 2.661.683 3.231.462.57 1.207.855 2.239.855 1.08 0 1.828-.313 2.245-.936.417-.618.626-1.627.626-3.026 0-1.496-.216-2.542-.648-3.135-.432-.589-1.173-.884-2.223-.884-1.02 0-1.764.276-2.23.825-.462.555-.692 1.579-.692 3.07" style="fill:#c70012;fill-opacity:1;fill-rule:nonzero;stroke:none" transform="translate(502.934 203.97)"/><path d="M509.947 210.581h1.236v-10.835h-1.236z" style="fill:#c70012;fill-opacity:1;fill-rule:nonzero;stroke:none"/><path d="M0 0c0-1.274.105-2.159.316-2.648.211-.487.641-.73 1.288-.73.604 0 1.013.248 1.23.744.215.495.324 1.373.324 2.634 0 1.007-.137 1.689-.412 2.048-.275.356-.661.537-1.156.537-.56 0-.965-.194-1.215-.582C.125 1.621 0 .953 0 0m-1.318-.492c0 1.585.228 2.661.685 3.231.461.57 1.207.855 2.237.855 1.08 0 1.829-.313 2.246-.936.417-.618.626-1.627.626-3.026 0-1.496-.216-2.542-.648-3.135-.432-.589-1.174-.884-2.224-.884-1.02 0-1.763.276-2.229.825-.462.555-.693 1.579-.693 3.07" style="fill:#c70012;fill-opacity:1;fill-rule:nonzero;stroke:none" transform="translate(515.025 203.97)"/><path d="M0 0c0-1.095.118-1.874.353-2.341.235-.46.608-.691 1.118-.691.472 0 .83.186 1.076.559.25.378.374 1.143.374 2.296 0 1.163-.114 1.945-.344 2.341-.231.401-.593.605-1.084.605-.554 0-.94-.232-1.163-.692C.11 1.619 0 .928 0 0m-.965-4.864H.447c0-.385.122-.658.363-.826.241-.161.495-.243.766-.243.873 0 1.311.428 1.311 1.282v1.552c-.37-.628-.944-.942-1.725-.942-1.004 0-1.697.429-2.075 1.288-.271.618-.404 1.534-.404 2.745 0 2.523.799 3.785 2.399 3.785.838 0 1.441-.393 1.805-1.179v1.016h1.236v-8.399c0-1.388-.882-2.083-2.643-2.083-.806 0-1.415.176-1.826.523-.412.354-.619.768-.619 1.244z" style="fill:#c70012;fill-opacity:1;fill-rule:nonzero;stroke:none" transform="translate(523.225 203.787)"/><path d="M0 0h1.428l1.87-6.183L5.146 0h1.333L2.995-10.482H1.724l.844 2.827z" style="fill:#c70012;fill-opacity:1;fill-rule:nonzero;stroke:none" transform="translate(529.237 207.401)"/><path d="M0 0v10.834h5.661V9.628h-4.24V6.175h3.931V4.968H1.421V1.207h4.328V0Z" style="fill:#c70012;fill-opacity:1;fill-rule:nonzero;stroke:none" transform="translate(293.177 183.17)"/><path d="m0 0 1.833 6.522h1.295L.773-1.133H-.854l-2.237 7.655H-1.7Z" style="fill:#c70012;fill-opacity:1;fill-rule:nonzero;stroke:none" transform="translate(303.43 184.304)"/><path d="M0 0c-.938 0-1.588-.122-1.951-.367-.363-.246-.545-.637-.545-1.172 0-.441.108-.79.324-1.045.216-.255.501-.383.854-.383.5 0 .891.196 1.171.59C.132-1.985.272-1.193.272 0zm-3.555 1.766c.029 1.492.88 2.239 2.554 2.239 1.673 0 2.51-.773 2.51-2.318v-3.763c0-.609.059-1.187.176-1.737H.309v1.141C-.045-3.54-.68-3.976-1.598-3.976c-1.423 0-2.134.832-2.134 2.496 0 .776.255 1.372.766 1.79.509.416 1.27.625 2.281.625h.957v.654c0 .986-.434 1.48-1.303 1.48-.348 0-.637-.108-.868-.323-.226-.212-.339-.539-.339-.98z" style="fill:#c70012;fill-opacity:1;fill-rule:nonzero;stroke:none" transform="translate(312.115 186.983)"/><path d="M316.597 194.005h1.237v-10.834h-1.237z" style="fill:#c70012;fill-opacity:1;fill-rule:nonzero;stroke:none"/><path d="M0 0h1.237v-5.323c0-1.04.425-1.56 1.273-1.56.495 0 .868.182 1.118.545.251.363.377.764.377 1.2V0h1.236v-6.31c0-.372.012-.822.037-1.345H4.005v1.014c-.388-.784-1.05-1.177-1.988-1.177-.628 0-1.121.163-1.48.486C.18-7.002 0-6.524 0-5.896Z" style="fill:#c70012;fill-opacity:1;fill-rule:nonzero;stroke:none" transform="translate(320.63 190.826)"/><path d="M0 0c-.938 0-1.588-.122-1.951-.367-.363-.246-.545-.637-.545-1.172 0-.441.108-.79.324-1.045.216-.255.501-.383.854-.383.501 0 .891.196 1.171.59C.132-1.985.272-1.193.272 0zm-3.555 1.766c.029 1.492.88 2.239 2.554 2.239 1.673 0 2.51-.773 2.51-2.318v-3.763c0-.609.059-1.187.176-1.737H.309v1.141C-.045-3.54-.68-3.976-1.598-3.976c-1.423 0-2.134.832-2.134 2.496 0 .776.255 1.372.766 1.79.509.416 1.27.625 2.281.625h.957v.654c0 .986-.434 1.48-1.303 1.48-.348 0-.637-.108-.868-.323-.226-.212-.339-.539-.339-.98z" style="fill:#c70012;fill-opacity:1;fill-rule:nonzero;stroke:none" transform="translate(332.348 186.983)"/><path d="M0 0v.936h1.258v1.45l1.237.551V.936h1.649V0H2.495v-4.888c0-.318.09-.564.273-.736.186-.165.463-.25.831-.25.137 0 .329.02.575.059v-.934c-.295-.089-.702-.134-1.222-.134-1.129 0-1.694.467-1.694 1.4V0Z" style="fill:#c70012;fill-opacity:1;fill-rule:nonzero;stroke:none" transform="translate(335.726 189.89)"/><path d="M341.622 190.826h1.236v-7.655h-1.236zm-.081 3.333h1.398v-1.332h-1.398z" style="fill:#c70012;fill-opacity:1;fill-rule:nonzero;stroke:none"/><path d="M0 0c0-1.274.105-2.159.316-2.648.211-.486.641-.73 1.288-.73.604 0 1.013.249 1.23.744.215.496.323 1.374.323 2.634 0 1.008-.136 1.689-.411 2.048-.275.357-.661.537-1.157.537-.559 0-.964-.194-1.214-.581C.125 1.621 0 .953 0 0m-1.318-.492c0 1.586.229 2.661.684 3.231.462.57 1.208.855 2.238.855 1.08 0 1.828-.313 2.245-.936.418-.618.626-1.627.626-3.026 0-1.496-.216-2.541-.647-3.134-.432-.59-1.173-.885-2.224-.885-1.02 0-1.764.276-2.229.825-.462.555-.693 1.579-.693 3.07" style="fill:#c70012;fill-opacity:1;fill-rule:nonzero;stroke:none" transform="translate(346.7 187.394)"/><path d="M0 0h-1.236v6.309c0 .368-.013.815-.037 1.346H.045L0 6.639c.226.437.511.74.854.913.349.177.76.265 1.237.265.701 0 1.214-.188 1.538-.559.329-.368.494-1.007.494-1.913V0H2.886v5.322c0 .991-.44 1.487-1.318 1.487C.523 6.809 0 6.09 0 4.651Z" style="fill:#c70012;fill-opacity:1;fill-rule:nonzero;stroke:none" transform="translate(354.973 183.17)"/><path d="M0 0c-.938 0-1.588-.122-1.951-.367-.363-.246-.545-.637-.545-1.172 0-.441.108-.79.324-1.045.216-.255.501-.383.854-.383.5 0 .891.196 1.171.59C.132-1.985.272-1.193.272 0zm-3.555 1.766c.029 1.492.88 2.239 2.553 2.239 1.674 0 2.511-.773 2.511-2.318v-3.763c0-.609.059-1.187.176-1.737H.309v1.141C-.045-3.54-.68-3.976-1.598-3.976c-1.423 0-2.134.832-2.134 2.496 0 .776.255 1.372.766 1.79.509.416 1.27.625 2.281.625h.957v.654c0 .986-.434 1.48-1.303 1.48-.348 0-.637-.108-.869-.323-.225-.212-.338-.539-.338-.98z" style="fill:#c70012;fill-opacity:1;fill-rule:nonzero;stroke:none" transform="translate(369.465 186.983)"/><path d="M0 0h-1.236v6.309c0 .368-.013.815-.037 1.346H.045L0 6.639c.226.437.511.74.854.913.349.177.76.265 1.237.265.701 0 1.214-.188 1.538-.559.329-.368.494-1.007.494-1.913V0H2.886v5.322c0 .991-.44 1.487-1.318 1.487C.523 6.809 0 6.09 0 4.651Z" style="fill:#c70012;fill-opacity:1;fill-rule:nonzero;stroke:none" transform="translate(375.206 183.17)"/><path d="M0 0c0-1.051.127-1.778.383-2.185.255-.408.64-.612 1.156-.612.456 0 .799.196 1.03.59.236.392.353 1.174.353 2.347 0 .859-.047 1.487-.14 1.885a1.77 1.77 0 0 1-.411.795c-.207.23-.499.346-.877.346-.589 0-.986-.223-1.192-.671C.101 2.049 0 1.217 0 0m2.922 3.113v4.078h1.236V-3.643H2.922v.899c-.353-.708-.949-1.062-1.789-1.062-.878 0-1.506.313-1.884.936-.378.623-.567 1.641-.567 3.055 0 1.545.209 2.595.626 3.15.417.56 1.038.84 1.862.84.815 0 1.399-.354 1.752-1.062" style="fill:#c70012;fill-opacity:1;fill-rule:nonzero;stroke:none" transform="translate(383.214 186.814)"/><path d="M0 0v-3.622h1.545c.614 0 1.078.167 1.392.5.313.335.471.776.471 1.326 0 .568-.142 1.01-.427 1.324-.285.314-.685.472-1.2.472Zm-1.421 1.206h3.269c.912 0 1.636-.245 2.171-.734.54-.487.809-1.272.809-2.358 0-.931-.262-1.655-.787-2.17-.525-.516-1.256-.773-2.193-.773H0v-4.799h-1.421z" style="fill:#c70012;fill-opacity:1;fill-rule:nonzero;stroke:none" transform="translate(395.932 192.799)"/><path d="M403.167 194.005h1.237v-10.834h-1.237z" style="fill:#c70012;fill-opacity:1;fill-rule:nonzero;stroke:none"/><path d="M0 0c-.938 0-1.588-.122-1.951-.367-.363-.246-.545-.637-.545-1.172 0-.441.108-.79.324-1.045.216-.255.501-.383.854-.383.5 0 .891.196 1.171.59C.132-1.985.272-1.193.272 0zm-3.555 1.766c.029 1.492.88 2.239 2.553 2.239 1.674 0 2.511-.773 2.511-2.318v-3.763c0-.609.059-1.187.176-1.737H.309v1.141C-.045-3.54-.68-3.976-1.598-3.976c-1.423 0-2.134.832-2.134 2.496 0 .776.255 1.372.766 1.79.509.416 1.27.625 2.281.625h.957v.654c0 .986-.434 1.48-1.303 1.48-.348 0-.637-.108-.868-.323-.226-.212-.339-.539-.339-.98z" style="fill:#c70012;fill-opacity:1;fill-rule:nonzero;stroke:none" transform="translate(410.777 186.983)"/><path d="M0 0h-1.236v6.309c0 .368-.012.815-.037 1.346H.045L0 6.639c.226.437.511.74.854.913.349.177.76.265 1.237.265.701 0 1.214-.188 1.538-.559.329-.368.494-1.007.494-1.913V0H2.886v5.322c0 .991-.44 1.487-1.318 1.487C.523 6.809 0 6.09 0 4.651Z" style="fill:#c70012;fill-opacity:1;fill-rule:nonzero;stroke:none" transform="translate(416.518 183.17)"/><path d="M0 0h-1.236v6.309c0 .368-.012.815-.037 1.346H.045L0 6.639c.226.437.511.74.854.913.349.177.76.265 1.237.265.701 0 1.214-.188 1.538-.559.328-.368.494-1.007.494-1.913V0H2.886v5.322c0 .991-.44 1.487-1.318 1.487C.523 6.809 0 6.09 0 4.651Z" style="fill:#c70012;fill-opacity:1;fill-rule:nonzero;stroke:none" transform="translate(424.658 183.17)"/><path d="M431.54 190.826h1.236v-7.655h-1.236zm-.081 3.333h1.398v-1.332h-1.398z" style="fill:#c70012;fill-opacity:1;fill-rule:nonzero;stroke:none"/><path d="M0 0h-1.237v6.309c0 .368-.012.815-.036 1.346H.044L0 6.639c.226.437.511.74.854.913.348.177.76.265 1.237.265.701 0 1.214-.188 1.538-.559.329-.368.493-1.007.493-1.913V0H2.886v5.322c0 .991-.44 1.487-1.319 1.487C.522 6.809 0 6.09 0 4.651Z" style="fill:#c70012;fill-opacity:1;fill-rule:nonzero;stroke:none" transform="translate(436.751 183.17)"/><path d="M0 0c0-1.095.117-1.874.353-2.341.235-.461.608-.692 1.118-.692.472 0 .83.186 1.075.559.251.378.376 1.143.376 2.297 0 1.163-.115 1.944-.346 2.341-.23.401-.592.604-1.082.604-.555 0-.942-.231-1.164-.692C.109 1.619 0 .927 0 0m-.965-4.865H.448c0-.384.12-.658.361-.825.241-.162.496-.243.765-.243.874 0 1.311.427 1.311 1.282V-3.1c-.368-.628-.942-.941-1.723-.941-1.006 0-1.697.429-2.076 1.287-.27.618-.404 1.534-.404 2.746 0 2.523.8 3.784 2.4 3.784.838 0 1.439-.393 1.803-1.178v1.016h1.236v-8.399c0-1.389-.881-2.083-2.642-2.083-.805 0-1.413.175-1.827.522-.411.354-.617.769-.617 1.244z" style="fill:#c70012;fill-opacity:1;fill-rule:nonzero;stroke:none" transform="translate(444.818 187.212)"/></g></svg>