<svg xmlns="http://www.w3.org/2000/svg" xml:space="preserve" width="1272.9371" height="199.99962" viewBox="0 0 1272.9371 199.99962"><path d="M111.15 388.55v7.141H90.867v8.092h10.006a21.88 21.88 0 0 0-5.355 14.393c0 11.91 9.316 21.553 20.806 21.553 11.496 0 20.809-9.642 20.809-21.553a21.881 21.881 0 0 0-5.354-14.393h10.008v-8.092h-20.125v-7.14zm5.174 17.464c6.222 0 11.27 5.45 11.27 12.162 0 6.726-5.048 12.174-11.27 12.174-6.217 0-11.262-5.448-11.262-12.174 0-6.712 5.045-12.162 11.262-12.162z" style="fill:#202a53;fill-opacity:1;fill-rule:nonzero;stroke:none;stroke-width:4.94221" transform="translate(181.09 -367.875)"/><path d="M134.107 292.663v6.067h-10.475s-5.767-.537-5.767-5.352v-31.636h8.7v30.92z" style="fill:#202a53;fill-opacity:1;fill-rule:nonzero;stroke:none;stroke-width:3.70666" transform="matrix(1.33333 0 0 -1.33333 181.09 425.826)"/><path d="M194.176 395.813v8.447H262.6v31.888h-68.504v8.329h33.215v8.918h-33.135v8.45H262.6v19.206h11.134v-21.776s-.933-5.88-9.31-5.88h-24.688v-8.918h34.008v-8.329h-.01V401.7s-.933-5.887-9.31-5.887z" style="fill:#202a53;fill-opacity:1;fill-rule:nonzero;stroke:none;stroke-width:4.94221" transform="translate(181.09 -367.875)"/><path d="M261.56 234.534h8.355v59.37s-.604 4.781-6.984 4.781h-6.023v-6.334h4.652zM346.904 234.534h8.35v59.37s-.6 4.781-6.979 4.781h-6.027v-6.334h4.656z" style="fill:#202a53;fill-opacity:1;fill-rule:nonzero;stroke:none;stroke-width:3.70666" transform="matrix(1.33333 0 0 -1.33333 181.09 425.826)"/><path d="M858.809 395.451v8.447h14.642v11.43h-14.486v8.445h14.486v21.051h11.131v-42.428s.435-6.945-9.316-6.945z" style="fill:#202a53;fill-opacity:1;fill-rule:nonzero;stroke:none;stroke-width:4.94221" transform="translate(181.09 -367.875)"/><path d="M732.856 268.073h8.35v26.192s-.7 4.422-6.982 4.422h-52.857v-6.335h51.489zM808.151 261.918h9.2v32.218s-.697 4.415-6.99 4.415h-10.417v-6.338h8.207zM76.672 255.319h-8.355v-16.42s.708-4.411 6.991-4.411h52.801v6.33H76.672ZM306.04 298.505h-8.359v-38.731s.705-4.41 6.987-4.41h35.8v6.341H306.04zM612.122 255.493h-8.355v-16.498s.7-4.423 6.987-4.423h52.568v6.331h-51.2zM765.98 255.493h-8.354v-16.498s.7-4.423 6.983-4.423h52.564v6.331h-51.192zM237.145 294.081c-5.572 0-10.09-5.47-10.09-12.217 0-6.75 4.518-12.232 10.09-12.232 5.567 0 10.089 5.482 10.089 12.232 0 6.746-4.522 12.217-10.09 12.217m16.755-12.217c0-9.974-7.499-18.07-16.754-18.07-9.256 0-16.758 8.096-16.758 18.07 0 9.979 7.502 18.067 16.758 18.067 9.255 0 16.754-8.088 16.754-18.067M282.147 234.526h-8.122v64.07h8.122zM509.87 234.526h-8.115v64.07h8.114zM425.848 298.595v-35.383h-10.809s-13.44-.671-15.071 10.756v18.293h16.005v6.197h-41.389v-6.197h15.832v-18.923s-1.157-11.15-18.044-10.167v-7.495s15.72-2.324 22.822 8.833c0 0 4.655-9.548 20.838-9.015h9.816v-20.79h8.113v63.891zM450.144 298.686h30.387s6.627.508 6.627-3.57V277.27s-1.734-20.168-28.285-21.417h-8.614v7.32h7.806s20.638.09 21.22 17.214v11.965h-29.104z" style="fill:#202a53;fill-opacity:1;fill-rule:nonzero;stroke:none;stroke-width:3.70666" transform="matrix(1.33333 0 0 -1.33333 181.09 425.826)"/><path d="M908.877 445.006v8.445h34.314v27.31h10.903v-27.31h34.496v-8.445z" style="fill:#202a53;fill-opacity:1;fill-rule:nonzero;stroke:none;stroke-width:4.94221" transform="translate(181.09 -367.875)"/><path d="M618.145 292.512c-4.448 0-8.073-4.77-8.073-10.649s3.625-10.65 8.073-10.65c4.46 0 8.07 4.771 8.07 10.65 0 5.879-3.61 10.65-8.07 10.65m16.754-10.65c0-9.974-7.502-18.07-16.754-18.07-9.26 0-16.754 8.096-16.754 18.07 0 9.978 7.495 18.066 16.754 18.066 9.252 0 16.754-8.088 16.754-18.066" style="fill:#202a53;fill-opacity:1;fill-rule:nonzero;stroke:none;stroke-width:3.70666" transform="matrix(1.33333 0 0 -1.33333 181.09 425.826)"/><path d="M702.184 429.602v8.209h33.375v5.119h-33.063v8.754h68.5v5.17h-68.658v16.53c0 7.968 7.912 7.38 7.912 7.38h71.568v-8.448H712.86v-7.13h68.96V442.93h-33.676v-5.12h33.675v-8.208zM735.715 395.453v4.281s.672 13.937-19.408 14.194h-13.809l.104 8.254h13.24s16.991.706 26.228-8.758c0 0 8.55 8.559 26.555 8.445h13.037l.12-8.119h-15.223s-1.329.04-3.264-.229c-12.063-2.022-14.852-11.517-14.852-11.517l-.074-.086c-.027-.094-.06-.182-.086-.277l-.144-6.188z" style="fill:#202a53;fill-opacity:1;fill-rule:nonzero;stroke:none;stroke-width:4.94221" transform="translate(181.09 -367.875)"/><path d="M775.787 296.79c-3.425 0-6.202-3.826-6.202-8.545 0-4.722 2.777-8.555 6.202-8.555 3.428 0 6.205 3.833 6.205 8.555 0 4.719-2.777 8.544-6.205 8.544m13.974-8.544c0-7.84-6.26-14.196-13.974-14.196-7.71 0-13.967 6.357-13.967 14.196 0 7.836 6.257 14.186 13.967 14.186 7.713 0 13.974-6.35 13.974-14.186" style="fill:#202a53;fill-opacity:1;fill-rule:nonzero;stroke:none;stroke-width:3.70666" transform="matrix(1.33333 0 0 -1.33333 181.09 425.826)"/><path d="M1010.469 434.004v7.976h18.52v10.237h10.827V441.98h18.928v-7.976z" style="fill:#202a53;fill-opacity:1;fill-rule:nonzero;stroke:none;stroke-width:4.94221" transform="translate(181.09 -367.875)"/><path d="m77.92 203.744 8.86 11.354h-5.412l-8.444-10.716v10.693h-4.31V186.43h4.31v14.312c11.647.593 9.923-14.297 9.923-14.297h4.722v3.214c0 10.404-5.523 13.336-9.648 14.085M102.89 211.885c-5.723 0-8.692-5.004-8.692-11.187 0-6.164 2.62-11.171 8.692-11.171 5.805 0 8.685 5.007 8.685 11.171 0 6.183-2.706 11.187-8.685 11.187m14.075-11.187c0-8.325-4.511-15.07-14.075-15.07-8.955 0-14.074 6.745-14.074 15.07 0 8.333 4.685 15.083 14.074 15.083 9.297 0 14.075-6.75 14.075-15.083M416.501 211.885c-5.723 0-8.692-5.004-8.692-11.187 0-6.164 2.62-11.171 8.692-11.171 5.801 0 8.685 5.007 8.685 11.171 0 6.183-2.706 11.187-8.685 11.187m14.067-11.187c0-8.325-4.511-15.07-14.067-15.07-8.948 0-14.074 6.745-14.074 15.07 0 8.333 4.685 15.083 14.074 15.083 9.3 0 14.067-6.75 14.067-15.083M129.854 196.736c6.813 2.68 6.086 7.985 6.086 7.985 0 7.298-6.901 6.916-6.901 6.916h-4.07v-13.833c1.512.044 4.885-1.068 4.885-1.068m-9.452-10.623v29.179h10.557s10.13-.09 10.13-10.709c0 0 .875-7.157-6.72-10.504 0 0 4.366-2.013 4.188-7.829h-4.889s-1.134 7.358-8.733 7.554v-7.69zM549.869 196.736c6.798 2.68 6.082 7.985 6.082 7.985 0 7.298-6.901 6.916-6.901 6.916h-4.074v-13.833c1.505.044 4.893-1.068 4.893-1.068m-9.47-10.623v29.179h10.57s10.135-.09 10.135-10.709c0 0 .87-7.157-6.728-10.504 0 0 4.363-2.013 4.189-7.829h-4.89s-1.134 7.358-8.729 7.554v-7.69zM644.816 196.736c6.805 2.68 6.075 7.985 6.075 7.985 0 7.298-6.902 6.916-6.902 6.916h-4.066v-13.833c1.512.044 4.893-1.068 4.893-1.068m-9.47-10.623v29.179h10.57s10.127-.09 10.127-10.709c0 0 .871-7.157-6.724-10.504 0 0 4.367-2.013 4.192-7.829h-4.896s-1.134 7.358-8.726 7.554v-7.69zM755.443 196.736c6.81 2.68 6.083 7.985 6.083 7.985 0 7.298-6.902 6.916-6.902 6.916h-4.07v-13.833c1.513.044 4.89-1.068 4.89-1.068m-9.46-10.623v29.179h10.56s10.13-.09 10.13-10.709c0 0 .88-7.157-6.72-10.504 0 0 4.367-2.013 4.193-7.829h-4.897s-1.127 7.358-8.729 7.554v-7.69z" style="fill:#202a53;fill-opacity:1;fill-rule:nonzero;stroke:none;stroke-width:3.70666" transform="matrix(1.33333 0 0 -1.33333 181.09 425.826)"/><path d="M193.123 506.822v38.46h21.31v-5.178h-15.251v-14.19h13.777v-4.877h-13.777v-9.129l15.015-.031v-5.055zM490.244 506.822v38.46h21.31v-5.178H496.31v-14.19h13.771v-4.877H496.31v-9.129l15.01-.031v-5.055zM579.514 505.93v38.377h6.035l.004-18.393h15.71v-4.877h-15.708l.002-10.027 18.158-.024v-5.056zM632.17 506.822v38.46h21.305v-5.178h-15.243v-14.19H652v-4.877h-13.768v-9.129l15.02-.031v-5.055zM694.105 506.822v38.46h21.313v-5.178h-15.252v-14.19h13.781v-4.877h-13.781v-9.129l15.01-.031v-5.055zM878.053 506.822v38.46h21.316v-5.178h-15.246v-14.19h13.768v-4.877h-13.768v-9.129l15.014-.031v-5.055zM935.344 506.822v38.46h21.314v-5.178h-15.26v-14.19h13.774v-4.877h-13.774v-9.129l15.024-.031v-5.055zM233.063 505.217c-7.888 0-14.28 4.79-14.28 10.701v29.451h6.283v-19.455h15.993v19.455h6.287v-29.451c0-5.91-6.39-10.701-14.284-10.701zm0 5.234c4.418 0 7.996 2.744 7.996 6.12v4.466h-15.993v-4.467c0-3.375 3.588-6.119 7.997-6.119zM974.814 505.217c-7.887 0-14.277 4.79-14.277 10.701v29.451h6.281v-19.455h15.989v19.455h6.28v-29.451c0-5.91-6.39-10.701-14.273-10.701zm0 5.234c4.419 0 7.993 2.744 7.993 6.12v4.466h-15.989v-4.467c0-3.375 3.578-6.119 7.996-6.119z" style="fill:#202a53;fill-opacity:1;fill-rule:nonzero;stroke:none;stroke-width:4.94221" transform="translate(181.09 -367.875)"/><path d="M335.874 215.292v-21.588c0-2.543-1.99-4.248-5.297-4.248-3.31 0-5.39 1.705-5.39 4.248v21.588h-4.707v-22.085c0-4.433 4.185-7.691 10.097-7.691s10.008 3.258 10.008 7.691v22.085zM210.597 186.113h-5.152v29.18h5.152z" style="fill:#202a53;fill-opacity:1;fill-rule:nonzero;stroke:none;stroke-width:3.70666" transform="matrix(1.33333 0 0 -1.33333 181.09 425.826)"/><path d="M351.51 506.932v5.238h11.209v33.38h6.875v-33.38h10.476v-5.238z" style="fill:#202a53;fill-opacity:1;fill-rule:nonzero;stroke:none;stroke-width:4.94221" transform="translate(181.09 -367.875)"/><path d="M293.8 186.113h-5.148v29.18h5.148zM233.257 215.292v-20.74l-12.666 20.74h-5.152v-29.18h5.152v20.747l12.666-20.746h5.149v29.179zM511.325 215.292v-20.74l-11.961 20.74h-5.153v-29.18h5.153v20.747l11.961-20.746h5.156v29.179z" style="fill:#202a53;fill-opacity:1;fill-rule:nonzero;stroke:none;stroke-width:3.70666" transform="matrix(1.33333 0 0 -1.33333 181.09 425.826)"/><path d="M394.502 506.932v5.238h11.219v33.38h6.869v-33.38h10.482v-5.238zM457.264 506.932v5.238h11.213v33.38h6.869v-33.38h10.472v-5.238z" style="fill:#202a53;fill-opacity:1;fill-rule:nonzero;stroke:none;stroke-width:4.94221" transform="translate(181.09 -367.875)"/><path d="M261.477 206.503h-4.656v1.786s-.819 3.525-4.896 3.525c0 0-4.01.27-4.01-3.525 0 0-.412-3.302 5-4.989 0 0 9.203-2.602 8.91-7.902v-2.369s.642-5.794-7.858-7.313h-2.676s-8.27-.452-9.256 7.576v3.132h4.712v-1.701s-.467-5.17 5.296-5.17c0 0 4.949-.409 5.242 4.054 0 0 .233 2.495-1.746 3.666 0 0-3.9 2.187-7.447 3.518 0 0-5.415 2.146-5.363 7.461 0 0-.464 7.629 9.667 7.629 0 0 8.15.085 9.08-7.102zM697.896 206.503h-4.655v1.786s-.812 3.525-4.886 3.525c0 0-4.018.27-4.018-3.525 0 0-.408-3.302 5-4.989 0 0 9.204-2.602 8.915-7.902v-2.369s.637-5.794-7.87-7.313h-2.672s-8.266-.452-9.255 7.576v3.132h4.718v-1.701s-.474-5.17 5.29-5.17c0 0 4.952-.409 5.245 4.054 0 0 .23 2.495-1.754 3.666 0 0-3.888 2.187-7.443 3.518 0 0-5.415 2.146-5.352 7.461 0 0-.475 7.629 9.66 7.629 0 0 8.15.085 9.077-7.102zM813.73 215.292V203.47h-11.851v11.82h-5.149v-29.178h5.149v13.433h11.85v-13.433h5.156v29.179zM792.67 196.56c-1.442-4.115-5.008-7.032-9.427-7.032-6.071 0-8.692 5.007-8.692 11.172 0 6.182 3.359 11.486 9.082 11.486 2.954 0 5.37-1.304 7.06-3.369v5.642c-1.886 1.093-4.184 1.73-6.927 1.73-10.423 0-14.6-7.157-14.6-15.49 0-8.325 4.414-15.523 14.077-15.523 4.118 0 7.202 1.212 9.426 3.184zM616.397 215.161h-5.123l-6.75-11.839-6.75 11.84h-5.126l9.522-16.08V186.13h4.767v13.054zM574.809 204.805v-3.762h11.272c0-.115.007-.219.007-.345 0-6.164-1.935-11.172-8.688-11.172-6.698 0-8.689 5.008-8.689 11.172 0 6.183 2.165 11.45 8.689 11.45 3.699 0 5.908-1.516 7.19-3.855v5.59c-2.012 1.542-4.373 2.216-7.19 2.216-9.386 0-14.316-7.25-14.316-15.579s4.826-15.483 14.316-15.483c11.034 0 13.736 7.321 13.736 15.661 0 1.423-.096 2.469-.096 4.107zM39.537 304.818l-111.867-.004s-19.686 2.661-22.121-43.646c0 0 1.282 17.158 13.785 17.529H35.048s13.904-1.246 15.071 40.673c0 0-.64-11.947-10.582-14.553M-92.535 210.788h113.16S38 214.317 24.152 169.37c0 0 1.605 17.166-14.423 15.301H-94.455s-21.172-2.346-5.76 44.773c0 0-.322-18.656 7.68-18.656M-50.86 258.175h62.832l-6.087-25.368h-62.19ZM-118.007 233.321c.448-1.249 1.164-1.334 1.98-1.464v-1.052h-8.752v1.052c1.809.293 2.027.334 2.027 1.298 0 .13-.374 1.512-.408 1.634l-3.376 9.649-.245.081-2.002-10.022c-.059-.33-.059-.757-.059-.875 0-1.513.997-1.68 2.061-1.765v-1.052h-9.037v1.052c1.094.215 1.968.334 2.502 3.025l3.81 18.822c.097.412.345 1.806.345 2.258 0 1.386-.344 1.475-2.28 1.85v1.052h9.686v-1.053c-1.564-.17-2.435-.585-2.94-3.017l-1.867-9.266.152-.041c1.942 2.22 3.847 4.44 5.693 6.787 2.654 3.358 2.654 3.899 2.654 4.359 0 .926-.53 1.008-1.753 1.178v1.053h6.598v-1.053c-1.127-.21-1.531-.252-2.936-2.012l-6.757-8.303zM-106.066 230.806h-9.248v1.052c1.346.253 2.002.623 2.499 3.025l3.847 18.823s.312 1.805.312 2.342c0 1.346-.282 1.39-2.284 1.764v1.05h9.315v-1.05c-1.182-.21-2.031-.374-2.565-3.017l-3.562-17.606c-.215-1.057-.56-2.814-.56-3.53 0-1.422.656-1.715 2.246-1.8zM-85.683 230.806h-17.313v1.052c1.245.29 1.964.42 2.502 3.025l3.84 18.823c.059.333.311 1.716.311 2.342 0 1.346-.345 1.427-2.28 1.764v1.05h16.877l-1.346-7.966-.841.207c0 3.107 0 6.417-5.908 6.417-1.309 0-1.565-.679-1.813-1.839l-1.902-9.36c4.59-.125 5.067 1.057 6.406 4.449l.87-.167-2.309-11.45-.874.215c.089.753.122 1.216.122 1.68 0 3.054-.968 3.932-4.5 3.932l-1.75-8.763c-.151-.874-.467-2.179-.467-2.557 0-.92.275-1.512 2.028-1.512 3.751 0 7.254 1.723 9.408 7.005l.782-.211zM-77.842 257.813c2.005-.378 2.283-.419 2.283-1.768 0-.534-.315-2.339-.315-2.339l-3.836-18.826c-.504-2.398-1.157-2.772-2.502-3.02v-1.054h9.252v1.053c-1.657.126-2.258.419-2.258 1.842 0 .508.197 1.72.442 2.895l1.72 8.092h.904l3.347-13.881h6.316v1.052c-1.505.215-2.068.29-2.75 3.021l-2.591 10.308c4.088.886 5.997 4.404 5.997 7.592 0 6.082-5.504 6.082-7.38 6.082h-8.629zm6.939-2.131c.16.915.382 1.838 1.412 1.838 2.002 0 2.936-1.475 2.936-3.988 0-2.51-.812-5.99-3.129-6.998-.433-.167-1.564-.504-3.095-.504z" style="fill:#202a53;fill-opacity:1;fill-rule:nonzero;stroke:none;stroke-width:3.70666" transform="matrix(1.33333 0 0 -1.33333 181.09 425.826)"/></svg>