<svg xmlns="http://www.w3.org/2000/svg" width="496.19696mm" height="94.382889mm" viewBox="0 0 496.19696 94.382889"><defs><linearGradient id="b" x1="0" x2="1" y1="0" y2="0" gradientTransform="rotate(-48.614 811.027 237.284) scale(35.51239)" gradientUnits="userSpaceOnUse" spreadMethod="pad"><stop offset="0" style="stop-opacity:1;stop-color:#80cc28"/><stop offset="0.51415675" style="stop-opacity:1;stop-color:#80cc28"/><stop offset="0.926518" style="stop-opacity:1;stop-color:#4f7e17"/><stop offset="0.97566233" style="stop-opacity:1;stop-color:#4f7e17"/><stop offset="1" style="stop-opacity:1;stop-color:#4f7e17"/></linearGradient><linearGradient id="c" x1="0" x2="1" y1="0" y2="0" gradientTransform="scale(-20.57128) rotate(43.075 40.343 -24.316)" gradientUnits="userSpaceOnUse" spreadMethod="pad"><stop offset="0" style="stop-opacity:1;stop-color:#80cc28"/><stop offset="0.75034472" style="stop-opacity:1;stop-color:#80cc28"/><stop offset="0.939002" style="stop-opacity:1;stop-color:#4f7e17"/><stop offset="0.9797971" style="stop-opacity:1;stop-color:#4f7e17"/><stop offset="1" style="stop-opacity:1;stop-color:#4f7e17"/></linearGradient><linearGradient id="d" x1="0" x2="1" y1="0" y2="0" gradientTransform="matrix(9.53845 8.2548 8.2548 -9.53845 88.006 691.804)" gradientUnits="userSpaceOnUse" spreadMethod="pad"><stop offset="0" style="stop-opacity:1;stop-color:#2056ae"/><stop offset="0.55058402" style="stop-opacity:1;stop-color:#2056ae"/><stop offset="1" style="stop-opacity:1;stop-color:#102d5d"/></linearGradient><linearGradient id="e" x1="0" x2="1" y1="0" y2="0" gradientTransform="scale(-20.21408 20.21408) rotate(48.896 -40.519 11.686)" gradientUnits="userSpaceOnUse" spreadMethod="pad"><stop offset="0" style="stop-opacity:1;stop-color:#2056ae"/><stop offset="0.55058402" style="stop-opacity:1;stop-color:#2056ae"/><stop offset="1" style="stop-opacity:1;stop-color:#102d5d"/></linearGradient><clipPath id="a" clipPathUnits="userSpaceOnUse"><path d="M0 841.89h595.28V0H0Z"/></clipPath></defs><g style="stroke-width:.201533"><g clip-path="url(#a)" style="stroke-width:.201533" transform="matrix(1.75047 0 0 -1.75047 -89.91 1247.266)"><g style="stroke-width:.201533"><path d="M0 0h1.17l-2.691-2.752 2.946-3.069H.201l-2.581 2.75v-2.16l.003-.292c.004-.11.011-.209.022-.298h-.979a11.817 11.817 0 0 1 .034.893v4.032c0 .136 0 .271-.004.405a8.427 8.427 0 0 1-.03.491h.979a4.081 4.081 0 0 1-.022-.313l-.003-.294v-1.832z" style="fill:#656263;fill-opacity:1;fill-rule:nonzero;stroke:none;stroke-width:.201533" transform="translate(131.808 664.537)"/></g><g style="stroke-width:.201533"><path d="M0 0c0-.242.024-.491.075-.754.051-.262.138-.499.262-.713.118-.214.281-.39.49-.532.207-.139.472-.211.793-.211.303 0 .557.063.763.19.204.127.371.294.501.502.124.209.214.445.271.709A3.823 3.823 0 0 1 3.159.764c-.054.262-.141.5-.266.713A1.52 1.52 0 0 1 2.395 2c-.207.136-.466.204-.775.204-.304 0-.558-.066-.765-.195a1.533 1.533 0 0 1-.493-.498A2.184 2.184 0 0 1 .084.802 3.852 3.852 0 0 1 0 0m-.945 0c.005.396.058.77.16 1.132.101.36.26.68.473.962.207.275.472.495.792.662.32.165.7.248 1.14.248.416 0 .783-.079 1.1-.235a2.36 2.36 0 0 0 .805-.65c.216-.275.377-.595.487-.957A4.02 4.02 0 0 0 4.175 0c0-.381-.05-.752-.151-1.111a2.944 2.944 0 0 0-.464-.964 2.331 2.331 0 0 0-.793-.679c-.321-.172-.704-.256-1.147-.256-.422 0-.792.08-1.111.239a2.328 2.328 0 0 0-.797.654 2.801 2.801 0 0 0-.493.955A4.039 4.039 0 0 0-.945 0" style="fill:#656263;fill-opacity:1;fill-rule:nonzero;stroke:none;stroke-width:.201533" transform="translate(135.755 661.624)"/></g><g style="stroke-width:.201533"><path d="M0 0h.854c.173 0 .334.017.481.055.146.036.273.093.38.171a.849.849 0 0 1 .253.28.812.812 0 0 1 .092.395c0 .255-.091.45-.273.583-.183.135-.466.203-.849.203H0Zm-.927 1.729c0 .248-.009.496-.024.743H.693c.294 0 .577-.019.857-.055.278-.038.527-.112.746-.224.213-.112.385-.271.515-.476.128-.206.193-.477.193-.816 0-.2-.03-.378-.092-.531a1.13 1.13 0 0 0-.253-.387 1.382 1.382 0 0 0-.371-.275 2.305 2.305 0 0 0-.448-.166c.114-.055.215-.125.309-.205.094-.08.172-.191.24-.326.197-.387.378-.779.545-1.175.166-.397.338-.792.518-1.185H2.398c-.147.336-.288.673-.427 1.008-.138.334-.285.671-.442 1.007a1.354 1.354 0 0 1-.191.305.63.63 0 0 1-.205.159.709.709 0 0 1-.245.059 4.035 4.035 0 0 1-.279.008H0v-2.023a8.165 8.165 0 0 1 .018-.523h-.969c.01.135.017.279.021.438l.003.455z" style="fill:#656263;fill-opacity:1;fill-rule:nonzero;stroke:none;stroke-width:.201533" transform="translate(143.801 662.064)"/></g><g style="stroke-width:.201533"><path d="M0 0h2.167c.062 0 .139.002.232.004a2 2 0 0 1 .232.021v-.851c-.286.017-.545.026-.777.026H-.945c.01.129.018.277.021.442l.003.451v4.185c0 .123-.002.248-.009.375-.005.127-.013.25-.024.368H2.15c.056 0 .13 0 .22.004.089.002.165.009.228.021v-.853c-.108.011-.24.017-.398.022-.157.002-.294.004-.412.004H0V2.616h1.948c.057 0 .127 0 .215.005.088.001.162.008.224.021v-.853a12.68 12.68 0 0 1-.759.025H0Z" style="fill:#656263;fill-opacity:1;fill-rule:nonzero;stroke:none;stroke-width:.201533" transform="translate(150.814 659.516)"/></g><g style="stroke-width:.201533"><path d="m0 0-.913 2.674L-1.841 0Zm.268-.777h-2.369l-.507-1.441h-.978l2.109 5.821h1.13l2.109-5.821H.783Z" style="fill:#656263;fill-opacity:1;fill-rule:nonzero;stroke:none;stroke-width:.201533" transform="translate(159.352 660.933)"/></g><g style="stroke-width:.201533"><path d="M0 0c.002-.129.007-.226.013-.294h-.987c.011.135.018.279.02.438.004.157.004.309.004.455v4.033c0 .142 0 .288-.004.443a7.373 7.373 0 0 1-.02.452h.987c0-.035-.001-.08-.004-.135a3.178 3.178 0 0 1-.005-.169 1.845 1.845 0 0 1-.009-.178V.313C-.005.233-.003.129 0 0" style="fill:#656263;fill-opacity:1;fill-rule:nonzero;stroke:none;stroke-width:.201533" transform="translate(168.711 659.01)"/></g><g style="stroke-width:.201533"><path d="m0 0-1.156 2.121c0 .027-.02.083-.062.165a4.49 4.49 0 0 1-.106.191v-3.914l.003-.339c.005-.125.008-.235.013-.337h-.97c.012.135.019.28.022.438.003.157.004.309.004.455v4.033c0 .142-.001.288-.004.443-.003.154-.01.304-.022.452h1.249l2.201-4.1c.03-.064.059-.129.093-.199l.102-.207v3.611a17.104 17.104 0 0 1-.026.895h.971a6.41 6.41 0 0 1-.017-.499v-5.057c0-.081.005-.17.017-.265H1.156C.768-1.406.383-.701 0 0" style="fill:#656263;fill-opacity:1;fill-rule:nonzero;stroke:none;stroke-width:.201533" transform="translate(174.174 660.828)"/></g><g style="stroke-width:.201533"><path d="M0 0a12.098 12.098 0 0 1 .025-.893H-.979c.018.123.026.267.03.43.003.163.005.317.005.463v4.126h-1.258c-.079 0-.168-.002-.271-.004a3.534 3.534 0 0 1-.277-.021v.853a.863.863 0 0 1 .139-.013c.059-.004.119-.004.182-.004.062-.006.121-.009.181-.009h3.665c.062.005.125.009.19.009a.91.91 0 0 1 .189.017v-.853c-.134.01-.273.017-.413.021-.14.002-.273.004-.397.004H0Z" style="fill:#656263;fill-opacity:1;fill-rule:nonzero;stroke:none;stroke-width:.201533" transform="translate(181.902 659.608)"/></g><g style="stroke-width:.201533"><path d="M0 0h2.166c.064 0 .14.002.234.004.093.004.17.011.231.021v-.851c-.286.017-.544.026-.776.026h-2.8c.01.129.018.277.021.442l.003.451v4.185c0 .123-.002.248-.009.375-.005.127-.013.25-.024.368H2.15c.056 0 .13 0 .221.004.088.002.165.009.227.021v-.853c-.108.011-.24.017-.397.022-.158.002-.295.004-.413.004H0V2.616h1.948c.057 0 .129 0 .215.005.088.001.162.008.225.021v-.853c-.283.017-.535.025-.76.025H0Z" style="fill:#656263;fill-opacity:1;fill-rule:nonzero;stroke:none;stroke-width:.201533" transform="translate(187.301 659.516)"/></g><g style="stroke-width:.201533"><path d="M0 0h.852c.173 0 .335.017.482.055.146.036.271.093.379.171a.828.828 0 0 1 .253.28.801.801 0 0 1 .093.395c0 .255-.093.45-.275.583-.181.135-.464.203-.847.203H0Zm-.927 1.729c0 .248-.01.496-.026.743H.692c.293 0 .577-.019.857-.055.278-.038.527-.112.745-.224.214-.112.387-.271.516-.476.128-.206.194-.477.194-.816 0-.2-.031-.378-.093-.531a1.158 1.158 0 0 0-.252-.387 1.392 1.392 0 0 0-.373-.275 2.305 2.305 0 0 0-.448-.166c.114-.055.216-.125.308-.205.095-.08.175-.191.242-.326.196-.387.378-.779.544-1.175.166-.397.339-.792.518-1.185H2.396a45.25 45.25 0 0 0-.426 1.008c-.138.334-.285.671-.444 1.007a1.287 1.287 0 0 1-.19.305.603.603 0 0 1-.45.218 3.998 3.998 0 0 1-.279.008H0v-2.023a8.165 8.165 0 0 1 .017-.523h-.97c.011.135.018.279.022.438.001.157.004.309.004.455z" style="fill:#656263;fill-opacity:1;fill-rule:nonzero;stroke:none;stroke-width:.201533" transform="translate(193.789 662.064)"/></g><g style="stroke-width:.201533"><path d="m0 0-1.155 2.121a.48.48 0 0 1-.064.165 3.067 3.067 0 0 1-.105.191v-3.914c0-.102.002-.214.004-.339.003-.125.008-.235.013-.337h-.971c.012.135.019.28.023.438l.003.455v4.033l-.003.443a8.232 8.232 0 0 1-.023.452h1.249l2.202-4.1c.027-.064.058-.129.093-.199.033-.07.067-.14.101-.207v3.611c0 .142-.003.288-.005.443a8.264 8.264 0 0 1-.02.452h.969a6.977 6.977 0 0 1-.016-.499v-5.057c0-.081.005-.17.016-.265H1.155L0 0" style="fill:#656263;fill-opacity:1;fill-rule:nonzero;stroke:none;stroke-width:.201533" transform="translate(202.14 660.828)"/></g><g style="stroke-width:.201533"><path d="M0 0h2.168c.061 0 .14.002.233.004.093.004.17.011.231.021v-.851c-.286.017-.544.026-.775.026H-.944c.011.129.018.277.021.442.003.165.003.315.003.451v4.185a6.832 6.832 0 0 1-.034.743h3.106c.055 0 .13 0 .219.004.09.002.165.009.229.021v-.853a6.042 6.042 0 0 1-.398.022c-.157.002-.296.004-.413.004H0V2.616h1.95c.056 0 .127 0 .215.005.087.001.162.008.223.021v-.853c-.281.017-.534.025-.759.025H0Z" style="fill:#656263;fill-opacity:1;fill-rule:nonzero;stroke:none;stroke-width:.201533" transform="translate(208.577 659.516)"/></g><g style="stroke-width:.201533"><path d="M0 0c0-.14.001-.277.003-.408.003-.131.011-.295.022-.485H-.979c.017.123.026.267.03.43.002.163.004.317.004.463v4.126h-1.258c-.078 0-.168-.002-.27-.004a3.561 3.561 0 0 1-.278-.021v.853a.888.888 0 0 1 .139-.013c.06-.004.12-.004.182-.004.062-.006.121-.009.181-.009H1.417c.061.005.125.009.19.009a.91.91 0 0 1 .189.017v-.853c-.135.01-.273.017-.413.021-.141.002-.273.004-.396.004H0Z" style="fill:#656263;fill-opacity:1;fill-rule:nonzero;stroke:none;stroke-width:.201533" transform="translate(216.34 659.608)"/></g><g style="stroke-width:.201533"><path d="M0 0c0-.091.015-.178.046-.263.032-.084.073-.162.122-.235.051-.08.108-.154.169-.224l.177-.199c.074.034.159.083.253.144.097.062.187.131.271.212.084.078.154.167.211.269a.67.67 0 0 1 .084.33c0 .248-.065.421-.194.523a.73.73 0 0 1-.464.15.69.69 0 0 1-.473-.176C.067.413 0 .235 0 0m-.642-2.936c0-.305.102-.548.304-.735.202-.184.481-.277.837-.277.235 0 .442.05.62.154.177.106.314.223.407.352L.195-1.839a14.188 14.188 0 0 1-.313-.206 1.41 1.41 0 0 1-.261-.233 1.12 1.12 0 0 1-.189-.296.855.855 0 0 1-.074-.362M3.24-1.351c-.034-.465-.117-.863-.254-1.19a5.291 5.291 0 0 0-.422-.834 39.935 39.935 0 0 1 1.005-1.164H2.464a8.37 8.37 0 0 0-.219.261c-.074.091-.146.177-.22.262a2.367 2.367 0 0 0-.729-.459 2.435 2.435 0 0 0-.924-.165c-.299 0-.567.04-.806.119-.239.078-.44.19-.604.336a1.453 1.453 0 0 0-.384.523 1.693 1.693 0 0 0-.131.675c0 .404.122.743.363 1.016.243.273.555.495.937.671a4.73 4.73 0 0 0-.421.599A1.337 1.337 0 0 0-.861 0c0 .231.042.432.123.607.082.174.193.32.334.439.14.112.306.197.497.258.192.057.396.087.617.087.195 0 .383-.028.564-.083a1.46 1.46 0 0 0 .472-.246c.135-.111.243-.251.322-.416.078-.167.117-.362.117-.587 0-.18-.037-.347-.109-.501a1.595 1.595 0 0 0-.286-.419 2.142 2.142 0 0 0-.401-.341c-.15-.1-.298-.182-.444-.25L2.016-2.75c.097.174.168.377.216.605.048.233.083.496.105.794z" style="fill:#656263;fill-opacity:1;fill-rule:nonzero;stroke:none;stroke-width:.201533" transform="translate(226.749 663.254)"/></g><g style="stroke-width:.201533"><path d="M0 0c-.254.091-.47.157-.649.203a2.402 2.402 0 0 1-.965.034 1.255 1.255 0 0 1-.361-.118.797.797 0 0 1-.273-.222.553.553 0 0 1-.106-.344.52.52 0 0 1 .101-.309c.068-.091.157-.178.27-.256a2.19 2.19 0 0 1 .396-.224 11.153 11.153 0 0 0 1.026-.506c.177-.097.334-.214.476-.349A1.74 1.74 0 0 0 .25-2.56c.085-.177.129-.385.129-.62 0-.321-.064-.592-.194-.815-.13-.222-.3-.402-.513-.544a2.384 2.384 0 0 0-.757-.307 3.98 3.98 0 0 0-.89-.097c-.213 0-.435.028-.666.085-.23.055-.458.12-.683.194l.118.851a5.893 5.893 0 0 1 .633-.211c.124-.034.245-.061.367-.083.121-.023.234-.036.342-.036.135 0 .277.017.43.047.151.032.293.084.422.157a.951.951 0 0 1 .324.274.693.693 0 0 1 .131.435.61.61 0 0 1-.109.357 1.229 1.229 0 0 1-.279.284 2.326 2.326 0 0 1-.385.227c-.144.067-.284.135-.424.203-.18.084-.364.176-.55.275a2.3 2.3 0 0 0-.496.349 1.713 1.713 0 0 0-.36.443 1.139 1.139 0 0 0-.138.569c0 .258.053.489.16.688.107.199.253.366.438.502.181.135.393.237.642.305.247.065.512.099.793.099.203 0 .43-.017.682-.05.255-.032.496-.089.727-.168z" style="fill:#656263;fill-opacity:1;fill-rule:nonzero;stroke:none;stroke-width:.201533" transform="translate(240.602 663.557)"/></g><g style="stroke-width:.201533"><path d="M0 0h2.167c.063 0 .139.002.233.004.093.004.17.011.232.021v-.851c-.288.017-.546.026-.777.026h-2.8c.011.129.019.277.021.442.003.165.004.315.004.451v4.185a6.853 6.853 0 0 1-.034.743h3.105c.056 0 .13 0 .219.004.09.002.165.009.228.021v-.853a5.927 5.927 0 0 1-.397.022c-.157.002-.295.004-.413.004H0V2.616h1.95c.055 0 .128 0 .213.005.089.001.162.008.225.021v-.853c-.282.017-.536.025-.759.025H0Z" style="fill:#656263;fill-opacity:1;fill-rule:nonzero;stroke:none;stroke-width:.201533" transform="translate(244.735 659.516)"/></g><g style="stroke-width:.201533"><path d="M0 0a2.893 2.893 0 0 1-.624.294A2.106 2.106 0 0 1-2.071.218a1.917 1.917 0 0 1-.654-.464 2.026 2.026 0 0 1-.413-.696 2.52 2.52 0 0 1-.144-.864c0-.305.045-.591.136-.862.089-.269.22-.503.395-.7.175-.201.39-.362.646-.481.256-.118.552-.177.89-.177.202 0 .424.029.662.088.24.06.46.155.663.284l.042-.927a2.579 2.579 0 0 0-.743-.204 5.75 5.75 0 0 0-.665-.042c-.435 0-.833.072-1.199.214a2.651 2.651 0 0 0-.936.614c-.265.258-.47.571-.616.944-.146.37-.22.787-.22 1.249 0 .438.068.841.202 1.209A2.62 2.62 0 0 0-2.5.969a3.34 3.34 0 0 0 1.244.218c.235 0 .456-.017.661-.05.205-.032.429-.106.671-.219z" style="fill:#656263;fill-opacity:1;fill-rule:nonzero;stroke:none;stroke-width:.201533" transform="translate(254.227 663.44)"/></g><g style="stroke-width:.201533"><path d="M0 0a1.49 1.49 0 0 1 .224-.578.95.95 0 0 1 .408-.36c.172-.081.391-.123.654-.123.254 0 .466.04.636.119.173.078.311.194.418.347.103.15.174.343.221.574.044.228.066.497.066.8v2.379c0 .146-.001.297-.004.451a8.257 8.257 0 0 1-.02.453h.968a8.258 8.258 0 0 1-.015-.504V.652c0-.839-.192-1.465-.579-1.884-.384-.419-.948-.629-1.691-.629-.747 0-1.313.21-1.7.629C-.799-.813-.992-.187-.992.652v2.506l-.003.451c-.003.155-.01.305-.021.453h.97a14.68 14.68 0 0 1-.018-.692V.779C-.064.487-.042.226 0 0" style="fill:#656263;fill-opacity:1;fill-rule:nonzero;stroke:none;stroke-width:.201533" transform="translate(258.18 660.475)"/></g><g style="stroke-width:.201533"><path d="M0 0h.853c.173 0 .334.017.481.055.146.036.271.093.378.171a.82.82 0 0 1 .254.28.801.801 0 0 1 .094.395c0 .255-.094.45-.276.583-.182.135-.464.203-.847.203H0Zm-.929 1.729c0 .248-.007.496-.025.743H.693c.292 0 .577-.019.855-.055a2.32 2.32 0 0 0 .748-.224c.212-.112.385-.271.514-.476.128-.206.195-.477.195-.816 0-.2-.033-.378-.094-.531a1.145 1.145 0 0 0-.253-.387 1.372 1.372 0 0 0-.372-.275 2.295 2.295 0 0 0-.447-.166c.113-.055.215-.125.309-.205.093-.08.173-.191.241-.326.196-.387.377-.779.543-1.175.165-.397.339-.792.518-1.185H2.397c-.147.336-.29.673-.426 1.008-.138.334-.286.671-.444 1.007a1.431 1.431 0 0 1-.189.305.636.636 0 0 1-.207.159.703.703 0 0 1-.245.059 3.986 3.986 0 0 1-.278.008H0v-2.023a8.163 8.163 0 0 1 .017-.523h-.971c.012.135.019.279.021.438.004.157.004.309.004.455z" style="fill:#656263;fill-opacity:1;fill-rule:nonzero;stroke:none;stroke-width:.201533" transform="translate(265.886 662.064)"/></g><g style="stroke-width:.201533"><path d="M0 0c.003-.129.007-.226.013-.294h-.987c.012.135.019.279.021.438.004.157.005.309.005.455v4.033c0 .142-.001.288-.005.443a6.648 6.648 0 0 1-.021.452h.987c0-.035 0-.08-.003-.135a1.91 1.91 0 0 1-.007-.169 2.204 2.204 0 0 1-.007-.178V.313C-.004.233-.002.129 0 0" style="fill:#656263;fill-opacity:1;fill-rule:nonzero;stroke:none;stroke-width:.201533" transform="translate(272.925 659.01)"/></g><g style="stroke-width:.201533"><path d="M0 0c0-.14 0-.277.004-.408.001-.131.009-.295.02-.485H-.979c.018.123.026.267.029.43.004.163.005.317.005.463v4.126h-1.257c-.08 0-.169-.002-.271-.004a3.638 3.638 0 0 1-.278-.021v.853a.89.89 0 0 1 .14-.013c.059-.004.119-.004.181-.004.062-.006.122-.009.182-.009h3.665c.062.005.125.009.189.009a.92.92 0 0 1 .19.017v-.853c-.134.01-.273.017-.414.021-.139.002-.272.004-.396.004H0Z" style="fill:#656263;fill-opacity:1;fill-rule:nonzero;stroke:none;stroke-width:.201533" transform="translate(278.338 659.608)"/></g><g style="stroke-width:.201533"><path d="m0 0-2.15 3.385h1.071L.48.845l1.537 2.54h1.071L.944.011v-1.555c0-.139.002-.277.005-.408.002-.131.01-.294.023-.485H-.034c.018.191.027.354.03.485.003.131.004.269.004.408Z" style="fill:#656263;fill-opacity:1;fill-rule:nonzero;stroke:none;stroke-width:.201533" transform="translate(284.335 661.152)"/></g><g style="stroke-width:.201533"><path d="m0 0-.911 2.674L-1.84 0Zm.269-.777h-2.371l-.505-1.441h-.979l2.109 5.821h1.13l2.111-5.821H.783Z" style="fill:#656263;fill-opacity:1;fill-rule:nonzero;stroke:none;stroke-width:.201533" transform="translate(297.345 660.933)"/></g><g style="stroke-width:.201533"><path d="M0 0a2.667 2.667 0 0 1-.77.358 3.112 3.112 0 0 1-.851.114c-.32 0-.611-.053-.873-.157a1.986 1.986 0 0 1-.678-.442 2.038 2.038 0 0 1-.445-.701 2.459 2.459 0 0 1-.155-.893c0-.316.051-.61.151-.883a1.97 1.97 0 0 1 .441-.705c.184-.196.412-.351.686-.463.273-.112.578-.169.916-.169.129 0 .268.003.418.014.148.009.285.034.41.078v1.815h-.701c-.078 0-.17 0-.27-.005a2.189 2.189 0 0 1-.281-.021v.836c.098-.012.197-.019.301-.021.103-.004.199-.004.283-.004H.193C.187-1.357.184-1.471.18-1.596c-.002-.123-.004-.239-.004-.345v-2.532a5.397 5.397 0 0 0-.725-.18 5.964 5.964 0 0 0-1.115-.089c-.436 0-.844.07-1.217.212a2.756 2.756 0 0 0-.969.605c-.267.261-.48.574-.634.946-.157.371-.233.79-.233 1.258 0 .443.07.849.215 1.217.143.369.35.686.621.951.264.258.584.461.961.607.379.146.797.219 1.256.219.299 0 .584-.022.854-.066.269-.047.566-.125.884-.237Z" style="fill:#656263;fill-opacity:1;fill-rule:nonzero;stroke:none;stroke-width:.201533" transform="translate(305.563 663.355)"/></g><g style="stroke-width:.201533"><path d="M0 0h2.168c.064 0 .141.002.234.004.092.004.17.011.231.021v-.851c-.287.017-.543.026-.776.026h-2.8c.011.129.019.277.021.442.004.165.004.315.004.451v4.185a7.931 7.931 0 0 1-.033.743h3.103c.057 0 .131 0 .221.004.088.002.164.009.227.021v-.853a5.967 5.967 0 0 1-.397.022c-.156.002-.293.004-.414.004H0V2.616h1.951a3.596 3.596 0 0 1 .438.026v-.853c-.282.017-.536.025-.758.025H0Z" style="fill:#656263;fill-opacity:1;fill-rule:nonzero;stroke:none;stroke-width:.201533" transform="translate(309.871 659.516)"/></g><g style="stroke-width:.201533"><path d="m0 0-1.154 2.121a.47.47 0 0 1-.063.165 4.68 4.68 0 0 1-.105.191v-3.914c0-.102.002-.214.004-.339.002-.125.006-.235.011-.337h-.968c.009.135.017.28.021.438.002.157.002.309.002.455v4.033c0 .142 0 .288-.002.443-.004.154-.012.304-.021.452h1.248l2.201-4.1c.029-.064.058-.129.094-.199l.099-.207v3.611c0 .142 0 .288-.004.443a13 13 0 0 1-.019.452h.969a7.542 7.542 0 0 1-.018-.499v-5.057c0-.081.008-.17.018-.265H1.156C.77-1.406.385-.701 0 0" style="fill:#656263;fill-opacity:1;fill-rule:nonzero;stroke:none;stroke-width:.201533" transform="translate(317.684 660.828)"/></g><g style="stroke-width:.201533"><path d="M0 0a2.944 2.944 0 0 1-.625.294A2.104 2.104 0 0 1-2.07.218a1.911 1.911 0 0 1-.655-.464 2.06 2.06 0 0 1-.414-.696 2.567 2.567 0 0 1-.142-.864c0-.305.043-.591.135-.862a1.96 1.96 0 0 1 1.041-1.181 2.1 2.1 0 0 1 .89-.177c.203 0 .424.029.662.088.239.06.461.155.664.284l.041-.927a2.585 2.585 0 0 0-.744-.204 5.72 5.72 0 0 0-.664-.042c-.433 0-.834.072-1.199.214a2.668 2.668 0 0 0-.938.614 2.674 2.674 0 0 0-.615.944c-.144.37-.219.787-.219 1.249 0 .438.067.841.202 1.209.136.368.332.686.591.95.254.265.565.47.932.616.369.146.783.218 1.246.218.235 0 .457-.017.662-.05a2.53 2.53 0 0 0 .67-.219z" style="fill:#656263;fill-opacity:1;fill-rule:nonzero;stroke:none;stroke-width:.201533" transform="translate(327.143 663.44)"/></g><g style="stroke-width:.201533"><path d="m0 0-2.152 3.385h1.072L.479.845l1.537 2.54h1.07L.943.011v-1.555c0-.139.002-.277.006-.408.002-.131.008-.294.02-.485H-.035A8.534 8.534 0 0 1 0-1.544Z" style="fill:#656263;fill-opacity:1;fill-rule:nonzero;stroke:none;stroke-width:.201533" transform="translate(331.656 661.152)"/></g><g style="stroke-width:.201533"><path d="M0 0c2.328 0 4.209-1.486 4.209-3.319S2.328-6.636 0-6.636c-2.324 0-4.207 1.484-4.207 3.317C-4.207-1.486-2.324 0 0 0m0-9c4.625 0 8.369 2.543 8.369 5.681S4.625 2.363 0 2.363c-4.621 0-8.367-2.544-8.367-5.682C-8.367-6.457-4.621-9 0-9" style="fill:#173a79;fill-opacity:1;fill-rule:nonzero;stroke:none;stroke-width:.201533" transform="translate(320.547 696.045)"/></g><g style="stroke-width:.201533"><path d="M0 0c1.599-2.4 5.118-4.958 8.126-6.011l1.405 2.814C5.918-1.44 1.983 1.918 1.983 6.237v1.375h6.236v2.749H-8.344V7.612h6.394V6.203c0-4.668-3.966-7.354-7.61-9.37l1.47-2.877C-5.596-5.052-1.725-2.526 0 0" style="fill:#173a79;fill-opacity:1;fill-rule:nonzero;stroke:none;stroke-width:.201533" transform="translate(267.465 687.167)"/></g><g style="stroke-width:.201533"><path d="M0 0c0 3.613 14.65 3.613 14.65 0C14.65-3.582 0-3.646 0 0m-4.251-.033c0-7.225 23.151-7.225 23.151 0 0 7.42-23.151 7.389-23.151 0" style="fill:#173a79;fill-opacity:1;fill-rule:nonzero;stroke:none;stroke-width:.201533" transform="translate(290.024 674.79)"/></g><g style="stroke-width:.201533"><path d="M0 0c0 3.212 1.704 5.818 3.805 5.818 2.102 0 3.804-2.606 3.804-5.818 0-3.213-1.702-5.818-3.804-5.818C1.704-5.818 0-3.213 0 0m11.62 0c0 4.502-3.498 8.149-7.815 8.149-4.316 0-7.817-3.647-7.817-8.149 0-4.502 3.501-8.151 7.817-8.151 4.317 0 7.815 3.649 7.815 8.151" style="fill:#173a79;fill-opacity:1;fill-rule:nonzero;stroke:none;stroke-width:.201533" transform="translate(182.4 690)"/></g><g style="stroke-width:.201533"><path d="M0 0c4.19 0 7.586-.941 7.586-2.102 0-1.16-3.396-2.102-7.586-2.102-4.187 0-7.585.942-7.585 2.102C-7.585-.941-4.187 0 0 0m-11.687-2.102c0-2.743 5.233-4.963 11.687-4.963 6.457 0 11.688 2.22 11.688 4.963 0 1.471-1.508 2.791-3.899 3.7h3.727v2.687H2.11v1.823h-4.22V4.285h-9.404V1.598h3.727c-2.394-.909-3.9-2.229-3.9-3.7" style="fill:#173a79;fill-opacity:1;fill-rule:nonzero;stroke:none;stroke-width:.201533" transform="translate(297.347 692.635)"/></g><g style="stroke-width:.201533"><path d="M0 0c2.101 0 3.807-2.416 3.807-5.394 0-2.981-1.706-5.396-3.807-5.396-2.103 0-3.803 2.415-3.803 5.396C-3.803-2.416-2.103 0 0 0m0-13.21a7.817 7.817 0 0 1 7.817 7.816A7.773 7.773 0 0 1 5.936-.322H7.69v2.75H2.124v1.857h-4.251V2.428h-5.534v-2.75h1.724a7.79 7.79 0 0 1-1.876-5.072A7.815 7.815 0 0 1 0-13.21" style="fill:#173a79;fill-opacity:1;fill-rule:nonzero;stroke:none;stroke-width:.201533" transform="translate(133.274 694.491)"/></g><g style="stroke-width:.201533"><path d="M0 0h-4.126c-.256-4.509-6.619-7.386-10.556-8.411l1.408-2.908c3.709.927 8.38 2.877 11.036 5.595 0 0 .081.106.178.106.098 0 .172-.106.172-.106 2.369-2.75 7.517-4.7 11.034-5.595l1.407 2.908C6.621-7.386.255-4.509 0 0" style="fill:#173a79;fill-opacity:1;fill-rule:nonzero;stroke:none;stroke-width:.201533" transform="translate(246.713 680.962)"/></g><g style="stroke-width:.201533"><path d="M0 0h-2.814v-14.494c0-.63.512-1.142 1.144-1.142h2.758v14.553A1.137 1.137 0 0 1 0 0" style="fill:#173a79;fill-opacity:1;fill-rule:nonzero;stroke:none;stroke-width:.201533" transform="translate(254.451 698.134)"/></g><g style="stroke-width:.201533"><path d="m0 0-.002.003h-1.96v1.719h-3.902v-15.664l.001.002c0-.627.505-1.133 1.127-1.141h2.774v11.963h3.1v2.012A1.14 1.14 0 0 1 0 0" style="fill:#173a79;fill-opacity:1;fill-rule:nonzero;stroke:none;stroke-width:.201533" transform="translate(150.25 696.398)"/></g><g style="stroke-width:.201533"><path d="M0 0a1.143 1.143 0 0 0-1.136 1.122v3.359a1.14 1.14 0 0 1-1.072 1.107H-5.07V1.013c0-2.366 1.953-4.315 4.351-4.315h16.853V0Z" style="fill:#173a79;fill-opacity:1;fill-rule:nonzero;stroke:none;stroke-width:.201533" transform="translate(132.473 673.553)"/></g><g style="stroke-width:.201533"><path d="M0 0a1.141 1.141 0 0 0-1.135 1.142l-.004-.001v3.344a1.14 1.14 0 0 1-1.07 1.103h-2.865V1.013c0-2.366 1.95-4.315 4.349-4.315H16.13V0Z" style="fill:#173a79;fill-opacity:1;fill-rule:nonzero;stroke:none;stroke-width:.201533" transform="translate(186.016 673.553)"/></g><g style="stroke-width:.201533"><path d="M0 0a1.141 1.141 0 0 0-1.137 1.142l-.002-.001V4.45h-.001a1.14 1.14 0 0 1-1.075 1.138h-2.859V1.013c0-2.366 1.95-4.315 4.351-4.315h16.854V0Z" style="fill:#173a79;fill-opacity:1;fill-rule:nonzero;stroke:none;stroke-width:.201533" transform="translate(266.015 673.553)"/></g><g style="stroke-width:.201533"><path d="M0 0a1.14 1.14 0 0 0-1.135 1.142l-.002-.001v3.311l-.004-.002a1.14 1.14 0 0 1-1.074 1.138h-2.853V1.013c0-2.366 1.949-4.315 4.345-4.315h17.479V0Z" style="fill:#173a79;fill-opacity:1;fill-rule:nonzero;stroke:none;stroke-width:.201533" transform="translate(318.072 673.553)"/></g><g style="stroke-width:.201533"><path d="M0 0c0 .632-.512 1.144-1.145 1.144l-.001.002h-23.99V-.627a1.138 1.138 0 0 1 1.137-1.119H0V.003z" style="fill:#173a79;fill-opacity:1;fill-rule:nonzero;stroke:none;stroke-width:.201533" transform="translate(309.916 683.064)"/></g><g style="stroke-width:.201533"><path d="M0 0v1.632A1.143 1.143 0 0 1-1.14 2.75h-1.608c.929 2.302.896 4.732.896 7.164v2.601l-.002-.003c0 .552-.394 1.012-.913 1.119l-.008.001a1.095 1.095 0 0 1-.223.022v.001h-19.661v-2.749h16.904V6.812c0-1.6-.03-2.335-.83-4.062h-17.64V1.138l.003.001A1.14 1.14 0 0 1-23.113 0h8.977v-3.679h-9.242v-1.635c.026-.59.496-1.06 1.087-1.085h15.926l.004-.003c.629 0 1.142-.512 1.142-1.142l.007.002v-6.114h3.933v8.832c0 .631-.512 1.143-1.142 1.143l-.002.002h-7.811V0Z" style="fill:#173a79;fill-opacity:1;fill-rule:nonzero;stroke:none;stroke-width:.201533" transform="translate(176.45 683.872)"/></g><g style="stroke-width:.201533"><path d="M0 0h-2.809v-15.713a1.142 1.142 0 0 1 1.141-1.138l.002-.006h2.759v15.739A1.14 1.14 0 0 1 0 0" style="fill:#173a79;fill-opacity:1;fill-rule:nonzero;stroke:none;stroke-width:.201533" transform="translate(281.053 698.134)"/></g><g style="stroke-width:.201533"><path d="M0 0h-2.814v-15.711l.001.001c0-.632.51-1.144 1.14-1.144l.003-.003h2.757v15.768A1.133 1.133 0 0 1 0 0" style="fill:#173a79;fill-opacity:1;fill-rule:nonzero;stroke:none;stroke-width:.201533" transform="translate(200.737 698.134)"/></g><g style="stroke-width:.201533"><path d="M0 0c0-.63.512-1.142 1.143-1.142h2.759V13.36l-.008-.004a1.14 1.14 0 0 1-1.093 1.138H0v-1.701h-3.858v-2.01l.002.002c0-.631.511-1.144 1.142-1.144l.002-.005H0Z" style="fill:#173a79;fill-opacity:1;fill-rule:nonzero;stroke:none;stroke-width:.201533" transform="translate(245.435 683.64)"/></g><g style="stroke-width:.201533"><path d="M0 0h-4.287v-2.018c0-.63.512-1.143 1.142-1.143H.072v-1.441h3.795v20.206a1.138 1.138 0 0 1-1.127 1.108H0Z" style="fill:#173a79;fill-opacity:1;fill-rule:nonzero;stroke:none;stroke-width:.201533" transform="translate(330.639 680.99)"/></g><g style="stroke-width:.201533"><path d="M0 0a1.138 1.138 0 0 1-1.108 1.105v.003h-11.601v.001c-.615 0-1.113.486-1.137 1.094v7.828h12.055v1.645a1.142 1.142 0 0 1-1.111 1.106h-9.805l-.002.005c-.615 0-1.113.487-1.137 1.095v5.968h12.119v1.604c0 .63-.513 1.142-1.142 1.142l-.002.003h-14.912V2.706c-.03-2.365 1.919-4.315 4.318-4.315H.002V0Z" style="fill:#173a79;fill-opacity:1;fill-rule:nonzero;stroke:none;stroke-width:.201533" transform="translate(222.849 674.929)"/></g><g style="stroke-width:.201533"><path d="M0 0h-6.924l-.003.006c-.63 0-1.143.513-1.143 1.144l-.007-.004V12.28h-3.899l.033-11.577A3.46 3.46 0 0 1-8.49-2.75h9.593v1.681A1.136 1.136 0 0 1 0 0" style="fill:#173a79;fill-opacity:1;fill-rule:nonzero;stroke:none;stroke-width:.201533" transform="translate(243.722 685.854)"/></g><g style="stroke-width:.201533"><path d="M0 0a1.143 1.143 0 0 1-1.086 1.103h-17.582v-1.62a1.142 1.142 0 0 1 1.141-1.128h6.244v-6.141h3.9v6.141H.002V0Z" style="fill:#173a79;fill-opacity:1;fill-rule:nonzero;stroke:none;stroke-width:.201533" transform="translate(330.023 684.463)"/></g><g style="stroke-width:.201533"><path d="M0 0h-2.837v-4.369H-6.74v-1.666a1.14 1.14 0 0 1 1.136-1.084h2.767V-26.768a1.138 1.138 0 0 1 1.138-1.114v-.002h2.794v26.756A1.14 1.14 0 0 1 0 0" style="fill:#173a79;fill-opacity:1;fill-rule:nonzero;stroke:none;stroke-width:.201533" transform="translate(227.408 698.134)"/></g><g style="stroke-width:.201533"><path d="m0 0 5.158 6.632h3.763L3.3 0l5.354-6.808H4.879Zm-.096-6.808h-2.883v13.44h2.883z" style="fill:#173a79;fill-opacity:1;fill-rule:nonzero;stroke:none;stroke-width:.201533" transform="translate(54.342 677.032)"/></g><path d="M64.667 683.664h2.885v-13.44h-2.885z" style="fill:#173a79;fill-opacity:1;fill-rule:nonzero;stroke:none;stroke-width:.201533"/><g style="stroke-width:.201533"><path d="M0 0v2.38h6.144c.991 0 1.652.102 1.98.301.478.286.714.711.714 1.286 0 .659-.277 1.139-.831 1.445-.319.17-.824.258-1.514.258H3.997c-1.521 0-2.615.277-3.289.824A3.568 3.568 0 0 0-.27 7.806a4.014 4.014 0 0 0-.354 1.683c0 .942.276 1.799.826 2.578.538.753 1.4 1.191 2.585 1.316.403.039.997.057 1.788.057h6.676v-2.379H5.227c-.897-.007-1.489-.048-1.785-.12-.601-.147-.902-.606-.902-1.365 0-.642.254-1.078.756-1.298.341-.152.9-.226 1.685-.226h2.16c1.104 0 1.927-.096 2.469-.286.953-.322 1.605-.89 1.959-1.698.292-.65.434-1.349.434-2.091 0-.817-.188-1.55-.562-2.2C10.918.853 10.126.304 9.069.126 8.561.041 7.787 0 6.766 0Z" style="fill:#173a79;fill-opacity:1;fill-rule:nonzero;stroke:none;stroke-width:.201533" transform="translate(70.243 670.224)"/></g><g style="stroke-width:.201533"><path d="M0 0h-3.3l-5.568-13.44h3.359l3.864 10.219L2.204-13.44h3.364z" style="fill:#173a79;fill-opacity:1;fill-rule:nonzero;stroke:none;stroke-width:.201533" transform="translate(91.552 683.664)"/></g></g><g style="stroke-width:.201533"><path d="m98.268 692.442-2.953-2.554a4.208 4.208 0 0 1-.423-5.918l8.532-9.938c1.509-1.743 4.626-3.307 6.927-3.474l4.942-.354c2.302-.168 2.952 1.125 1.444 2.87l-8.534 9.932c-.051.058-.091.119-.137.178l-7.531 8.846c-.327.389-.798.674-1.347.674-.288 0-.598-.079-.92-.262" style="fill:url(#b);stroke:none;stroke-width:.201533" transform="matrix(1.75047 0 0 -1.75047 -89.91 1247.266)"/></g><g style="stroke-width:.201533"><path d="m105.759 698.925-7.491-6.483c.936.532 1.768.181 2.267-.412l7.531-8.846c-1.353 1.743-1.125 4.282.565 5.744l10.439 9.035c1.746 1.511 1.291 2.883-1.011 3.048l-4.942.356a6.735 6.735 0 0 1-.477.017c-2.263 0-5.252-1.05-6.881-2.459" style="fill:url(#c);stroke:none;stroke-width:.201533" transform="matrix(1.75047 0 0 -1.75047 -89.91 1247.266)"/></g><g style="stroke-width:.201533"><path d="m93.825 703.131-.025.029zm-.321-4.133-7.344-6.357c-1.231-1.06-.908-2.028.712-2.144l3.477-.25c1.617-.115 3.946.658 5.174 1.721l5.75 5.028c-.582-.502-1.912-.334-2.312.136l-5.136 5.999a2.96 2.96 0 0 0-.321-4.133" style="fill:url(#d);stroke:none;stroke-width:.201533" transform="matrix(1.75047 0 0 -1.75047 -89.91 1247.266)"/></g><g style="stroke-width:.201533"><path d="m87.448 710.505 6.352-7.345 5.091-5.963c.617-.718 1.8-.703 2.382-.201l1.589 1.327a2.955 2.955 0 0 1 .301 4.163l-6.353 7.342c-1.063 1.228-3.256 2.328-4.875 2.444l-3.475.25a3.71 3.71 0 0 1-.273.01c-1.394 0-1.74-.872-.739-2.027" style="fill:url(#e);stroke:none;stroke-width:.201533" transform="matrix(1.75047 0 0 -1.75047 -89.91 1247.266)"/></g></g></svg>