<svg xmlns="http://www.w3.org/2000/svg" xml:space="preserve" width="1293.8082" height="299.99963" viewBox="0 0 1293.8082 299.99963"><path d="M536.908 498.662v-25.596h-15.145c.345 2.968.53 6.073.524 9.338v16.156H473.49v-11.768h30.902v-9.057c0-33.074-32.754-47.374-33.448-47.602.427-1.06 4.382-11.37 4.713-12.191.83.218 33.575 9.727 43.681 43.35h17.57V408.06h17.88v90.603zM614.754 420.92c8.605 0 18.405 2.58 18.405 2.58V408.06h15.5v53.127h5.899v-53.127h15.5v90.603h-15.5v-25.698h-5.899v25.698h-15.5v-63.306s-5.65-2.692-11.904-2.692h-16.554v23.114h20.174v42.714h-38.079v-11.797h21.384v-19.14h-21.384V420.92zM403.365 447.967c10.563 0 18.512 3.08 18.512 3.08v-4.067h18.012v51.684h-18.012v-5.437h-8.527V482.46h8.527v-3.207h-8.527v-10.796h8.527l.025-5.229s-8.615-3.493-25.543-3.493h-21.506v8.663h32.832v30.271h-50.712v-11.783h32.807v-7.507h-32.807v-31.441s35.814.029 46.392.029M439.901 441.215h-79.355v-11.773h61.995v-22.293h17.36zM290.586 467.45h13.065v-31.631h17.89v62.844h-17.89v-19.426h-13.065zM261.618 419.881v16.958h-17.643v-28.73h78.306v11.772z" style="fill:#7d7d7d;fill-opacity:1;fill-rule:nonzero;stroke:none;stroke-width:4.85887" transform="matrix(1.33333 0 0 -1.33333 242.089 774.27)"/><path d="M266.32 459.583c10.238-11.4 25.529-15.442 25.529-15.442l6.418 10.345c-24.24 7.755-23.449 26.665-23.449 32.093v.223h20.354v11.773h-57.738v-11.773h20.383v-.223c0-5.428.816-24.338-23.43-32.093l6.405-10.345s15.276 4.043 25.528 15.442M752.406 442.596h-17.89v-22.672h-36.393v-11.783h90.666v11.783h-36.383zM752.596 498.862v-8.464c0-6.691 2.25-23.347 34.945-33.92l-7.725-11.87s-20.111 4.169-36.345 20.422h-.01c-16.238-16.253-36.359-20.422-36.359-20.422l-7.71 11.87c32.7 10.573 34.915 27.229 34.915 33.92v8.464z" style="fill:#7d7d7d;fill-opacity:1;fill-rule:nonzero;stroke:none;stroke-width:4.85887" transform="matrix(1.33333 0 0 -1.33333 242.089 774.27)"/><path d="M2.541 456.64c-1.554 0-2.42 1.196-1.924 2.659l5.316 15.46c.5 1.468 2.186 2.673 3.732 2.673l9.557.005c8.566 0 13.853-1.424 11.277-8.965-3.391-9.878-9.231-11.826-20.412-11.826zm2.012-18.448c45.474 0 60.206 16.768 64.803 30.149 7.08 20.67-11.078 28.196-46.378 28.196h-42.452c-1.56 0-3.24-1.205-3.751-2.668l-28.342-81.736c-.505-1.467.345-2.662 1.905-2.662h30.066c1.555 0 3.232 1.195 3.747 2.653l8.303 23.395c.51 1.463 2.192 2.658 3.742 2.658z" style="fill:#004999;fill-opacity:1;fill-rule:nonzero;stroke:none;stroke-width:4.85887" transform="matrix(1.33333 0 0 -1.33333 242.089 774.27)"/><path d="M187.302 554.992c-21.068 17.002-94.073 2.381-153.317-26.796 65.91 25.757 120.476 33.123 138.61 19.178 16.378-12.604-.54-38.915-44.095-70.566-.991-.5-2.119-.145-2.707.987l-8.45 16.2c-.718 1.36-2.57 2.492-4.124 2.492H78.026c-1.555 0-2.27-1.137-1.57-2.522l18.041-36.728c.656-1.322.19-2.983-1.02-3.805-14.567-8.775-30.766-17.662-48.686-26.723-87.513-44.28-186.522-78.578-206.278-56.733-7.672 8.489-2.347 22.035 10.544 39.114 12.89 17.089 26.636 26.578 26.636 26.578 1.069 1.137 2.43.9 3.032-.524l9.917-23.22c.607-1.425 2.37-2.6 3.926-2.6h36.927c1.545 0 2.27 1.146 1.604 2.55l-22.448 46.787c-.67 1.404-.166 3.255 1.122 4.11l51.63 32.151c1.346.763 1.166 1.424-.379 1.453l-40.858.01c-1.555.03-3.902-.617-5.213-1.433l-32.045-20.723c-1.268-.885-1.846-.428-1.312 1.02l7.06 18.58c.554 1.443-.277 2.634-1.827 2.634h-30.994c-1.555 0-3.231-1.195-3.732-2.668 0 0-27.273-80.093-28.162-82.45-2.711-7.22-4.538-13.901-4.538-13.901-2.711-12.91.175-23.502 9.771-31.252 32.122-25.908 156.5-1.696 253.376 49.259 8.162 4.3 15.84 8.488 23.084 12.71v-.019c1.36.778 3.012.268 3.693-1.117l7.41-15.053c.67-1.39 2.502-2.527 4.057-2.527h37.86c1.565 0 2.24 1.113 1.526 2.488l-18.76 35.873c-.705 1.346-.472 3.367.49 4.543 60.994 44.415 70.813 82.14 45.392 102.644" style="fill:#004999;fill-opacity:1;fill-rule:nonzero;stroke:none;stroke-width:4.85887" transform="matrix(1.33333 0 0 -1.33333 242.089 774.27)"/><path d="M253.798 388.863h8.945l-9.402-12.016 10.155-15.252h-9.363L245.15 376.1h-.078v-14.504h-7.555v27.268h7.555v-11.977h.078zM277.457 361.03c9.027 0 14.12 5.218 14.12 14.197 0 8.994-5.093 14.207-14.12 14.207-9.023 0-14.125-5.213-14.125-14.207 0-8.98 5.102-14.198 14.125-14.198m6.19 14.091c0-4.042-1.05-8.804-6.19-8.804-5.141 0-6.186 4.762-6.186 8.804 0 4.261 1.045 9.028 6.186 9.028 5.14 0 6.19-4.767 6.19-9.028M303.165 372.024h2.833c3.853 0 4.008-1.356 4.31-4.65.189-1.93.413-3.888.83-5.778h8.192a33.342 33.342 0 0 0-1.248 6.618c-.486 4.223-1.395 6.671-6.23 6.788v.15c3.81.453 6.949 2.61 6.949 6.691 0 5.773-5.967 7.021-10.578 7.021h-12.609v-27.268h7.551zm0 5.286v6.268h2.944c2.42 0 4.762-.34 4.762-3.134 0-2.799-2.342-3.134-4.762-3.134zM323.54 361.594v27.268h20.766v-5.287H331.09v-5.626h12.162v-5.287H331.09v-5.777h13.216v-5.291zM354.615 361.594l1.778 5.33h11.068l1.808-5.33h8.537l-10.762 27.268h-9.218l-10.762-27.268zm3.707 10.617 3.697 11.33h.117l3.474-11.33zM400.394 361.594v9.747h4.98c6.686 0 11.074 2.157 11.074 8.765 0 6.613-4.388 8.756-11.073 8.756h-12.536v-27.268zm0 15.038v6.943h3.892c2.984-.111 4.232-1.467 4.232-3.469s-1.248-3.362-4.232-3.474zM433.102 361.03c9.023 0 14.12 5.218 14.12 14.197 0 8.994-5.097 14.207-14.12 14.207-9.028 0-14.125-5.213-14.125-14.207 0-8.98 5.097-14.198 14.125-14.198m6.19 14.091c0-4.042-1.05-8.804-6.19-8.804-5.14 0-6.2 4.762-6.2 8.804 0 4.261 1.06 9.028 6.2 9.028 5.14 0 6.19-4.767 6.19-9.028M453.752 361.594l-4.645 27.268h7.512l2.497-19.863h.073l4.412 19.863h9.256l4.009-19.712h.068l2.497 19.712h6.837l-4.68-27.268h-9.071l-4.68 20.208h-.077l-4.985-20.208zM490.64 361.594v27.268h20.771v-5.287h-13.216v-5.626h12.167v-5.287h-12.167v-5.777h13.216v-5.291zM523.86 372.024h2.827c3.858 0 4.004-1.356 4.31-4.65.184-1.93.418-3.888.83-5.778h8.193c-.642 2.192-1.064 4.344-1.244 6.618-.486 4.223-1.4 6.671-6.23 6.788v.15c3.81.453 6.949 2.61 6.949 6.691 0 5.773-5.976 7.021-10.578 7.021h-12.613v-27.268h7.555zm0 5.286v6.268h2.939c2.424 0 4.761-.34 4.761-3.134 0-2.799-2.337-3.134-4.761-3.134zM556.006 361.594v27.268h20.772v-5.287h-13.216v-5.626h12.157v-5.287h-12.157v-5.777h13.216v-5.291zM595.148 371.307l-6.044-9.713h-8.839l10.35 14.202-9.597 13.066h9.747l5.32-8.454 5.52 8.454h8.688l-9.708-12.915 10.199-14.353h-9.67zM630.36 380.294c-.19 2.454-2.04 3.853-5.14 3.853-4.344 0-5.131-5.097-5.131-9.178 0-3.965.864-8.654 5.13-8.654 3.178 0 4.986 1.394 5.141 4.013h7.935c.107-6.88-6.467-9.3-13.075-9.3-8.499 0-13.066 5.107-13.066 14.242 0 9.14 4.567 14.086 13.066 14.163 6.608 0 13.182-2.269 13.075-9.14zM643.376 361.594v27.268h7.594v-10.796h9.256v10.796h7.546v-27.268h-7.546v11.185h-9.29v-11.185zM678.195 361.594l1.773 5.33h11.064l1.817-5.33h8.527l-10.757 27.268h-9.212l-10.768-27.268zm3.697 10.617 3.703 11.33h.112l3.479-11.33zM704.169 388.863h10.573l9.144-20.315.068.078v20.237h6.803v-27.268H720.3l-9.256 20.889h-.078v-20.889h-6.797zM754.618 371.796h-5.55v5.291h13.105v-14.586c-6.122-.909-7.288-1.473-13.862-1.473-8.498.268-13.668 5.666-13.668 14.198 0 8.542 5.17 13.94 13.668 14.207 6.613.19 13.556-.797 13.673-8.726h-7.556c-.374 2.648-2.454 3.44-4.946 3.44-5.097 0-6.91-4.5-6.91-8.921 0-5.354 2.678-8.911 8.115-8.911 1.399 0 2.798.228 3.93.457zM767.903 361.594v27.268h20.767v-5.287h-13.216v-5.626h12.162v-5.287h-12.162v-5.777h13.216v-5.291z" style="fill:#7d7d7d;fill-opacity:1;fill-rule:nonzero;stroke:none;stroke-width:4.85887" transform="matrix(1.33333 0 0 -1.33333 242.089 774.27)"/><path d="M-139.48 564.857c-3.766 0-7.265-1.554-10.506-4.66-3.197-3.06-5.17-6.768-5.918-11.082-.836-4.393-.204-8.11 1.861-11.17 2.07-3.062 5.01-4.592 8.8-4.592 1.846 0 3.274-.797 4.29-2.381 1.054-1.536 1.394-3.382 1.015-5.55-.379-2.152-1.39-4.017-3.046-5.606-1.618-1.54-3.328-2.308-5.136-2.308-1.841 0-3.309.767-4.397 2.303-1.02 1.584-1.336 3.44-.962 5.588.19 1.098.024 2.035-.481 2.803-.51.768-1.23 1.147-2.172 1.147-.943 0-1.813-.38-2.624-1.147-.811-.768-1.302-1.705-1.501-2.803-.788-4.378-.146-8.115 1.924-11.171 2.07-3.066 4.985-4.601 8.746-4.601 3.688 0 7.152 1.564 10.393 4.679 3.231 3.12 5.243 6.817 6.04 11.117.787 4.31.126 8.007-1.978 11.127-2.114 3.114-5.005 4.67-8.702 4.67-1.798 0-3.275.772-4.398 2.302-.976 1.618-1.278 3.48-.903 5.593.417 2.172 1.394 4.018 2.934 5.51 1.613 1.564 3.368 2.356 5.248 2.356 1.841 0 3.275-.792 4.29-2.366 1.094-1.54 1.448-3.382 1.074-5.525-.19-1.103-.03-2.026.481-2.798.505-.768 1.23-1.157 2.177-1.157.938 0 1.812.389 2.629 1.157a4.907 4.907 0 0 1 1.482 2.798c.792 4.247.121 7.95-2.027 11.108-2.108 3.105-4.99 4.66-8.634 4.66m55.46 0c-4.136 0-7.862-1.793-11.181-5.394-1.953 3.6-5 5.393-9.135 5.393-3.76 0-7.264-1.554-10.5-4.66-3.197-3.07-5.17-6.772-5.923-11.107l-6.486-35.528c-.19-1.093-.03-2.035.471-2.793.515-.773 1.234-1.152 2.177-1.152.938 0 1.812.379 2.629 1.152a4.858 4.858 0 0 1 1.486 2.793l6.492 35.528c.418 2.182 1.394 4.028 2.935 5.52 1.622 1.58 3.367 2.371 5.247 2.371 2.828 0 4.597-1.54 5.306-4.601.223-1.055.262-2.05.121-2.969l-6.559-35.853c-.18-1.089-.02-2.031.486-2.794.51-.768 1.244-1.147 2.177-1.147.937 0 1.807.379 2.623 1.147a4.923 4.923 0 0 1 1.492 2.794l6.55 35.853c.33 1.978 1.326 3.722 2.988 5.257 1.618 1.55 3.328 2.313 5.136 2.313 1.837 0 3.27-.792 4.295-2.37 1.084-1.536 1.443-3.378 1.074-5.516l-6.501-35.518c-.18-1.098-.025-2.036.486-2.794.505-.763 1.229-1.156 2.172-1.156.942 0 1.812.393 2.628 1.156.807.758 1.298 1.696 1.487 2.794l6.491 35.504c.788 4.251.117 7.954-2.03 11.112-2.104 3.105-4.986 4.664-8.635 4.664m35.135 0c-3.722 0-7.21-1.554-10.442-4.664-3.236-3.11-5.228-6.802-5.981-11.103-.19-1.103-.025-2.026.476-2.803.515-.763 1.234-1.152 2.172-1.152.942 0 1.817.389 2.633 1.152a4.942 4.942 0 0 1 1.487 2.803c.413 2.182 1.434 4.043 3.047 5.578 1.54 1.55 3.255 2.313 5.14 2.313 1.803 0 3.27-.763 4.398-2.303 1.02-1.657 1.336-3.518.962-5.568l-1.463-7.891h-6.778c-3.693 0-7.152-1.555-10.383-4.67-3.236-3.119-5.248-6.821-6.035-11.126-.797-4.3-.131-8.003 1.963-11.117 2.114-3.115 5.014-4.68 8.692-4.68 3.727 0 7.211 1.56 10.447 4.675 3.192 3.07 5.194 6.763 5.981 11.107l4.344 23.673c.792 4.378.156 8.104-1.914 11.17-2.07 3.076-4.985 4.606-8.746 4.606m-.452-39.434c-.374-2.157-1.38-3.999-2.993-5.534-1.652-1.59-3.392-2.381-5.194-2.381-1.88 0-3.324.792-4.344 2.38-1.093 1.497-1.424 3.339-1.016 5.535.38 2.162 1.39 4.033 3.047 5.617 1.623 1.53 3.348 2.313 5.19 2.313h6.777zm35.591 39.434c-3.756 0-7.26-1.56-10.495-4.664-3.197-3.076-5.175-6.773-5.923-11.112l-6.496-35.504c-.185-1.098-.025-2.036.48-2.794.51-.763 1.235-1.156 2.173-1.156.937 0 1.817.393 2.628 1.156a4.891 4.891 0 0 1 1.502 2.794l6.481 35.518c.418 2.182 1.395 4.023 2.94 5.515 1.613 1.58 3.362 2.371 5.243 2.371.937 0 1.817.384 2.624 1.142a4.891 4.891 0 0 1 1.5 2.799c.18 1.088.03 2.021-.485 2.789-.505.767-1.234 1.146-2.172 1.146m27.113-1.146c-.506.767-1.235 1.146-2.172 1.146H4.415l2.147 11.88c.19 1.103.03 2.036-.476 2.804-.505.777-1.234 1.161-2.182 1.161-.933 0-1.812-.384-2.619-1.156a4.837 4.837 0 0 1-1.491-2.794l-9.378-51.33c-.787-4.392-.146-8.118 1.924-11.18 2.07-3.075 4.985-4.615 8.751-4.615.943 0 1.817.393 2.624 1.146a4.93 4.93 0 0 1 1.496 2.794c.18 1.093.025 2.031-.485 2.794-.501.763-1.23 1.147-2.172 1.147-1.847 0-3.31.767-4.403 2.298-1.02 1.589-1.326 3.445-.957 5.593l5.758 31.582H9.72c.938 0 1.818.384 2.624 1.142a4.863 4.863 0 0 1 1.502 2.799c.184 1.088.029 2.021-.481 2.789" style="fill:#094;fill-opacity:1;fill-rule:nonzero;stroke:none;stroke-width:4.85887" transform="matrix(1.33333 0 0 -1.33333 242.089 774.27)"/></svg>