<svg width="304" height="45" viewBox="0 0 304 45" fill="none" xmlns="http://www.w3.org/2000/svg">
<g clip-path="url(#clip0_197_4525)">
<path d="M52.2607 15.1437C52.2607 14.2194 52.3956 13.3485 52.6696 12.5308C52.9392 11.7132 53.335 11.0023 53.8569 10.3935C54.3788 9.78472 55.0095 9.30926 55.7575 8.96266C56.5056 8.61607 57.3581 8.44277 58.3236 8.44277C59.2891 8.44277 60.1155 8.61607 60.8549 8.96266C61.5942 9.30926 62.2205 9.78472 62.7338 10.3935C63.247 11.0023 63.634 11.7132 63.8994 12.5308C64.1647 13.3485 64.2951 14.2194 64.2951 15.1437C64.2951 16.0679 64.1647 16.9344 63.8994 17.7432C63.634 18.5519 63.247 19.2584 62.7338 19.8583C62.2205 20.4582 61.5942 20.9336 60.8549 21.2802C60.1155 21.6268 59.2717 21.8001 58.3236 21.8001C57.3755 21.8001 56.5013 21.6268 55.7575 21.2802C55.0095 20.9336 54.3788 20.4582 53.8569 19.8583C53.335 19.2584 52.9392 18.5519 52.6696 17.7432C52.3999 16.9344 52.2607 16.0679 52.2607 15.1437ZM55.1791 15.1437C55.1791 15.8235 55.2574 16.419 55.4183 16.9344C55.5749 17.4499 55.801 17.8809 56.0837 18.2275C56.3708 18.5741 56.7057 18.8407 57.0884 19.0229C57.4711 19.2095 57.8843 19.2984 58.3193 19.2984C59.1935 19.2984 59.9198 18.9429 60.5026 18.2364C61.081 17.5299 61.3724 16.4945 61.3724 15.1392C61.3724 13.7839 61.081 12.7041 60.5026 11.9976C59.9241 11.2911 59.1935 10.9356 58.3193 10.9356C57.88 10.9356 57.4711 11.0245 57.0884 11.2022C56.7057 11.38 56.3664 11.6466 56.0837 11.9976C55.7967 12.3531 55.5749 12.793 55.4183 13.3129C55.2617 13.8373 55.1791 14.446 55.1791 15.1392V15.1437ZM66.1262 27.3457V8.05173C66.1262 7.78956 66.0566 7.50073 65.9131 7.18524C65.7695 6.86974 65.5782 6.64312 65.3346 6.50537H67.5745C68.6009 6.50537 69.1141 6.98972 69.1141 7.96286V13.8328H72.2369V16.0502H69.1141V27.3501H66.1305L66.1262 27.3457Z" fill="black"/>
<path d="M81.7966 27.5989V20.4581H73.5635V18.2408H93.0134V20.4581H84.7802V27.5989H81.7966ZM84.8281 9.7358C84.902 10.3223 85.1542 10.8778 85.5761 11.3977C85.998 11.922 86.5243 12.393 87.1593 12.8196C87.7942 13.2418 88.4901 13.6017 89.2513 13.895C90.0124 14.1883 90.7691 14.3971 91.5259 14.5171L90.5082 16.3656C89.7862 16.259 89.0512 16.0679 88.3162 15.8013C87.5768 15.5302 86.8853 15.2147 86.2372 14.8548C85.5892 14.4949 85.0107 14.0905 84.5062 13.655C84.0017 13.2151 83.6364 12.7752 83.4102 12.3264C83.184 12.7441 82.8361 13.1707 82.3707 13.6106C81.9054 14.0505 81.34 14.4638 80.6876 14.8459C80.0308 15.2325 79.3045 15.5613 78.5042 15.8413C77.704 16.1168 76.8515 16.3123 75.9469 16.4189L74.8856 13.9483C75.7468 13.9039 76.5688 13.7528 77.3604 13.4995C78.1519 13.2462 78.8565 12.9263 79.4741 12.5397C80.0917 12.1531 80.6006 11.7176 81.0007 11.2333C81.4008 10.7489 81.6357 10.2513 81.714 9.74468H75.6772V7.52734H90.8735V9.74468H84.8368L84.8281 9.7358Z" fill="black"/>
<path d="M106.383 26.9281V20.8049C106.157 20.9115 105.887 21.0093 105.578 21.0937C105.269 21.1781 104.952 21.2537 104.63 21.3114C104.304 21.3736 103.991 21.4181 103.682 21.4492C103.373 21.4803 103.103 21.4936 102.877 21.4936H97.8581C97.1492 21.4936 96.6099 21.307 96.2402 20.9293C95.8705 20.5516 95.6878 19.8762 95.6878 18.9075V10.638C95.6878 10.2514 95.6139 9.87369 95.4747 9.49599C95.3312 9.11829 95.1007 8.81612 94.7832 8.58506H104.169V10.8024H98.6714V18.5875C98.6714 18.863 98.728 19.0497 98.8411 19.143C98.9541 19.2363 99.1455 19.2807 99.4195 19.2807H103.221C103.416 19.2807 103.656 19.2674 103.934 19.2363C104.212 19.2052 104.495 19.1607 104.782 19.0985C105.069 19.0363 105.352 18.9697 105.63 18.8897C105.909 18.8141 106.161 18.7342 106.387 18.6586V8.53618C106.387 8.29178 106.344 7.99851 106.261 7.65635C106.178 7.31864 106.009 7.06536 105.752 6.89206H107.809C108.292 6.89206 108.636 7.01648 108.84 7.26088C109.044 7.50527 109.144 7.86076 109.144 8.32289V14.5617H111.202V8.02073C111.202 7.78966 111.145 7.5186 111.032 7.212C110.919 6.90539 110.728 6.66544 110.454 6.49658H112.489C113.498 6.49658 114.003 7.02092 114.003 8.0696V27.3458H111.197V16.8101H109.14V26.9325H106.383V26.9281Z" fill="black"/>
<path d="M117.599 14.406C117.599 13.7884 117.713 13.2107 117.939 12.673C118.165 12.1354 118.495 11.6555 118.935 11.2422H116.604V9.02487H121.396V8.02952C121.396 7.81622 121.331 7.54517 121.205 7.22079C121.079 6.89641 120.883 6.65201 120.627 6.48315H122.866C123.362 6.48315 123.715 6.63424 123.919 6.93195C124.123 7.23412 124.223 7.57627 124.223 7.95842V9.02043H128.816V11.2378H126.668C127.542 12.0865 127.981 13.1396 127.981 14.4016C127.981 15.0326 127.864 15.6236 127.629 16.1701C127.394 16.7167 127.059 17.1966 126.624 17.601C126.185 18.0098 125.646 18.3341 124.998 18.5697C124.35 18.8096 123.619 18.9296 122.806 18.9296C121.992 18.9296 121.266 18.8096 120.622 18.5697C119.983 18.3297 119.439 18.0053 118.996 17.601C118.552 17.1922 118.208 16.7167 117.965 16.1701C117.721 15.6236 117.604 15.0326 117.604 14.4016L117.599 14.406ZM119.952 22.8844H129.834C130.104 22.8844 130.299 22.9288 130.412 23.0221C130.525 23.1154 130.582 23.2976 130.582 23.5776V28.1989H133.566V22.7688C133.566 22.0756 133.413 21.5513 133.113 21.1958C132.813 20.8403 132.3 20.6626 131.574 20.6626H119.948V22.8799L119.952 22.8844ZM120.496 14.3127C120.496 14.9615 120.696 15.5169 121.096 15.9879C121.496 16.459 122.066 16.6945 122.806 16.6945C123.545 16.6945 124.154 16.459 124.545 15.9879C124.937 15.5169 125.132 14.9615 125.132 14.3127C125.132 14.0061 125.085 13.704 124.985 13.4107C124.884 13.1174 124.741 12.8597 124.545 12.6375C124.35 12.4153 124.106 12.2376 123.81 12.1043C123.514 11.9754 123.18 11.9087 122.806 11.9087C122.432 11.9087 122.118 11.9754 121.831 12.1043C121.544 12.2331 121.305 12.4109 121.109 12.6375C120.914 12.8597 120.761 13.1174 120.657 13.4107C120.553 13.704 120.5 14.0017 120.5 14.3127H120.496ZM133.57 19.3962V14.8193H136.645V12.6019H133.57V7.95842C133.57 6.98972 133.057 6.50093 132.03 6.50093H129.79C130.03 6.63868 130.225 6.8653 130.369 7.18079C130.512 7.49629 130.582 7.78512 130.582 8.04729V19.3917H133.566L133.57 19.3962Z" fill="black"/>
<path d="M138.024 24.1107V21.8934H142.434V15.2858H145.374V21.8934H147.544V15.2858H150.485V21.8934H157.474V24.1107H138.024ZM140.851 8.32715H152.681C153.403 8.32715 153.916 8.50489 154.221 8.86038C154.521 9.21586 154.673 9.7402 154.673 10.4334V18.9384H151.689V11.2377C151.689 10.9622 151.633 10.7756 151.52 10.6822C151.407 10.5889 151.215 10.5445 150.941 10.5445H140.855V8.32715H140.851Z" fill="black"/>
<path d="M247.369 8.16726C247.864 8.16726 248.217 8.35389 248.421 8.72271C248.625 9.09153 248.725 9.51811 248.725 9.99357V11.9354C248.725 12.953 248.847 13.8861 249.086 14.7304C249.326 15.5791 249.665 16.3434 250.091 17.0277C250.522 17.712 251.026 18.3253 251.605 18.8629C252.183 19.4006 252.814 19.8805 253.492 20.2938L252.157 22.1201C251.718 21.9201 251.252 21.6179 250.757 21.218C250.261 20.8181 249.787 20.3649 249.343 19.8672C248.899 19.3651 248.499 18.8452 248.143 18.3075C247.786 17.7698 247.529 17.2677 247.364 16.8056C247.181 17.4232 246.912 18.0275 246.551 18.6185C246.19 19.2095 245.772 19.765 245.307 20.2804C244.842 20.7959 244.337 21.2625 243.802 21.6802C243.267 22.0978 242.737 22.4356 242.206 22.6977L240.601 20.5737C241.28 20.2049 241.923 19.7339 242.536 19.1651C243.145 18.5963 243.68 17.9476 244.133 17.2233C244.585 16.499 244.942 15.6991 245.207 14.8193C245.472 13.9395 245.603 13.0019 245.603 12.0021V9.82916C245.603 9.56699 245.559 9.27371 245.468 8.94933C245.377 8.62495 245.203 8.36278 244.946 8.16282H247.364L247.369 8.16726ZM254.967 27.3457V8.05173C254.967 7.78956 254.893 7.50073 254.754 7.18524C254.61 6.86974 254.419 6.64312 254.175 6.50537H256.415C257.441 6.50537 257.955 6.98972 257.955 7.96286V13.8328H261.077V16.0502H257.955V27.3501H254.971L254.967 27.3457Z" fill="black"/>
<path d="M268.558 18.0808C267.666 18.0808 266.875 17.9253 266.183 17.6187C265.487 17.3121 264.9 16.9077 264.417 16.4056C263.935 15.9035 263.569 15.3302 263.321 14.6859C263.073 14.0372 262.947 13.3751 262.947 12.6997C262.947 12.0242 263.073 11.3577 263.321 10.7134C263.569 10.0646 263.935 9.4914 264.417 8.99372C264.9 8.4916 265.487 8.08723 266.183 7.78063C266.875 7.47402 267.666 7.31849 268.558 7.31849C269.297 7.31849 269.976 7.42958 270.593 7.65176C271.211 7.87394 271.75 8.1761 272.211 8.55381C272.672 8.93151 273.051 9.37142 273.355 9.8691C273.655 10.3712 273.877 10.8956 274.012 11.451H277.587V8.05613C277.587 7.79396 277.513 7.50512 277.374 7.18963C277.23 6.87414 277.039 6.64752 276.795 6.50977H279.035C280.062 6.50977 280.575 6.99411 280.575 7.96726V18.4807H277.591V13.6728H274.086C273.981 14.2593 273.781 14.8192 273.486 15.3614C273.19 15.899 272.811 16.37 272.342 16.77C271.872 17.1699 271.324 17.4898 270.689 17.7298C270.054 17.9697 269.345 18.0897 268.562 18.0897L268.558 18.0808ZM268.558 15.7257C268.993 15.7257 269.384 15.6413 269.723 15.4724C270.063 15.3036 270.35 15.077 270.585 14.7926C270.819 14.5082 270.993 14.1838 271.115 13.8239C271.237 13.4639 271.298 13.0862 271.298 12.7041C271.298 12.322 271.237 11.9442 271.115 11.5843C270.993 11.2244 270.815 10.9 270.585 10.6156C270.35 10.3312 270.063 10.1046 269.723 9.93576C269.384 9.7669 268.997 9.68247 268.558 9.68247C268.119 9.68247 267.731 9.7669 267.392 9.93576C267.053 10.1046 266.766 10.3312 266.531 10.6156C266.296 10.9 266.118 11.2244 266 11.5843C265.879 11.9442 265.818 12.322 265.818 12.7041C265.818 13.0862 265.879 13.4639 266 13.8239C266.122 14.1838 266.296 14.5082 266.531 14.7926C266.766 15.077 267.053 15.3036 267.392 15.4724C267.731 15.6413 268.119 15.7257 268.558 15.7257ZM280.566 28.0433H269.349C268.762 28.0433 268.275 27.8567 267.892 27.4878C267.51 27.119 267.314 26.5414 267.314 25.7549V19.7249H270.276V21.6179H277.583V19.6094H280.566V28.0433ZM277.583 25.826V23.8619H270.276V25.0172C270.276 25.2927 270.319 25.4971 270.411 25.6304C270.502 25.7593 270.68 25.826 270.954 25.826H277.583Z" fill="black"/>
<path d="M293.549 16.3701C294.349 16.3701 295.145 16.3123 295.945 16.1968C296.746 16.0813 297.407 15.948 297.937 15.7924V8.05173C297.937 7.78956 297.863 7.50073 297.724 7.18524C297.581 6.86974 297.389 6.64312 297.146 6.50537H299.386C300.412 6.50537 300.925 6.98972 300.925 7.96286V12.8375H304V15.077H300.925V22.0534H297.942V17.9165C297.611 18.0098 297.22 18.0986 296.776 18.1831C296.332 18.2675 295.884 18.343 295.441 18.4008C294.997 18.463 294.575 18.5074 294.175 18.5386C293.775 18.5697 293.453 18.583 293.214 18.583H287.108C286.399 18.583 285.859 18.3964 285.49 18.0187C285.12 17.6409 284.937 16.9655 284.937 15.9968V10.1491C284.937 9.76251 284.863 9.3848 284.724 9.0071C284.581 8.6294 284.35 8.32723 284.033 8.09617H294.48V10.3135H287.921V15.6725C287.921 15.948 287.978 16.1346 288.091 16.2279C288.204 16.3212 288.395 16.3656 288.669 16.3656H293.553L293.549 16.3701ZM290.992 20.947V25.0128C290.992 25.2439 291.035 25.3994 291.126 25.475C291.218 25.5505 291.383 25.5905 291.622 25.5905H301.617V27.8078H289.991C289.387 27.8078 288.904 27.6345 288.543 27.2879C288.182 26.9413 287.999 26.4748 287.999 25.8882V20.9425H290.983L290.992 20.947Z" fill="black"/>
<path d="M15.953 5.39014L11.208 7.8652L11.5081 8.4562L13.5131 7.40752L14.2133 8.80724L14.9397 8.42509L14.2394 7.02537L16.2444 5.98113L15.953 5.39014Z" fill="#005BAB"/>
<path d="M13.0607 5.58111C13.7217 6.02102 14.4481 5.63443 14.4481 5.63443L15.5267 5.0701L15.2701 4.55465L14.4437 4.99011C14.4437 4.99011 13.8044 5.35449 13.3086 4.82126L14.97 3.95476L14.6742 3.36377L10.3511 5.6211L10.6468 6.2121L12.3082 5.3456C12.4431 6.0699 11.782 6.38539 11.782 6.38539L10.9513 6.81642L11.2079 7.33187L12.2865 6.76754C12.2865 6.76754 13.0215 6.38984 13.0563 5.58111H13.0607Z" fill="#005BAB"/>
<path d="M7.88075 8.77612L7.32839 9.50931L6.72819 9.03829L6.22803 9.70038L9.81616 12.5265L10.312 11.86L7.8416 9.91368L8.39396 9.18049L7.88075 8.77612Z" fill="#005BAB"/>
<path d="M5.55826 10.758C5.11899 10.9847 4.70581 11.549 4.70581 11.549C4.70581 11.549 4.27523 12.1 4.17085 12.5932C4.17085 12.5932 3.94469 13.4419 4.71016 14.0729C5.50172 14.6684 6.24979 14.2285 6.24979 14.2285C6.68907 14.0018 7.10225 13.4375 7.10225 13.4375C7.10225 13.4375 7.53717 12.8865 7.63721 12.3933C7.63721 12.3933 7.86337 11.5445 7.0979 10.9136C6.30633 10.3181 5.55826 10.758 5.55826 10.758ZM6.87609 12.4066C6.81085 12.6865 6.56294 13.0109 6.56294 13.0109C6.56294 13.0109 6.32373 13.3397 6.07147 13.4775C6.07147 13.4775 5.6496 13.7397 5.21467 13.4153C4.79714 13.0687 4.93632 12.5843 4.93632 12.5843C5.00156 12.3044 5.25381 11.98 5.25381 11.98C5.25381 11.98 5.49302 11.6512 5.74093 11.5179C5.74093 11.5179 6.16716 11.2557 6.59773 11.5801C7.01526 11.9267 6.87609 12.411 6.87609 12.411V12.4066Z" fill="#005BAB"/>
<path d="M23.4252 2.19058V2.96376H22.8642V2.19058H22.0465V4.54567H20.0937L20.0632 4.50568V2.83934H21.5985V2.17725H19.2891V4.72341C19.2891 4.99002 19.5022 5.20776 19.7631 5.20776C19.7718 5.20776 19.7762 5.20776 19.7849 5.20776H22.0508V6.80744H22.8685V3.62585H23.4296V6.80744H24.2472V2.19058H23.4296H23.4252Z" fill="#005BAB"/>
<path d="M37.0251 14.5261L39.4389 12.5754C39.4389 12.5754 39.4433 12.5709 39.4476 12.5665C39.6433 12.411 39.6825 12.131 39.552 11.9222L37.1295 8.79834L36.6206 9.21159L38.8431 12.0821L36.5554 13.9307L36.0683 13.3041L37.7906 11.9088L37.3252 11.309L35.5985 12.7042L35.181 12.1621L36.9077 10.7668L36.4423 10.167L34.7156 11.5622L34.0806 10.7446L33.5718 11.1579L36.8946 15.4459L37.4035 15.0371L37.0207 14.5439L37.0251 14.5261Z" fill="#005BAB"/>
<path d="M33.4543 6.25212L32.6801 5.86553L33.0324 5.13678L32.3583 4.79907L31.4058 6.77202L32.0799 7.10973L32.4278 6.38987L33.202 6.77646L33.4543 6.25212Z" fill="#005BAB"/>
<path d="M31.7102 7.87405C31.8276 7.63409 31.7319 7.34526 31.4971 7.22529L27.6828 5.30566L27.4175 5.85222L30.9795 7.64298L30.3489 8.95828L31.023 9.29599L31.7102 7.87405Z" fill="#005BAB"/>
<path d="M28.3089 4.05264C28.3089 4.05264 28.1567 4.36814 28.1871 4.63031C28.1871 4.63031 28.2089 4.99912 28.5351 5.31462C28.696 5.47014 28.9439 5.61233 29.2918 5.78563C29.6354 5.95893 29.8964 6.07447 30.1182 6.11001C30.5575 6.18111 30.8619 5.97671 30.8619 5.97671C31.0837 5.8434 31.236 5.52791 31.236 5.52791C31.236 5.52791 31.3534 5.27907 31.3621 5.04356L31.7231 5.22574L32.0101 4.63031L30.614 3.92822L30.7706 3.60384L30.0965 3.26613L29.9399 3.59051L28.5438 2.88843L28.2567 3.48387L28.6177 3.66605C28.435 3.81713 28.3176 4.06153 28.3176 4.06153L28.3089 4.05264ZM30.427 5.41682C30.427 5.41682 30.2878 5.51013 30.0834 5.47903C29.979 5.46125 29.7094 5.33239 29.5485 5.25241C29.3875 5.17242 29.144 5.04356 29.07 4.96802C28.9178 4.82138 28.9091 4.65252 28.9091 4.65252C28.8917 4.53255 28.9656 4.38147 28.9656 4.38147C28.9656 4.38147 29.0352 4.23483 29.1396 4.17262C29.1396 4.17262 29.2788 4.0793 29.4832 4.11041C29.5876 4.12818 29.8355 4.24372 29.9964 4.3237C30.1573 4.40368 30.4227 4.54588 30.4966 4.61698C30.6488 4.76361 30.6575 4.93247 30.6575 4.93247C30.6706 5.05245 30.601 5.20353 30.601 5.20353C30.601 5.20353 30.5314 5.35016 30.427 5.41237V5.41682Z" fill="#005BAB"/>
<path d="M3.78822 25.4926L3.63599 24.1596L2.30512 23.8263L2.25293 23.373L5.29741 24.2173C5.49313 24.2706 5.71929 24.3462 5.76713 24.084H5.78888L5.88456 24.915L3.34894 26.3325C3.07059 26.488 2.79224 26.6169 2.66176 26.9412L2.57043 26.1458L3.79257 25.4926H3.78822ZM5.40179 24.6217L4.03613 24.2529L4.15356 25.2971L5.40179 24.6217Z" fill="#005BAB"/>
<path d="M5.66705 27.3678C5.89756 27.2967 6.26725 27.2079 6.2803 26.919L6.30205 26.9102L6.5978 27.8789L6.5804 27.8877C6.41078 27.6656 6.05849 27.8122 5.82798 27.8877L3.00531 28.7942C2.47905 28.9631 2.07022 28.7187 1.82666 28.0921V28.0655C2.32682 28.381 2.61823 28.3454 3.15753 28.1721L5.66705 27.3678Z" fill="#005BAB"/>
<path d="M6.97179 33.1934C5.98886 33.6111 4.93634 33.0779 4.54055 32.1003C4.14477 31.1227 4.49706 30.0118 5.48434 29.5941C6.40204 29.2075 7.4937 29.6963 7.88948 30.7406C8.31136 31.7715 7.83729 32.8246 6.97179 33.1934ZM5.75835 30.1407C5.08421 30.4251 4.5884 31.2071 4.90154 31.9803C5.20164 32.7268 5.93232 32.9801 6.64994 32.6735C7.35452 32.3758 7.84599 31.6337 7.53284 30.8516C7.22405 30.0874 6.48902 29.8296 5.75835 30.1362V30.1407Z" fill="#005BAB"/>
<path d="M8.64641 37.2503L8.88997 37.0015C8.51158 37.0548 8.1245 36.8371 7.86354 36.5749C7.61999 36.3261 7.43732 35.9839 7.45036 35.6284C7.46776 35.2107 7.72002 34.9664 7.98532 34.6953L8.96826 33.6866C9.13353 33.5177 9.42928 33.2689 9.32924 32.9934L9.87725 33.5489L9.34664 34.0732L8.36371 35.0819C7.87659 35.584 7.8505 36.0284 8.23323 36.415C8.442 36.6282 8.7334 36.7527 9.02915 36.6993C9.22051 36.6682 9.3075 36.5705 9.44232 36.4327L10.5514 35.2996C10.7167 35.1308 11.0081 34.8775 10.908 34.602L11.456 35.1574L10.9254 35.6862L9.02045 37.6369L8.64206 37.2548L8.64641 37.2503Z" fill="#005BAB"/>
<path d="M15.3223 41.3561L15.4484 41.0451C15.1222 41.2406 14.6786 41.1917 14.3393 41.0495C14.0218 40.9162 13.7261 40.6674 13.6043 40.3385C13.4651 39.9431 13.6043 39.6187 13.7522 39.2632L14.2828 37.9479C14.3741 37.7257 14.5524 37.3836 14.3567 37.1614L15.07 37.4635L14.7743 38.1523L14.2436 39.4676C13.9783 40.1208 14.1262 40.5385 14.622 40.7518C14.8917 40.8673 15.2135 40.8673 15.4658 40.7029C15.6311 40.6007 15.6789 40.4763 15.7485 40.2985L16.3487 38.8144C16.44 38.5922 16.614 38.2456 16.4183 38.0279L17.1316 38.33L16.8402 39.0277L15.8181 41.5605L15.3266 41.3561H15.3223Z" fill="#005BAB"/>
<path d="M21.3898 39.7122L21.0549 42.6805C20.7027 42.5116 20.5591 42.3161 20.3678 41.9873L18.8542 39.4766L18.5454 42.2006L18.1714 42.1561L18.4889 39.37C18.5193 39.0723 18.5454 38.859 18.2932 38.6724V38.6501L19.0543 38.739V38.7479C19.0673 38.8146 19.0847 38.8412 19.1152 38.8901L19.1761 39.0056L20.7983 41.6762L21.0245 39.6677C21.0593 39.37 21.0897 39.1434 20.8331 38.9479L21.4812 39.0234L21.3985 39.7077L21.3898 39.7122Z" fill="#005BAB"/>
<path d="M23.1208 42.5159L22.986 39.7609C22.973 39.5165 22.9904 39.1299 22.7207 39.0366L23.4775 38.9966L23.5123 39.7342L23.6471 42.4892L23.1165 42.5159H23.1208Z" fill="#005BAB"/>
<path d="M38.7825 33.0157L36.4557 31.616C36.2513 31.4915 35.9381 31.2649 35.7163 31.4471L36.1034 30.7761L36.7253 31.1494L39.0522 32.5536L38.7825 33.0201V33.0157Z" fill="#005BAB"/>
<path d="M26.913 39.3166C26.9652 38.9166 27.0392 38.4501 26.6956 38.4012V38.379L27.4437 38.1968L26.9304 42.0893C26.5216 41.9383 26.3955 41.9249 26.1519 41.5517L24.895 39.6143C24.7384 39.3743 24.5905 39.0899 24.3296 38.97V38.9477L25.0646 38.77L25.0733 38.8367C25.0994 38.9522 25.256 39.1833 25.3256 39.2855L26.6521 41.3473L26.9087 39.3166H26.913Z" fill="#005BAB"/>
<path d="M29.6447 40.263L28.7835 38.459C28.6792 38.2368 28.54 37.8769 28.2616 37.9035L28.2529 37.8857L29.7491 37.1392C29.8317 37.0992 29.9143 37.0726 29.9578 37.0104L29.9752 37.0015L30.2405 37.5614H30.2275C30.0013 37.468 29.8013 37.5436 29.5838 37.6547C29.4185 37.7347 29.2576 37.8235 29.1184 37.9257L29.5447 38.8144L30.1014 38.5345C30.1753 38.4989 30.2492 38.459 30.2927 38.4056L30.3058 38.3967L30.5493 38.9033L30.5363 38.9122C30.3971 38.81 30.2014 38.9122 30.0535 38.9877L29.7056 39.161L30.2492 40.2941L30.8712 40.0542C31.193 39.9298 31.4714 39.6676 31.6019 39.3388L31.6193 39.3299L31.7062 40.0631L29.9578 40.9385L29.6403 40.263H29.6447Z" fill="#005BAB"/>
<path d="M33.4459 38.8322L31.7888 36.6638C31.6409 36.4683 31.4365 36.1394 31.1669 36.2328L31.1538 36.215L32.1324 35.4329C32.6847 34.993 33.2067 35.0508 33.5024 35.4329C33.7851 35.8017 33.6894 36.3439 33.4111 36.6949L34.5854 36.9793C34.9246 37.0593 35.3508 37.0726 35.6988 37.037L35.3204 37.3348C35.1029 37.5081 34.9246 37.5658 34.6811 37.5081L33.6981 37.2726L32.8674 36.9837C33.1545 36.6727 33.4241 36.2105 33.1197 35.8151C32.8892 35.5129 32.4977 35.5396 32.2324 35.7706C32.1411 35.8506 32.0628 35.935 31.9802 36.0284L33.8634 38.4945L33.4415 38.8278L33.4459 38.8322Z" fill="#005BAB"/>
<path d="M35.6118 32.8289C35.3204 32.8511 35.0246 33.0288 34.8376 33.2599C34.6506 33.4954 34.4984 33.8642 34.7767 34.0997C35.3291 34.5619 36.4599 33.1399 37.2036 33.7665C37.6342 34.1264 37.669 34.9262 37.1514 35.5706C36.947 35.8194 36.7122 36.0416 36.4382 36.206L35.838 35.9038C36.2381 35.8327 36.6382 35.6061 36.8948 35.2862C37.0818 35.0507 37.2297 34.5796 36.947 34.3441C36.3207 33.8153 35.2943 35.3262 34.4375 34.6107C33.933 34.1842 34.1635 33.491 34.568 32.9888C34.7332 32.7844 34.929 32.5934 35.1508 32.4512L35.6074 32.8333L35.6118 32.8289Z" fill="#005BAB"/>
<path d="M41.4222 25.8571L39.9434 25.6394L38.4429 26.3103C38.195 26.417 38.0123 26.497 37.8384 26.7325L37.9471 25.946L39.5737 25.2305L38.7039 24.4352C38.5865 24.3285 38.3559 24.1685 38.1776 24.444H38.1602L38.2907 23.5198L40.0217 25.0972L41.5005 25.315L41.4265 25.8526L41.4222 25.8571Z" fill="#005BAB"/>
<path d="M36.6514 29.8919L37.1298 30.2696V30.2562C37.0559 30.0474 37.0863 29.803 37.1689 29.5897L37.3342 29.1542L40.183 30.2962L40.3787 29.7897L37.5299 28.6477L37.7039 28.2033C37.7648 28.0389 37.8648 27.8523 38.0605 27.8567V27.8434L37.5821 27.479L36.6514 29.9007V29.8919Z" fill="#005BAB"/>
<path d="M22.0116 0C9.85977 0 0 10.0736 0 22.4889C0 34.9042 9.85977 45.0044 22.0116 45.0044C34.1634 45.0044 44.0449 34.9309 44.0449 22.4889C44.0449 10.0469 34.1852 0 22.0116 0ZM22.0116 44.3335C10.2208 44.3335 0.652389 34.5576 0.652389 22.4889C0.652389 10.4202 10.2208 0.666535 22.0116 0.666535C33.8024 0.666535 43.3925 10.4424 43.3925 22.4889C43.3925 34.5354 33.8242 44.3379 22.0116 44.3379V44.3335Z" fill="#005BAB"/>
<path d="M36.3339 22.4889C36.3339 30.5717 29.9274 37.1171 22.0161 37.1171C14.1048 37.1171 7.71143 30.5717 7.71143 22.4889C7.71143 14.406 14.1179 7.87842 22.0161 7.87842C29.9144 7.87842 36.3339 14.4282 36.3339 22.4889Z" fill="#005BAB"/>
<path d="M5.306 18.783C5.306 19.1163 5.04069 19.3918 4.7145 19.3918C4.38831 19.3918 4.11865 19.1207 4.11865 18.783C4.11865 18.4453 4.38396 18.1787 4.7145 18.1787C5.04504 18.1787 5.306 18.4498 5.306 18.783Z" fill="#005BAB"/>
<path d="M40.0218 18.783C40.0218 19.1163 39.7565 19.3918 39.4259 19.3918C39.0954 19.3918 38.8301 19.1207 38.8301 18.783C38.8301 18.4453 39.0997 18.1787 39.4259 18.1787C39.7521 18.1787 40.0218 18.4498 40.0218 18.783Z" fill="#005BAB"/>
<path d="M19.4715 10.0113L13.4651 19.0095C13.4651 19.0095 12.0081 20.8625 13.2129 23.2887L16.3444 28.221C16.3444 28.221 16.8793 29.1942 17.984 29.1942H20.337C20.337 29.1942 19.9629 29.0475 19.7324 28.7009L16.24 23.2131C16.24 23.2131 15.6746 22.2755 15.7137 21.329C15.7137 21.329 15.7529 20.4981 16.2269 19.7116L19.4976 14.6992L23.3771 20.8314C23.3771 20.8314 23.8164 21.5023 23.351 22.04C23.351 22.04 23.0683 22.3422 22.3594 22.1067L23.712 24.2396C23.712 24.2396 23.9556 24.5817 24.3557 24.5817C24.3557 24.5817 24.6384 24.5817 24.908 24.2529L25.9127 22.5955C25.9127 22.5955 26.6477 21.609 25.8736 20.0671L19.4715 10.0068V10.0113Z" fill="#BE8915"/>
<path d="M27.3784 28.3722L30.3577 23.7909C30.3577 23.7909 31.8147 21.9379 30.6099 19.5117L25.2169 11.0156C25.2169 11.0156 24.6819 10.0425 23.5772 10.0425H21.2242C21.2242 10.0425 21.5983 10.1936 21.8288 10.5357L27.4654 19.3029C27.4654 19.3029 28.2222 20.4715 28.1135 21.4669C28.1135 21.4669 28.0743 22.2978 27.5959 23.0843L25.6518 26.1904C25.3256 26.6214 24.982 26.6303 24.982 26.6303H23.8034C23.4163 26.5859 23.1336 26.1238 23.1336 26.1238L20.4457 21.969C20.4457 21.969 20.0108 21.298 20.4718 20.7604C20.4718 20.7604 20.7545 20.4582 21.4634 20.6937L20.1108 18.5608C20.1108 18.5608 19.8673 18.2186 19.4671 18.2186C19.4671 18.2186 19.1844 18.2186 18.9148 18.5475L17.9101 20.2049C17.9101 20.2049 17.1751 21.1914 17.9493 22.7289L21.5678 28.4077C21.5678 28.4077 22.0636 29.1898 22.79 29.1898H26.0432C26.0432 29.1898 26.8522 29.212 27.3828 28.3722H27.3784Z" fill="#BE8915"/>
<path d="M18.3712 34.5489H17.8928V31.3895L17.3491 31.7627V31.2962C17.4709 31.2428 17.8145 30.9762 17.958 30.8518H18.3712V34.5533V34.5489Z" fill="white"/>
<path d="M21.5243 32.7136C21.5243 33.6778 21.5286 34.6287 20.5501 34.6287C20.0064 34.6287 19.6454 34.251 19.6585 33.6645H20.1412C20.1412 33.9355 20.2456 34.2199 20.5544 34.2199C21.0198 34.2199 21.0502 33.6956 21.0502 32.7491H21.0415C20.9241 33.0024 20.6979 33.0957 20.4196 33.0957C20.1412 33.0957 19.5889 32.9402 19.5889 31.9271C19.5889 31.0961 20.076 30.7939 20.5544 30.7939C21.546 30.7939 21.5286 31.7226 21.5286 32.718L21.5243 32.7136ZM20.0629 31.9137C20.0629 32.2825 20.1325 32.6825 20.5501 32.6825C20.9676 32.6825 21.0372 32.2825 21.0372 31.9137C21.0372 31.576 20.9632 31.145 20.5501 31.145C20.1369 31.145 20.0629 31.576 20.0629 31.9137Z" fill="white"/>
<path d="M22.0811 30.8474H23.9556V31.274L22.99 34.5489H22.4464L23.4598 31.274H22.0811V30.8474Z" fill="white"/>
<path d="M25.3344 32.3937C25.765 32.4337 26.0738 32.2559 26.0738 31.7805C26.0738 31.4428 25.9259 31.1984 25.5736 31.1984C25.1778 31.1984 25.1126 31.5005 25.1169 31.8027H24.6385C24.6037 31.1761 24.8995 30.7896 25.5736 30.7896C26.1912 30.7896 26.5522 31.105 26.5522 31.7494C26.5522 32.447 26.0477 32.5536 25.8389 32.607V32.6203C26.4087 32.7003 26.5913 33.0113 26.5913 33.5623C26.5913 34.2822 26.2086 34.6288 25.5171 34.6288C24.5037 34.6288 24.582 33.7401 24.582 33.5312H25.0604C25.0604 33.9 25.1213 34.22 25.5562 34.22C25.9911 34.22 26.1086 33.9489 26.1086 33.5534C26.1086 32.958 25.8911 32.8291 25.33 32.8291V32.3981L25.3344 32.3937Z" fill="white"/>
<path d="M175.671 24.5687C174.549 24.5687 173.64 23.871 173.64 23.0134V7.34985H170.021V23.0134C170.021 25.4041 172.552 27.3415 175.675 27.3415H181.316V24.5731H175.679L175.671 24.5687Z" fill="#1968A6"/>
<path d="M187.357 7.34961H183.739V27.3412H187.357V7.34961Z" fill="#52B055"/>
<path d="M193.498 15.708V11.6777C193.498 10.8201 194.407 10.1224 195.529 10.1224C196.652 10.1224 197.561 10.8201 197.561 11.6777V27.3413H201.179V11.6732C201.179 9.28261 198.648 7.34521 195.525 7.34521C192.402 7.34521 189.871 9.28261 189.871 11.6732V27.3413H193.49V15.708H193.498Z" fill="#F69332"/>
<path d="M209.299 24.5684C208.177 24.5684 207.268 23.8708 207.268 23.0132V11.6732C207.268 10.8156 208.177 10.118 209.299 10.118C210.421 10.118 211.33 10.8156 211.33 11.6732H214.949C214.949 9.28256 212.417 7.34961 209.295 7.34961C206.172 7.34961 203.641 9.287 203.641 11.6732V23.0132C203.641 25.4038 206.172 27.3412 209.295 27.3412C212.417 27.3412 214.949 25.4038 214.949 23.0132H211.33C211.33 23.8708 210.421 24.5684 209.299 24.5684Z" fill="#E04031"/>
<path d="M106.56 32.1574H108.015V37.6714H111.246V38.92H106.56V32.1574Z" fill="black"/>
<path d="M116.102 37.3685C115.889 38.4492 115.129 39.0346 114.052 39.0346C112.525 39.0346 111.801 37.9539 111.753 36.4556C111.753 34.986 112.702 33.9094 114.008 33.9094C115.708 33.9094 116.227 35.5305 116.179 36.7135H112.585C112.561 37.5691 113.027 38.3223 114.08 38.3223C114.731 38.3223 115.186 37.9989 115.322 37.3685H116.102ZM115.342 36.0012C115.306 35.2358 114.744 34.6176 113.96 34.6176C113.136 34.6176 112.645 35.2562 112.585 36.0012H115.342Z" fill="black"/>
<path d="M121.247 38.8995C121.103 38.9814 120.93 39.0346 120.677 39.0346C120.271 39.0346 120.013 38.8053 120.013 38.2773C119.575 38.7972 118.992 39.0346 118.325 39.0346C117.453 39.0346 116.733 38.6334 116.733 37.6591C116.733 36.5498 117.545 36.3165 118.361 36.1527C119.229 35.9808 119.973 36.0381 119.973 35.4322C119.973 34.7323 119.41 34.6176 118.904 34.6176C118.237 34.6176 117.742 34.8264 117.71 35.5469H116.918C116.966 34.3352 117.887 33.9054 118.952 33.9054C119.812 33.9054 120.749 34.1059 120.749 35.2521V37.7697C120.749 38.1504 120.749 38.3182 121.002 38.3182C121.066 38.3182 121.143 38.31 121.247 38.2732V38.8995ZM119.965 36.3901C119.656 36.6153 119.061 36.6235 118.534 36.7217C118.012 36.8159 117.569 37.0042 117.569 37.6018C117.569 38.134 118.012 38.3223 118.494 38.3223C119.531 38.3223 119.961 37.6591 119.961 37.217V36.3901H119.965Z" fill="black"/>
<path d="M125.476 38.92V38.2568H125.456C125.195 38.7972 124.584 39.0346 123.928 39.0346C122.449 39.0346 121.718 37.8393 121.718 36.4556C121.718 35.072 122.441 33.9094 123.912 33.9094C124.403 33.9094 125.106 34.0977 125.46 34.6749H125.48V32.1574H126.268V38.92H125.476ZM124.037 38.3223C125.098 38.3223 125.504 37.3972 125.504 36.4761C125.504 35.51 125.074 34.6176 123.993 34.6176C122.911 34.6176 122.554 35.5551 122.554 36.5129C122.554 37.4708 123.016 38.3223 124.037 38.3223Z" fill="black"/>
<path d="M131.57 37.3685C131.357 38.4492 130.597 39.0346 129.52 39.0346C127.992 39.0346 127.265 37.9539 127.216 36.4556C127.216 34.986 128.169 33.9094 129.475 33.9094C131.172 33.9094 131.69 35.5305 131.642 36.7135H128.053C128.02 37.5691 128.495 38.3223 129.544 38.3223C130.195 38.3223 130.653 37.9989 130.79 37.3685H131.57ZM130.81 36.0012C130.774 35.2358 130.211 34.6176 129.427 34.6176C128.603 34.6176 128.113 35.2562 128.057 36.0012H130.81Z" fill="black"/>
<path d="M132.434 34.02H133.178V35.0515H133.194C133.571 34.2656 134.102 33.8767 134.958 33.9012V34.7527C133.684 34.7527 133.222 35.4936 133.222 36.734V38.9118H132.434V34.0159V34.02Z" fill="black"/>
<path d="M136.028 37.3767C136.06 38.0971 136.667 38.3223 137.318 38.3223C137.808 38.3223 138.48 38.2077 138.48 37.5936C138.48 36.9796 137.7 36.865 136.912 36.6849C136.136 36.5048 135.344 36.2387 135.344 35.3053C135.344 34.3188 136.301 33.9094 137.133 33.9094C138.194 33.9094 139.034 34.2533 139.103 35.4445H138.315C138.254 34.8223 137.72 34.6217 137.197 34.6217C136.723 34.6217 136.176 34.7568 136.176 35.2439C136.176 35.8252 137.016 35.9194 137.744 36.0995C138.536 36.2755 139.312 36.5416 139.312 37.4913C139.312 38.6539 138.242 39.0387 137.27 39.0387C136.196 39.0387 135.284 38.5925 135.24 37.3808H136.028V37.3767Z" fill="black"/>
<path d="M143.601 33.1398H142.809V32.1574H143.601V33.1398ZM142.809 34.02H143.601V38.9159H142.809V34.02Z" fill="black"/>
<path d="M144.823 34.02H145.566V34.7977H145.586C145.916 34.1919 146.459 33.9054 147.142 33.9054C148.404 33.9054 148.798 34.6463 148.798 35.6983V38.92H148.006V35.6042C148.006 35.0065 147.636 34.6176 147.033 34.6176C146.077 34.6176 145.614 35.2726 145.614 36.1527V38.92H144.823V34.02Z" fill="black"/>
<path d="M152.609 32.1574H154.064V38.92H152.609V32.1574Z" fill="black"/>
<path d="M155.346 32.1574H156.789L159.559 36.6931H159.575V32.1574H160.941V38.92H159.478L156.725 34.3884H156.709V38.92H155.346V32.1574Z" fill="black"/>
<path d="M165.668 38.92V38.2568H165.652C165.391 38.7972 164.78 39.0346 164.125 39.0346C162.65 39.0346 161.914 37.8393 161.914 36.4556C161.914 35.072 162.642 33.9094 164.105 33.9094C164.595 33.9094 165.303 34.0977 165.656 34.6749H165.672V32.1574H166.464V38.92H165.668ZM164.233 38.3223C165.291 38.3223 165.701 37.3972 165.701 36.4761C165.701 35.51 165.27 34.6176 164.185 34.6176C163.1 34.6176 162.746 35.5551 162.746 36.5129C162.746 37.4708 163.212 38.3223 164.233 38.3223Z" fill="black"/>
<path d="M171.646 38.92H170.902V38.1422H170.886C170.552 38.7521 170.014 39.0346 169.326 39.0346C168.068 39.0346 167.674 38.2937 167.674 37.2416V34.02H168.462V37.3317C168.462 37.9293 168.836 38.3182 169.439 38.3182C170.396 38.3182 170.858 37.6673 170.858 36.7872V34.02H171.646V38.92Z" fill="black"/>
<path d="M173.318 37.3767C173.342 38.0971 173.957 38.3223 174.608 38.3223C175.098 38.3223 175.766 38.2077 175.766 37.5936C175.766 36.9796 174.986 36.865 174.198 36.6849C173.422 36.5048 172.63 36.2387 172.63 35.3053C172.63 34.3188 173.591 33.9094 174.423 33.9094C175.48 33.9094 176.32 34.2533 176.389 35.4445H175.601C175.545 34.8223 175.006 34.6217 174.483 34.6217C174.013 34.6217 173.462 34.7568 173.462 35.2439C173.462 35.8252 174.303 35.9194 175.03 36.0995C175.822 36.2755 176.598 36.5416 176.598 37.4913C176.598 38.6539 175.533 39.0387 174.56 39.0387C173.483 39.0387 172.574 38.5925 172.526 37.3808H173.318V37.3767Z" fill="black"/>
<path d="M178.563 34.02H179.52V34.7282H178.563V37.7697C178.563 38.1381 178.664 38.2077 179.158 38.2077H179.52V38.9159H178.917C178.101 38.9159 177.78 38.748 177.78 37.8475V34.7282H176.964V34.02H177.78V32.5504H178.567V34.02H178.563Z" fill="black"/>
<path d="M180.364 34.02H181.108V35.0515H181.124C181.506 34.2656 182.036 33.8767 182.889 33.9012V34.7527C181.614 34.7527 181.156 35.4936 181.156 36.734V38.9118H180.364V34.0159V34.02Z" fill="black"/>
<path d="M185.369 39.5749C185.003 40.5328 184.677 40.8808 183.974 40.8808C183.789 40.8808 183.604 40.8644 183.427 40.7948V40.058C183.576 40.103 183.733 40.1685 183.894 40.1685C184.215 40.1685 184.392 40.0089 184.545 39.7223L184.866 38.8872L182.965 34.02H183.857L185.26 38.0276H185.276L186.623 34.02H187.459L185.373 39.5708L185.369 39.5749Z" fill="black"/>
<path d="M187.993 35.9071H190.671V36.6644H187.993V35.9071Z" fill="black"/>
<path d="M195.699 38.92H194.956V38.1422H194.939C194.606 38.7521 194.071 39.0346 193.38 39.0346C192.122 39.0346 191.728 38.2937 191.728 37.2416V34.02H192.52V37.3317C192.52 37.9293 192.889 38.3182 193.492 38.3182C194.449 38.3182 194.911 37.6673 194.911 36.7872V34.02H195.699V38.92Z" fill="black"/>
<path d="M196.885 34.02H197.629V34.7977H197.645C197.982 34.1919 198.525 33.9054 199.204 33.9054C200.466 33.9054 200.86 34.6463 200.86 35.6983V38.92H200.069V35.6042C200.069 35.0065 199.699 34.6176 199.096 34.6176C198.139 34.6176 197.677 35.2726 197.677 36.1527V38.92H196.885V34.02Z" fill="black"/>
<path d="M202.878 33.1398H202.086V32.1574H202.878V33.1398ZM202.086 34.02H202.878V38.9159H202.086V34.02Z" fill="black"/>
<path d="M206.263 38.92H205.423L203.638 34.02H204.522L205.869 38.1013H205.885L207.191 34.02H208.019L206.263 38.92Z" fill="black"/>
<path d="M212.831 37.3685C212.618 38.4492 211.858 39.0346 210.785 39.0346C209.253 39.0346 208.53 37.9539 208.482 36.4556C208.482 34.986 209.422 33.9094 210.737 33.9094C212.437 33.9094 212.952 35.5305 212.903 36.7135H209.314C209.286 37.5691 209.76 38.3223 210.809 38.3223C211.456 38.3223 211.914 37.9989 212.051 37.3685H212.831ZM212.071 36.0012C212.035 35.2358 211.468 34.6176 210.688 34.6176C209.864 34.6176 209.374 35.2562 209.318 36.0012H212.071Z" fill="black"/>
<path d="M213.695 34.02H214.439V35.0515H214.455C214.837 34.2656 215.363 33.8767 216.219 33.9012V34.7527C214.945 34.7527 214.487 35.4936 214.487 36.734V38.9118H213.695V34.0159V34.02Z" fill="black"/>
<path d="M217.293 37.3767C217.325 38.0971 217.936 38.3223 218.583 38.3223C219.077 38.3223 219.741 38.2077 219.741 37.5936C219.741 36.9796 218.965 36.865 218.173 36.6849C217.397 36.5048 216.605 36.2387 216.605 35.3053C216.605 34.3188 217.562 33.9094 218.398 33.9094C219.455 33.9094 220.299 34.2533 220.364 35.4445H219.576C219.52 34.8223 218.981 34.6217 218.458 34.6217C217.988 34.6217 217.441 34.7568 217.441 35.2439C217.441 35.8252 218.274 35.9194 219.009 36.0995C219.797 36.2755 220.577 36.5416 220.577 37.4913C220.577 38.6539 219.508 39.0387 218.535 39.0387C217.458 39.0387 216.545 38.5925 216.501 37.3808H217.289L217.293 37.3767Z" fill="black"/>
<path d="M222.285 33.1398H221.497V32.1574H222.285V33.1398ZM221.497 34.02H222.285V38.9159H221.497V34.02Z" fill="black"/>
<path d="M224.604 34.02H225.561V34.7282H224.604V37.7697C224.604 38.1381 224.709 38.2077 225.199 38.2077H225.561V38.9159H224.958C224.142 38.9159 223.821 38.748 223.821 37.8475V34.7282H223.005V34.02H223.821V32.5504H224.608V34.02H224.604Z" fill="black"/>
<path d="M228.315 39.5749C227.953 40.5328 227.627 40.8808 226.924 40.8808C226.739 40.8808 226.55 40.8644 226.377 40.7948V40.058C226.526 40.103 226.679 40.1685 226.843 40.1685C227.169 40.1685 227.342 40.0089 227.491 39.7223L227.816 38.8872L225.911 34.02H226.803L228.206 38.0276H228.222L229.569 34.02H230.401L228.311 39.5708L228.315 39.5749Z" fill="black"/>
<path d="M238.114 34.4293C238.018 33.7539 237.391 33.2463 236.663 33.2463C235.357 33.2463 234.867 34.3802 234.867 35.5673C234.867 36.7545 235.357 37.8311 236.663 37.8311C237.556 37.8311 238.054 37.2089 238.167 36.3165H239.578C239.429 38.003 238.287 39.0837 236.663 39.0837C234.613 39.0837 233.407 37.52 233.407 35.5673C233.407 33.6147 234.609 31.9937 236.663 31.9937C238.118 31.9937 239.348 32.8697 239.521 34.4293H238.114Z" fill="black"/>
<path d="M242.596 33.9054C244.116 33.9054 244.924 35.0311 244.924 36.472C244.924 37.9129 244.116 39.0305 242.596 39.0305C241.077 39.0305 240.269 37.9048 240.269 36.472C240.269 35.0393 241.077 33.9054 242.596 33.9054ZM242.596 38.3223C243.42 38.3223 244.088 37.6591 244.088 36.4761C244.088 35.2931 243.424 34.6176 242.596 34.6176C241.768 34.6176 241.101 35.2808 241.101 36.4761C241.101 37.6714 241.764 38.3223 242.596 38.3223Z" fill="black"/>
<path d="M247.918 33.9054C249.442 33.9054 250.25 35.0311 250.25 36.472C250.25 37.9129 249.442 39.0305 247.918 39.0305C246.395 39.0305 245.595 37.9048 245.595 36.472C245.595 35.0393 246.399 33.9054 247.918 33.9054ZM247.918 38.3223C248.746 38.3223 249.414 37.6591 249.414 36.4761C249.414 35.2931 248.75 34.6176 247.918 34.6176C247.086 34.6176 246.427 35.2808 246.427 36.4761C246.427 37.6714 247.09 38.3223 247.918 38.3223Z" fill="black"/>
<path d="M251.994 34.02V34.6831H252.01C252.272 34.1469 252.883 33.9054 253.538 33.9054C255.013 33.9054 255.749 35.1007 255.749 36.4802C255.749 37.8597 255.025 39.0305 253.558 39.0305C253.064 39.0305 252.36 38.8381 252.006 38.265H251.99V40.7948H251.198V34.02H251.994ZM253.433 34.6176C252.376 34.6176 251.966 35.5469 251.966 36.4638C251.966 37.4299 252.396 38.3223 253.482 38.3223C254.567 38.3223 254.917 37.3849 254.917 36.427C254.917 35.4691 254.454 34.6176 253.437 34.6176H253.433Z" fill="black"/>
<path d="M260.765 37.3685C260.552 38.4492 259.792 39.0346 258.715 39.0346C257.188 39.0346 256.46 37.9539 256.412 36.4556C256.412 34.986 257.357 33.9094 258.671 33.9094C260.367 33.9094 260.886 35.5305 260.838 36.7135H257.244C257.22 37.5691 257.694 38.3223 258.743 38.3223C259.39 38.3223 259.841 37.9989 259.985 37.3685H260.765ZM260.005 36.0012C259.965 35.2358 259.399 34.6176 258.623 34.6176C257.799 34.6176 257.3 35.2562 257.244 36.0012H260.005Z" fill="black"/>
<path d="M261.633 34.02H262.377V35.0515H262.389C262.771 34.2656 263.302 33.8767 264.154 33.9012V34.7527C262.884 34.7527 262.421 35.4936 262.421 36.734V38.9118H261.637V34.0159L261.633 34.02Z" fill="black"/>
<path d="M268.993 38.8995C268.857 38.9814 268.68 39.0346 268.427 39.0346C268.021 39.0346 267.759 38.8053 267.759 38.2773C267.325 38.7972 266.738 39.0346 266.071 39.0346C265.203 39.0346 264.483 38.6334 264.483 37.6591C264.483 36.5498 265.291 36.3165 266.107 36.1527C266.975 35.9808 267.719 36.0381 267.719 35.4322C267.719 34.7323 267.156 34.6176 266.654 34.6176C265.987 34.6176 265.496 34.8264 265.456 35.5469H264.668C264.712 34.3352 265.633 33.9054 266.698 33.9054C267.566 33.9054 268.499 34.1059 268.499 35.2521V37.7697C268.499 38.1504 268.499 38.3182 268.752 38.3182C268.812 38.3182 268.893 38.31 268.989 38.2732V38.8995H268.993ZM267.711 36.3901C267.41 36.6153 266.811 36.6235 266.284 36.7217C265.762 36.8159 265.315 37.0042 265.315 37.6018C265.315 38.134 265.762 38.3223 266.244 38.3223C267.281 38.3223 267.707 37.6591 267.707 37.217V36.3901H267.711Z" fill="black"/>
<path d="M270.822 34.02H271.775V34.7282H270.822V37.7697C270.822 38.1381 270.923 38.2077 271.413 38.2077H271.775V38.9159H271.176C270.36 38.9159 270.034 38.748 270.034 37.8475V34.7282H269.218V34.02H270.034V32.5504H270.826V34.02H270.822Z" fill="black"/>
<path d="M273.483 33.1398H272.696V32.1574H273.483V33.1398ZM272.696 34.02H273.483V38.9159H272.696V34.02Z" fill="black"/>
<path d="M276.775 33.9054C278.299 33.9054 279.107 35.0311 279.107 36.472C279.107 37.9129 278.299 39.0305 276.775 39.0305C275.252 39.0305 274.448 37.9048 274.448 36.472C274.448 35.0393 275.256 33.9054 276.775 33.9054ZM276.775 38.3223C277.603 38.3223 278.271 37.6591 278.271 36.4761C278.271 35.2931 277.607 34.6176 276.775 34.6176C275.943 34.6176 275.284 35.2808 275.284 36.4761C275.284 37.6714 275.947 38.3223 276.775 38.3223Z" fill="black"/>
<path d="M280.035 34.02H280.779V34.7977H280.795C281.129 34.1919 281.667 33.9054 282.355 33.9054C283.617 33.9054 284.007 34.6463 284.007 35.6983V38.92H283.219V35.6042C283.219 35.0065 282.845 34.6176 282.242 34.6176C281.285 34.6176 280.827 35.2726 280.827 36.1527V38.92H280.035V34.02Z" fill="black"/>
<path d="M54.9512 38.9568L55.4617 37.4422H57.9016L58.392 38.9568H59.8833L57.4434 32.1574H55.9722L53.4961 38.9568H54.9512ZM56.6877 33.8317H56.7078L57.5278 36.3287H55.8395L56.6877 33.8317ZM64.0879 32.1574H62.6569V36.7463C62.6569 37.2252 62.6569 37.8638 61.8972 37.8638C61.2218 37.8638 61.0651 37.389 61.0651 36.7299V36.427H59.7667V37.0165C59.7667 38.5024 60.8239 39.1205 61.9132 39.1205C63.8587 39.1205 64.0879 37.6919 64.0879 36.8159V32.1574ZM64.8837 35.5837C64.8837 37.5486 66.0736 39.1205 68.0914 39.1205C70.1093 39.1205 71.2991 37.5486 71.2991 35.5837C71.2991 33.6188 70.1133 31.9937 68.0914 31.9937C66.0695 31.9937 64.8837 33.5656 64.8837 35.5837ZM66.3188 35.5837C66.3188 34.3966 66.8011 33.2504 68.0914 33.2504C69.3817 33.2504 69.8641 34.3966 69.8641 35.5837C69.8641 36.7708 69.3817 37.8638 68.0914 37.8638C66.8011 37.8638 66.3188 36.7217 66.3188 35.5837ZM77.63 32.1574H76.195V36.386C76.195 37.3931 75.8654 37.8597 74.8444 37.8597C73.6828 37.8597 73.5019 37.127 73.5019 36.386V32.1574H72.0669V36.386C72.0669 38.2322 73.0919 39.1165 74.8444 39.1165C76.597 39.1165 77.63 38.22 77.63 36.386V32.1574ZM85.1428 32.1574V36.386C85.1428 37.3931 84.8131 37.8597 83.7922 37.8597C82.6305 37.8597 82.4456 37.127 82.4456 36.386V32.1574H81.0146V36.386C81.0146 38.2322 82.0356 39.1165 83.7922 39.1165C85.5487 39.1165 86.5778 38.22 86.5778 36.386V32.1574H85.1428ZM87.6269 38.9568H88.9695V34.4048H88.9855L91.6988 38.9568H93.1378V32.1574H91.7913V36.7176H91.7752L89.0539 32.1574H87.6269V38.9568ZM94.2151 38.9568H95.6501V32.1574H94.2151V38.9568ZM101.925 32.1574H100.442L98.9744 36.9387H98.9543L97.5032 32.1574H96.0239L98.1423 38.9568H99.7582L101.925 32.1574ZM101.04 38.9568H102.475V37.4913H101.04V38.9568Z" fill="black"/>
<path d="M54.9512 38.9568L55.4617 37.4422H57.9016L58.392 38.9568H59.8833L57.4434 32.1574H55.9722L53.4961 38.9568H54.9512ZM56.6877 33.8317H56.7078L57.5278 36.3287H55.8395L56.6877 33.8317ZM64.0879 32.1574H62.6569V36.7463C62.6569 37.2252 62.6569 37.8638 61.8972 37.8638C61.2218 37.8638 61.0651 37.389 61.0651 36.7299V36.427H59.7667V37.0165C59.7667 38.5024 60.8239 39.1205 61.9132 39.1205C63.8587 39.1205 64.0879 37.6919 64.0879 36.8159V32.1574ZM64.8837 35.5837C64.8837 37.5486 66.0736 39.1205 68.0914 39.1205C70.1093 39.1205 71.2991 37.5486 71.2991 35.5837C71.2991 33.6188 70.1133 31.9937 68.0914 31.9937C66.0695 31.9937 64.8837 33.5656 64.8837 35.5837ZM66.3188 35.5837C66.3188 34.3966 66.8011 33.2504 68.0914 33.2504C69.3817 33.2504 69.8641 34.3966 69.8641 35.5837C69.8641 36.7708 69.3817 37.8638 68.0914 37.8638C66.8011 37.8638 66.3188 36.7217 66.3188 35.5837ZM77.63 32.1574H76.195V36.386C76.195 37.3931 75.8654 37.8597 74.8444 37.8597C73.6828 37.8597 73.5019 37.127 73.5019 36.386V32.1574H72.0669V36.386C72.0669 38.2322 73.0919 39.1165 74.8444 39.1165C76.597 39.1165 77.63 38.22 77.63 36.386V32.1574ZM85.1428 32.1574V36.386C85.1428 37.3931 84.8131 37.8597 83.7922 37.8597C82.6305 37.8597 82.4456 37.127 82.4456 36.386V32.1574H81.0146V36.386C81.0146 38.2322 82.0356 39.1165 83.7922 39.1165C85.5487 39.1165 86.5778 38.22 86.5778 36.386V32.1574H85.1428ZM87.6269 38.9568H88.9695V34.4048H88.9855L91.6988 38.9568H93.1378V32.1574H91.7913V36.7176H91.7752L89.0539 32.1574H87.6269V38.9568ZM94.2151 38.9568H95.6501V32.1574H94.2151V38.9568ZM101.925 32.1574H100.442L98.9744 36.9387H98.9543L97.5032 32.1574H96.0239L98.1423 38.9568H99.7582L101.925 32.1574ZM101.04 38.9568H102.475V37.4913H101.04V38.9568Z" fill="black"/>
<path d="M291.251 35.4473C291.825 35.0953 292.266 34.5479 292.266 33.8929C292.266 32.7785 291.366 31.9573 289.969 31.9573C288.544 31.9573 287.654 32.7785 287.654 34.0102H288.936C288.936 33.5899 289.194 33.1793 289.969 33.1793C290.744 33.1793 291.089 33.5899 291.089 34.0004C291.089 34.4404 290.687 34.8803 289.941 34.8803H289.443V36.0338H289.921C290.84 36.0338 291.194 36.5226 291.194 37.0114C291.194 37.4904 290.792 37.9694 289.902 37.9694C289.022 37.9694 288.706 37.4904 288.706 37.0016H287.434C287.434 38.3116 288.343 39.1914 289.902 39.1914C291.452 39.1914 292.38 38.3116 292.38 37.1189C292.38 36.4053 291.873 35.809 291.251 35.4473Z" fill="black"/>
<path d="M293.889 37.9988C293.43 37.9988 293.181 38.3214 293.181 38.7124C293.181 39.1132 293.43 39.4358 293.889 39.4358C294.339 39.4358 294.588 39.1132 294.588 38.7124C294.588 38.3214 294.339 37.9988 293.889 37.9988Z" fill="black"/>
<path d="M297.804 37.8619C296.837 37.8619 296.34 37.2265 296.34 35.5646C296.34 33.9027 296.837 33.2673 297.804 33.2673C298.761 33.2673 299.258 33.9027 299.258 35.5646C299.258 37.2265 298.761 37.8619 297.804 37.8619ZM295.039 35.5646C295.039 37.7935 296.139 39.1914 297.804 39.1914C299.44 39.1914 300.56 37.8228 300.56 35.5646C300.56 33.3064 299.44 31.9377 297.804 31.9377C296.139 31.9377 295.039 33.3357 295.039 35.5646Z" fill="black"/>
<ellipse cx="223.987" cy="15.9967" rx="8.26359" ry="8.44278" fill="url(#paint0_linear_197_4525)"/>
<mask id="mask0_197_4525" style="mask-type:alpha" maskUnits="userSpaceOnUse" x="215" y="7" width="18" height="18">
<ellipse cx="223.987" cy="15.9967" rx="8.26359" ry="8.44278" fill="url(#paint1_linear_197_4525)"/>
</mask>
<g mask="url(#mask0_197_4525)">
<path d="M221.557 12.5645C222.236 12.1485 222.756 11.5016 222.756 10.7275C222.756 9.41042 221.693 8.43994 220.042 8.43994C218.357 8.43994 217.305 9.41042 217.305 10.8661H218.821C218.821 10.3693 219.126 9.8841 220.042 9.8841C220.958 9.8841 221.365 10.3693 221.365 10.8546C221.365 11.3745 220.89 11.8944 220.008 11.8944H219.42V13.2577H219.986C221.071 13.2577 221.489 13.8353 221.489 14.413C221.489 14.9791 221.015 15.5452 219.963 15.5452C218.923 15.5452 218.549 14.9791 218.549 14.4014H217.045C217.045 15.9496 218.12 16.9894 219.963 16.9894C221.795 16.9894 222.892 15.9496 222.892 14.5401C222.892 13.6967 222.292 12.9919 221.557 12.5645Z" fill="white"/>
<path d="M224.082 15.1079C223.456 15.1079 223.117 15.5478 223.117 16.0811C223.117 16.6276 223.456 17.0675 224.082 17.0675C224.695 17.0675 225.035 16.6276 225.035 16.0811C225.035 15.5478 224.695 15.1079 224.082 15.1079Z" fill="white"/>
<path d="M228.131 22.5279C226.989 22.5279 226.401 21.7769 226.401 19.8129C226.401 17.8488 226.989 17.0979 228.131 17.0979C229.262 17.0979 229.85 17.8488 229.85 19.8129C229.85 21.7769 229.262 22.5279 228.131 22.5279ZM224.863 19.8129C224.863 22.447 226.163 24.0991 228.131 24.0991C230.065 24.0991 231.388 22.4817 231.388 19.8129C231.388 17.1441 230.065 15.5266 228.131 15.5266C226.163 15.5266 224.863 17.1787 224.863 19.8129Z" fill="white"/>
</g>
</g>
<defs>
<linearGradient id="paint0_linear_197_4525" x1="218.768" y1="8.44267" x2="231.207" y2="20.6178" gradientUnits="userSpaceOnUse">
<stop stop-color="#52B055"/>
<stop offset="0.682292" stop-color="#1968A6"/>
</linearGradient>
<linearGradient id="paint1_linear_197_4525" x1="218.768" y1="8.44267" x2="231.207" y2="20.6178" gradientUnits="userSpaceOnUse">
<stop stop-color="#52B055"/>
<stop offset="0.682292" stop-color="#1968A6"/>
</linearGradient>
<clipPath id="clip0_197_4525">
<rect width="304" height="45" fill="white"/>
</clipPath>
</defs>
</svg>
