<svg xmlns="http://www.w3.org/2000/svg" xml:space="preserve" width="1000px" height="159.418px" x="0px" y="0px" viewBox="0 0 1000 159.418"><path fill="#003378" d="M275.328 18.446h-73.105c-42.46 0-61.515 28.407-61.515 48.659 0 20.279 16.329 35.892 58.493 35.892l8.62.04c9.292 0 14.464 1.306 14.607 7.521.052 3.419-2.27 7.412-4.788 9.369-5.672 4.383-10.675 4.85-37.347 4.85H48.677L74.103 18.581H30.13c-2.941 0-4.044.852-4.907 4.341L1.11 122.454c-4.539 19.792 5.668 37.891 28.454 37.891h60.371c15.287 0 35.756-16.703 44.063-32.12.46-.863.747-1.404 1.091-2.102 0 0 .18-.222.224.088v.011c-1.314 5.543-5.948 25.145-6.692 28.345-.961 4.159 1.194 5.736 3.201 5.736h64.943c55.087 0 76.57-26.215 78.47-57.682 1.056-17.694-10.135-29.122-41.776-29.122H209.16c-8.648 0-17.5-2.834-17.5-9.854 0-7.023 9.629-13.111 22.667-13.111h59.138s5.18-20.717 6.197-25.055c1.277-5.443-.351-7.033-4.334-7.033"/><path fill="#E6003E" d="M293.684 32.004 354.215.924H236.554s50.953 10.379 55.486 11.294c4.557.923 5.587 3.354 4.808 6.575a9659.908 9659.908 0 0 1-3.164 13.211"/><linearGradient id="a" x1="591.4307" x2="591.4307" y1="158.7622" y2="89.3567" gradientTransform="matrix(1 0 -.0208 1 -47.624 0)" gradientUnits="userSpaceOnUse"><stop offset="0" style="stop-color:#0075bd"/><stop offset="1" style="stop-color:#003378"/></linearGradient><path fill="url(#a)" d="m586.316 105.958 2.156-8.79c1.294-4.994-1.923-7.438-5.171-7.438H513.58c-3.82 0-4.737.968-5.536 4.287l-12.048 50.058-1.904 7.851c-1.218 4.478-.118 8.378 5.626 8.378h67.738c5.421 0 7.921-3.419 9.033-7.454l2.126-8.774H515.48l2.781-11.562h44.262c5.421 0 7.921-3.423 9.033-7.456l2.127-8.774h-51.516l2.484-10.324h61.665z"/><linearGradient id="b" x1="497.606" x2="497.606" y1="158.7622" y2="89.3567" gradientTransform="matrix(1 0 -.0208 1 -47.624 0)" gradientUnits="userSpaceOnUse"><stop offset="0" style="stop-color:#0075bd"/><stop offset="1" style="stop-color:#003378"/></linearGradient><path fill="url(#b)" d="M439.681 89.729h-14.977c-3.82 0-4.737.968-5.536 4.287l-13.952 57.908c-1.217 4.478-.119 8.378 5.626 8.378h66.972c5.42 0 7.922-3.419 9.032-7.454l2.127-8.774h-62.369l13.077-54.345z"/><linearGradient id="c" x1="1004.2168" x2="1004.2168" y1="158.7622" y2="89.3567" gradientTransform="matrix(1 0 -.0208 1 -47.624 0)" gradientUnits="userSpaceOnUse"><stop offset="0" style="stop-color:#0075bd"/><stop offset="1" style="stop-color:#003378"/></linearGradient><path fill="url(#c)" d="M994.59 89.729h-47.216c-18.952 0-29.523 7.402-33.961 25.113l-4.14 17.147c-3.333 15.017.678 28.313 21.396 28.313h48.842c5.419 0 7.923-3.419 9.031-7.454l2.128-8.774h-52.697c-9.078 0-10.857-4.433-9.439-11.179l3.432-14.602c2.363-9.341 10.377-12.336 17.021-12.336h48.62l2.156-8.79c1.292-4.994-1.924-7.438-5.173-7.438z"/><linearGradient id="d" x1="682.6826" x2="682.6826" y1="158.7622" y2="89.3567" gradientTransform="matrix(1 0 -.0208 1 -47.624 0)" gradientUnits="userSpaceOnUse"><stop offset="0" style="stop-color:#0075bd"/><stop offset="1" style="stop-color:#003378"/></linearGradient><path fill="url(#d)" d="M673.056 89.729h-47.214c-18.952 0-29.526 7.402-33.961 25.113l-4.142 17.147c-3.333 15.017.68 28.313 21.396 28.313h48.843c5.419 0 7.921-3.419 9.032-7.454l2.128-8.774H616.44c-9.077 0-10.857-4.433-9.438-11.179l3.432-14.602c2.361-9.341 10.375-12.336 17.019-12.336h48.618l2.158-8.79c1.292-4.994-1.923-7.438-5.173-7.438z"/><linearGradient id="e" x1="939.3691" x2="939.3691" y1="158.7622" y2="89.3567" gradientTransform="matrix(1 0 -.0208 1 -47.624 0)" gradientUnits="userSpaceOnUse"><stop offset="0" style="stop-color:#0075bd"/><stop offset="1" style="stop-color:#003378"/></linearGradient><path fill="url(#e)" d="M901.447 89.729h-14.593l-15.032 62.195c-1.219 4.478-.12 8.378 5.624 8.378h13.968l15.206-63.135c1.292-4.994-1.923-7.438-5.173-7.438z"/><linearGradient id="f" x1="779.8662" x2="779.8662" y1="158.7622" y2="89.3567" gradientTransform="matrix(1 0 -.0208 1 -47.624 0)" gradientUnits="userSpaceOnUse"><stop offset="0" style="stop-color:#0075bd"/><stop offset="1" style="stop-color:#003378"/></linearGradient><path fill="url(#f)" d="M777.205 97.167c1.291-4.994-1.923-7.438-5.173-7.438h-80.757c-3.82 0-4.739.968-5.536 4.287l-2.935 11.941h35.572l-11.091 45.967c-1.217 4.478-.117 8.378 5.626 8.378h13.008l13.076-54.345h36.053l2.157-8.79z"/><linearGradient id="g" x1="871.2295" x2="871.2295" y1="158.7622" y2="89.3567" gradientTransform="matrix(1 0 -.0208 1 -47.624 0)" gradientUnits="userSpaceOnUse"><stop offset="0" style="stop-color:#0075bd"/><stop offset="1" style="stop-color:#003378"/></linearGradient><path fill="url(#g)" d="M846.155 89.729h-55.958c-3.82 0-4.737.968-5.535 4.287l-14.012 57.908c-1.217 4.478-.117 8.378 5.625 8.378h11.859l13.075-54.345h41.231c13.562 0 10.574 18.823-5.374 18.823h-29.694c-2.953 0-4.058 3.015-2.09 5.155l10.184 11.072 12.649 13.753c3.985 4.479 5.026 5.541 10.77 5.541h19.849l-18.487-19.42c36.168-2.58 44.459-51.152 5.908-51.152z"/><linearGradient id="h" x1="353.9033" x2="353.9033" y1="158.771" y2="87.9246" gradientUnits="userSpaceOnUse"><stop offset="0" style="stop-color:#0075bd"/><stop offset="1" style="stop-color:#003378"/></linearGradient><path fill="url(#h)" d="m406.974 71.369-87.901-.004c-4.816 0-5.974 1.221-6.979 5.403l-15.191 63.114-2.4 9.896c-1.535 5.646-.147 10.563 7.092 10.563l85.402.002c6.832 0 9.988-4.314 11.387-9.399l2.108-8.608h-82.127l4.097-17.033 58.317.002c6.833 0 9.989-4.314 11.387-9.401l2.683-11.061h-67.465l3.721-15.47h80.275l2.116-8.629c1.629-6.297-2.425-9.375-6.522-9.375z"/></svg>