<svg xmlns="http://www.w3.org/2000/svg" width="485.4pt" height="179.88pt" viewBox="0 0 171.23833 63.457671"><path d="m146.083 25.128-1.49 1.49 3.918 18.784V26.135a3.442 3.442 0 0 1-2.428-1.007M145.077 22.701l1.006-2.427-1.49-1.49-18.797 3.917zM148.524 19.267c.938 0 1.793.386 2.428 1.007l1.475-1.49L148.524 0zM171.238 22.701h-19.293c0 .952-.387 1.807-1.007 2.427l1.49 1.49z" style="fill:#ffca08;fill-opacity:1;fill-rule:nonzero;stroke:none;stroke-width:3.5306"/><path d="m148.51 0-3.338 16.012-8.853-5.489 5.502 8.84 2.773-.579 1.489 1.49a3.443 3.443 0 0 0-1.006 2.427h-19.28l16.025 3.338-5.503 8.84 8.854-5.489-.58-2.772 1.49-1.49c.62.621 1.49 1.008 2.427 1.008v19.266l3.338-16.012 8.868 5.49-5.503-8.842-2.786.58-1.49-1.49a3.419 3.419 0 0 0 1.008-2.427h19.293l-16.025-3.337 5.503-8.84-8.868 5.488.58 2.772-1.49 1.49a3.418 3.418 0 0 0-2.428-1.007z" style="fill:#a56f25;fill-opacity:1;fill-rule:nonzero;stroke:none;stroke-width:3.5306"/><path d="M149.862 20.04a2.993 2.993 0 0 0-4 1.323 1.48 1.48 0 0 0 .663 2c.73.372 1.627.069 2-.662a1.473 1.473 0 0 1 1.985-.662c.648.33.966 1.062.773 1.724l.014.014a2.98 2.98 0 0 0-1.434-3.737" style="fill:#ffca08;fill-opacity:1;fill-rule:nonzero;stroke:none;stroke-width:3.5306"/><path d="M57.358 62.114h14.447v-38.03H57.358ZM35.71 24.083v21.775L15.584 25.94c-1.68-1.584-4.511-1.856-5.247-1.856H0v38.03h14.447V40.34L34.56 60.258c1.68 1.584 4.512 1.84 5.247 1.856l10.336-.017V24.083zM126.571 36.803v-6.256c0-4.832-11.535-7.824-24.015-7.824-12.463 0-23.999 2.992-23.999 7.824v6.688c.016 1.792.576 4.288 5.776 5.888l22.847 6.895c2.656.784 4.944 1.68 4.944 2.864v.672c-.017 2.256-6.464 2.624-9.664 2.624-3.216 0-9.455-.688-9.455-3.52v-3.28H78.557v6.272c0 4.832 11.536 7.808 24 7.808 12.479 0 24.014-2.976 24.014-7.808v-6.688c-.016-1.792-.576-4.288-5.792-5.887l-22.83-6.912c-2.657-.784-4.944-1.68-4.944-2.848v-.688c.016-2.256 6.463-2.608 9.663-2.608 3.216 0 9.456.688 9.456 3.52v3.264zm0 0" style="fill:#06377a;fill-opacity:1;fill-rule:nonzero;stroke:none;stroke-width:4.09584"/></svg>