<svg xmlns="http://www.w3.org/2000/svg" xml:space="preserve" width="1208.2518" height="400" viewBox="0 0 1208.2518 400"><defs><linearGradient id="b" x1="0" x2="1" y1="0" y2="0" gradientTransform="scale(-16.3844 16.22824) rotate(45 -12.783 -11.463)" gradientUnits="userSpaceOnUse" spreadMethod="pad"><stop offset="0" style="stop-opacity:1;stop-color:#00a2e8"/><stop offset="0.00561523" style="stop-opacity:1;stop-color:#00a2e8"/><stop offset="1" style="stop-opacity:1;stop-color:#004da0"/></linearGradient><linearGradient id="d" x1="0" x2="1" y1="0" y2="0" gradientTransform="scale(-25.65618 25.65618) rotate(-70 -1.135 7.665)" gradientUnits="userSpaceOnUse" spreadMethod="pad"><stop offset="0" style="stop-opacity:1;stop-color:#afce00"/><stop offset="0.134827" style="stop-opacity:1;stop-color:#afce00"/><stop offset="0.31954596" style="stop-opacity:1;stop-color:#afce00"/><stop offset="0.837082" style="stop-opacity:1;stop-color:#009344"/><stop offset="1" style="stop-opacity:1;stop-color:#009344"/></linearGradient><clipPath id="a" clipPathUnits="userSpaceOnUse"><path d="M182.075 102.4c-1.986-1.952-2.452-5.287-1.051-8.263.15-.334.311-.279.232.067-.464 2.055-.205 4.087 1.21 5.519 2.672 2.701 9.046.45 14.257-4.549.085-.068.139-.032.145.046.053 1.003.233 4.963.233 4.963.011.179-.016.273-.149.37-3.514 2.606-6.909 3.653-9.67 3.653-2.247 0-4.075-.693-5.207-1.806"/></clipPath><clipPath id="c" clipPathUnits="userSpaceOnUse"><path d="m195.268 104.504-.253-5.227c-.008-.141.03-.196.123-.264 1.027-.791 2.021-1.638 2.988-2.652 4.148-4.351 7.679-11.562 4.374-14.868-2.562-2.561-8.235-1.856-13.693 1.992-.301.212-.404.057-.188-.163 5.709-5.229 12.057-6.36 15.669-3.693 4.459 3.293 3.335 11.958-2.269 18.931-1.26 1.567-3.721 4.144-6.532 6.044-.048.034-.088.05-.121.05-.063 0-.098-.058-.098-.15"/></clipPath></defs><path d="M0 0v.839c0 .382-.216.564-.569.564h-.514v-2.832a2.633 2.633 0 0 0-.478-.117 4.045 4.045 0 0 0-.605-.044h-1.966V.577h2.214v.61h-3.297v-2.688a.68.68 0 0 1 .2-.514c.134-.128.315-.193.545-.193h2.239a2.543 2.543 0 0 1 1.148.265v-1.564H0V-.62h1.083V0Z" style="fill:#004b9c;fill-opacity:1;fill-rule:nonzero;stroke:none" transform="matrix(15.14183 0 0 -15.14183 1191.853 191.13)"/><path d="M0 0c.047.215.072.415.072.597v1.506c0 .38-.217.564-.569.564h-4.245v-.609h3.731V.565c0-.183-.009-.366-.025-.551a1.956 1.956 0 0 0-.096-.485h-4.131v-.618h2.495v-2.928h1.083v2.928H.802v.618h-.971c.063.097.121.254.169.471" style="fill:#004b9c;fill-opacity:1;fill-rule:nonzero;stroke:none" transform="matrix(15.14183 0 0 -15.14183 985.184 210.873)"/><path d="M0 0c.051.214.079.411.079.594v.895c0 .381-.218.565-.571.565h-4.053v-.61h3.54V.569c0-.187-.009-.371-.025-.553a1.788 1.788 0 0 0-.104-.481h-4.148v-.61h2.504v-1.068h-1.79v-.608h3.547V-4.63H.062v1.924c0 .381-.218.563-.569.563h-1.189v1.068H.856v.61H-.187c.074.096.137.25.187.465" style="fill:#004b9c;fill-opacity:1;fill-rule:nonzero;stroke:none" transform="matrix(15.14183 0 0 -15.14183 786.299 201.586)"/><path d="M0 0a1.39 1.39 0 0 0-.224.793c0 .311.077.577.224.794.152.221.329.33.54.33.214 0 .396-.109.549-.33.152-.217.228-.483.228-.794 0-.31-.076-.574-.228-.793C.936-.219.754-.329.54-.329.329-.329.152-.219 0 0m2.377 1.058a2.588 2.588 0 0 1-.064.256h.961V.249h-.97c.032.09.056.181.073.272a1.655 1.655 0 0 1 0 .537M1.317-.787c.241.106.446.252.617.433h1.34v-1.965h1.083v4.345c0 .382-.216.565-.568.565h-.515v-.674H1.959a1.903 1.903 0 0 1-.626.448 1.86 1.86 0 0 1-.793.169c-.503 0-.937-.17-1.301-.509A1.63 1.63 0 0 1-1.306.793c0-.48.182-.891.545-1.231A1.84 1.84 0 0 1 .54-.947c.278 0 .535.053.777.16" style="fill:#004b9c;fill-opacity:1;fill-rule:nonzero;stroke:none" transform="matrix(15.14183 0 0 -15.14183 827.326 209.112)"/><path d="M0 0v1.168c0 .383-.217.565-.568.565h-.515V.105c0-.225.071-.4.214-.531a.766.766 0 0 1 .533-.191h3.922V0Z" style="fill:#004b9c;fill-opacity:1;fill-rule:nonzero;stroke:none" transform="matrix(15.14183 0 0 -15.14183 842.652 261.118)"/><path d="M0 0v1.097c0 .382-.216.564-.569.564h-.514V.105c0-.225.071-.4.212-.531a.772.772 0 0 1 .534-.191h3.826V0Z" style="fill:#004b9c;fill-opacity:1;fill-rule:nonzero;stroke:none" transform="matrix(15.14183 0 0 -15.14183 1141.74 261.118)"/><path d="M0 0c0 .257.067.478.2.66.133.186.284.278.449.278.172 0 .323-.092.454-.278C1.235.478 1.3.257 1.3 0s-.065-.479-.197-.666C.972-.854.821-.947.649-.947c-.165 0-.316.093-.449.281A1.12 1.12 0 0 0 0 0m1.833-1.072c.329.298.494.654.494 1.072 0 .229-.056.444-.165.645-.11.201-.258.368-.445.502h.844v.61H1.187v.228c0 .382-.216.566-.569.566H.104v-.794h-1.371v-.61h.851A1.532 1.532 0 0 1-.857.645 1.297 1.297 0 0 1-1.028 0c0-.418.167-.774.499-1.072a1.712 1.712 0 0 1 1.178-.445c.461 0 .855.149 1.184.445" style="fill:#004b9c;fill-opacity:1;fill-rule:nonzero;stroke:none" transform="matrix(15.14183 0 0 -15.14183 624.655 207.293)"/><path d="M0 0h-.45v-1.805h-.552v1.241c0 .381-.217.564-.57.564h-.449v-3.907c-.359.138-.654.425-.891.858-.235.434-.353.942-.353 1.525v.698h.875v.609h-2.888v-.609h.946v-.698c0-.626-.129-1.162-.389-1.606-.258-.443-.592-.718-.999-.825l.498-.418c.31.042.611.2.907.475.293.271.467.547.52.826.058-.279.234-.555.527-.826.29-.275.589-.433.893-.475l.354.297v-2.648h1.019v4.309h.552v-4.309H.569v6.16C.569-.183.353 0 0 0" style="fill:#004b9c;fill-opacity:1;fill-rule:nonzero;stroke:none" transform="matrix(15.14183 0 0 -15.14183 1088.366 169.882)"/><path d="M0 0v.96c0 .382-.215.564-.567.564v.008h-.515v-4.91H0v2.761h1.086V0Z" style="fill:#004b9c;fill-opacity:1;fill-rule:nonzero;stroke:none" transform="matrix(15.14183 0 0 -15.14183 688.402 192.965)"/><path d="M0 0v.977c0 .38-.217.564-.569.564h-.513V.111c0-.223.07-.4.21-.527a.768.768 0 0 1 .535-.193h3.754V0Z" style="fill:#004b9c;fill-opacity:1;fill-rule:nonzero;stroke:none" transform="matrix(15.14183 0 0 -15.14183 640.204 261.118)"/><path d="M0 0c-.603 0-1.188-.32-1.188-1.236l-.001-8.247 1.793-.001c.569.001.794.252.794.761v2.641h4.109c.57 0 .794.252.794.764v1.342H1.398v1.897h4.499c.568 0 .794.252.794.762L6.69 0Z" style="fill:#004b9c;fill-opacity:1;fill-rule:nonzero;stroke:none" transform="matrix(15.14183 0 0 -15.14183 322.788 170.09)"/><path d="m0 0-.001 8.247h-1.773c-.57 0-.794-.252-.794-.762V2.977l-3.956 5.27h-1.154c-.602 0-1.185-.32-1.186-1.236v-8.247h1.775c.568 0 .794.251.794.76v4.514l4.045-5.274h1.063C-.584-1.236 0-.917 0 0" style="fill:#004b9c;fill-opacity:1;fill-rule:nonzero;stroke:none" transform="matrix(15.14183 0 0 -15.14183 134.217 294.966)"/><g clip-path="url(#a)" transform="matrix(15.14183 0 0 -15.14183 -2590.012 1584.654)"><path d="M182.075 102.4c-1.986-1.952-2.452-5.287-1.051-8.263.15-.334.311-.279.232.067-.464 2.055-.205 4.087 1.21 5.519 2.672 2.701 9.046.45 14.257-4.549.085-.068.139-.032.145.046.053 1.003.233 4.963.233 4.963.011.179-.016.273-.149.37-3.514 2.606-6.909 3.653-9.67 3.653-2.247 0-4.075-.693-5.207-1.806" style="fill:url(#b);stroke:none"/></g><g clip-path="url(#c)" transform="matrix(15.14183 0 0 -15.14183 -2590.012 1584.654)"><path d="m195.268 104.504-.253-5.227c-.008-.141.03-.196.123-.264 1.027-.791 2.021-1.638 2.988-2.652 4.148-4.351 7.679-11.562 4.374-14.868-2.562-2.561-8.235-1.856-13.693 1.992-.301.212-.404.057-.188-.163 5.709-5.229 12.057-6.36 15.669-3.693 4.459 3.293 3.335 11.958-2.269 18.931-1.26 1.567-3.721 4.144-6.532 6.044-.048.034-.088.05-.121.05-.063 0-.098-.058-.098-.15" style="fill:url(#d);stroke:none"/></g><path d="M0 0h-2.042l.001 2.292C-1.596 2.29-.227 2.29.056 2.29c.71 0 1.258-.462 1.258-1.142C1.314.378.695 0 0 0m3.008-5.26h2.285C3.602-3.521 2.68-2.511 2.021-1.676c1.38.667 1.988 1.778 1.988 2.832 0 1.743-1.09 2.969-3.122 3.063-.098.005-3.777-.001-5.496 0V-5.26h1.774c.569-.001.794.251.793.762l.001 3.979C-.872-2.113.212-3.489 1.423-4.665c.381-.382 1.1-.595 1.585-.595" style="fill:#004b9c;fill-opacity:1;fill-rule:nonzero;stroke:none" transform="matrix(15.14183 0 0 -15.14183 225.962 234.043)"/><path d="M0 0h.378l.585-1.207h.005V0h.294v-1.614H.886L.299-.407H.295v-1.207H0Z" style="fill:#004b9c;fill-opacity:1;fill-rule:nonzero;stroke:none" transform="matrix(15.14183 0 0 -15.14183 611.214 290.381)"/><path d="M0 0a.577.577 0 0 0 .349.129c.174 0 .255-.065.255-.257H.441a.856.856 0 0 1-.38-.069c-.112-.059-.193-.162-.193-.34 0-.227.196-.355.396-.355.133 0 .281.076.349.206h.005C.62-.722.62-.801.631-.863H.89a4.793 4.793 0 0 0-.013.265C.875-.51.873-.419.873-.299v.153c0 .351-.144.501-.488.501A.977.977 0 0 1-.009.266zm.149-.519c0 .183.196.206.328.206h.127a.408.408 0 0 0-.062-.245.243.243 0 0 0-.206-.106c-.106 0-.187.043-.187.145" style="fill:#004b9c;fill-opacity:1;fill-rule:nonzero;stroke:none" transform="matrix(15.14183 0 0 -15.14183 635.317 301.753)"/><path d="M0 0h-.218v.227H0v.238l.295.099V.227h.261V0H.295v-.556c0-.101.026-.197.138-.197.052 0 .103.012.133.033l.01-.245a.76.76 0 0 0-.218-.028C.127-.993 0-.843 0-.606Z" style="fill:#004b9c;fill-opacity:1;fill-rule:nonzero;stroke:none" transform="matrix(15.14183 0 0 -15.14183 653.718 300.216)"/><path d="M506.747 162.32h2.513v-2.53h-2.513zm0-4.369h2.513v-10.144h-2.513z" style="fill:#004b9c;fill-opacity:1;fill-rule:nonzero;stroke:none;stroke-width:8.51729" transform="matrix(1.77778 0 0 -1.77778 -236.265 577.582)"/><path d="M0 0c0-.343.217-.616.591-.616.376 0 .593.273.593.616 0 .393-.257.631-.593.631C.256.631 0 .393 0 0m.308.036c0 .179.091.355.283.355C.784.391.877.22.877.036c0-.198-.059-.412-.286-.412-.224 0-.283.217-.283.412" style="fill:#004b9c;fill-opacity:1;fill-rule:nonzero;stroke:none" transform="matrix(15.14183 0 0 -15.14183 672.025 305.923)"/><path d="M0 0h.279v-.162h.004a.416.416 0 0 0 .372.189c.268 0 .384-.198.384-.466v-.752H.745v.635c0 .147-.002.343-.191.343-.214 0-.26-.243-.26-.395v-.583H0Z" style="fill:#004b9c;fill-opacity:1;fill-rule:nonzero;stroke:none" transform="matrix(15.14183 0 0 -15.14183 692.786 296.785)"/><path d="M0 0c.09 0 .161.041.207.106a.416.416 0 0 1 .062.245H.141C.009.351-.187.328-.187.146-.187.043-.106 0 0 0m-.345.93a.98.98 0 0 0 .393.09c.346 0 .489-.151.489-.502V.365c0-.12.002-.211.004-.299.002-.089.006-.173.013-.265H.295c-.011.062-.011.141-.013.178H.277a.403.403 0 0 0-.35-.207c-.199 0-.395.128-.395.355 0 .178.081.281.193.34a.853.853 0 0 0 .38.069h.164c0 .193-.081.257-.256.257A.577.577 0 0 1-.336.664z" style="fill:#004b9c;fill-opacity:1;fill-rule:nonzero;stroke:none" transform="matrix(15.14183 0 0 -15.14183 718.442 311.808)"/><path d="M543.746 162.576h2.504v-14.769h-2.504z" style="fill:#004b9c;fill-opacity:1;fill-rule:nonzero;stroke:none;stroke-width:8.51729" transform="matrix(1.77778 0 0 -1.77778 -236.265 577.582)"/><path d="M0 0h.332c.329 0 .723.012.723-.437a.364.364 0 0 0-.317-.375v-.004C.822-.823.87-.911.901-.983l.246-.631H.804L.62-1.11c-.044.12-.083.167-.213.167H.308v-.671H0Zm.308-.688h.101c.152 0 .325.022.325.223 0 .194-.171.211-.325.211H.308Z" style="fill:#004b9c;fill-opacity:1;fill-rule:nonzero;stroke:none" transform="matrix(15.14183 0 0 -15.14183 747.462 290.381)"/><path d="M0 0a.734.734 0 0 0-.375-.12c-.183 0-.311.108-.323.3h.781c0 .417-.119.719-.538.719C-.807.899-.98.615-.98.271c0-.391.218-.619.591-.619A.75.75 0 0 1 0-.252zm-.698.394c.012.159.096.279.261.279.164 0 .231-.129.24-.279z" style="fill:#004b9c;fill-opacity:1;fill-rule:nonzero;stroke:none" transform="matrix(15.14183 0 0 -15.14183 780.872 309.99)"/><path d="M0 0a.705.705 0 0 1-.264.051c-.079 0-.174-.03-.174-.132 0-.19.512-.069.512-.499 0-.278-.235-.39-.474-.39-.112 0-.226.022-.335.052l.018.254a.618.618 0 0 1 .29-.078c.075 0 .193.029.193.145 0 .234-.512.074-.512.504 0 .257.214.37.444.37.139 0 .229-.022.321-.044z" style="fill:#004b9c;fill-opacity:1;fill-rule:nonzero;stroke:none" transform="matrix(15.14183 0 0 -15.14183 795.157 300.57)"/><path d="M0 0a.735.735 0 0 0-.376-.12c-.182 0-.31.108-.323.3h.782c0 .417-.118.719-.538.719C-.806.899-.98.615-.98.271c0-.391.217-.619.591-.619.159 0 .282.034.389.096zm-.699.394c.013.159.096.279.262.279.165 0 .23-.129.239-.279z" style="fill:#004b9c;fill-opacity:1;fill-rule:nonzero;stroke:none" transform="matrix(15.14183 0 0 -15.14183 812.82 309.99)"/><path d="M0 0a.577.577 0 0 0 .349.129c.174 0 .255-.065.255-.257H.442a.848.848 0 0 1-.38-.069c-.113-.059-.194-.162-.194-.34 0-.227.195-.355.395-.355.134 0 .282.076.35.206h.005C.619-.722.619-.801.63-.863h.259c-.006.092-.01.175-.013.265-.001.088-.004.179-.004.299v.153c0 .351-.143.501-.487.501A.977.977 0 0 1-.009.266zm.149-.519c0 .183.195.206.328.206h.127a.408.408 0 0 0-.062-.245.243.243 0 0 0-.206-.106c-.105 0-.187.043-.187.145" style="fill:#004b9c;fill-opacity:1;fill-rule:nonzero;stroke:none" transform="matrix(15.14183 0 0 -15.14183 817.817 301.753)"/><path d="M0 0h.261v-.271h.005C.279-.16.4.027.576.027c.028 0 .059 0 .09-.008v-.313a.282.282 0 0 1-.132.025c-.24 0-.24-.315-.24-.485v-.437H0Z" style="fill:#004b9c;fill-opacity:1;fill-rule:nonzero;stroke:none" transform="matrix(15.14183 0 0 -15.14183 834.851 296.785)"/><path d="M0 0a.43.43 0 0 1-.2.044c-.182 0-.299-.153-.299-.377 0-.22.1-.39.306-.39.084 0 .176.034.227.057l.012-.257a.903.903 0 0 0-.295-.04c-.371 0-.557.267-.557.63 0 .344.193.617.546.617A.898.898 0 0 0 .026.245z" style="fill:#004b9c;fill-opacity:1;fill-rule:nonzero;stroke:none" transform="matrix(15.14183 0 0 -15.14183 857.55 300.673)"/><path d="M0 0h.294v-.705h.004a.417.417 0 0 0 .357.189c.268 0 .384-.198.384-.466v-.752H.745v.635c0 .147-.003.343-.191.343-.214 0-.26-.243-.26-.395v-.583H0Z" style="fill:#004b9c;fill-opacity:1;fill-rule:nonzero;stroke:none" transform="matrix(15.14183 0 0 -15.14183 860.551 288.563)"/><path d="M0 0h.853v-.254H.308v-.398h.519v-.254H.308v-.708H0Z" style="fill:#004b9c;fill-opacity:1;fill-rule:nonzero;stroke:none" transform="matrix(15.14183 0 0 -15.14183 889.194 290.381)"/><path d="M0 0c0-.343.218-.616.591-.616.376 0 .594.273.594.616 0 .393-.257.631-.594.631C.257.631 0 .393 0 0m.308.036c0 .179.092.355.283.355C.785.391.877.22.877.036c0-.198-.059-.412-.286-.412-.223 0-.283.217-.283.412" style="fill:#004b9c;fill-opacity:1;fill-rule:nonzero;stroke:none" transform="matrix(15.14183 0 0 -15.14183 903.67 305.923)"/><path d="M0 0h-.279v.161h-.005a.467.467 0 0 0-.371-.189c-.268 0-.385.199-.385.467v.752h.295V.555c0-.146.002-.343.191-.343.213 0 .259.244.259.395v.584H0Z" style="fill:#004b9c;fill-opacity:1;fill-rule:nonzero;stroke:none" transform="matrix(15.14183 0 0 -15.14183 940.187 314.824)"/><path d="M0 0h.279v-.162h.004a.414.414 0 0 0 .372.189c.268 0 .385-.198.385-.466v-.752H.745v.635c0 .147-.003.343-.191.343-.214 0-.26-.243-.26-.395v-.583H0Z" style="fill:#004b9c;fill-opacity:1;fill-rule:nonzero;stroke:none" transform="matrix(15.14183 0 0 -15.14183 944.113 296.785)"/><path d="M0 0h.287v1.734h-.295v-.681h-.005a.395.395 0 0 1-.338.166c-.348 0-.475-.291-.475-.62 0-.327.127-.627.475-.627.138 0 .259.047.347.162H0Zm-.519.599c0 .16.053.38.244.38.19 0 .264-.213.264-.38C-.011.43-.075.212-.27.212c-.193 0-.249.223-.249.387" style="fill:#004b9c;fill-opacity:1;fill-rule:nonzero;stroke:none" transform="matrix(15.14183 0 0 -15.14183 975.187 314.824)"/><path d="M0 0a.577.577 0 0 0 .349.129c.174 0 .255-.065.255-.257H.441a.856.856 0 0 1-.38-.069c-.112-.059-.193-.162-.193-.34 0-.227.196-.355.396-.355.134 0 .281.076.349.206h.005C.62-.722.62-.801.631-.863H.89a4.793 4.793 0 0 0-.013.265C.875-.51.873-.419.873-.299v.153c0 .351-.144.501-.488.501A.98.98 0 0 1-.009.266zm.149-.519c0 .183.196.206.328.206h.127a.415.415 0 0 0-.061-.245.245.245 0 0 0-.207-.106c-.105 0-.187.043-.187.145" style="fill:#004b9c;fill-opacity:1;fill-rule:nonzero;stroke:none" transform="matrix(15.14183 0 0 -15.14183 984.34 301.753)"/><path d="M0 0h-.217v.227H0v.238l.295.099V.227h.261V0H.295v-.556c0-.101.026-.197.138-.197.053 0 .104.012.134.033l.009-.245a.76.76 0 0 0-.218-.028C.127-.993 0-.843 0-.606Z" style="fill:#004b9c;fill-opacity:1;fill-rule:nonzero;stroke:none" transform="matrix(15.14183 0 0 -15.14183 1002.742 300.216)"/><path d="M703.08 162.32h2.503v-2.53h-2.504zm0-4.369h2.503v-10.144h-2.504z" style="fill:#004b9c;fill-opacity:1;fill-rule:nonzero;stroke:none;stroke-width:8.51729" transform="matrix(1.77778 0 0 -1.77778 -236.265 577.582)"/><path d="M0 0c0-.343.217-.616.591-.616.376 0 .594.273.594.616 0 .393-.258.631-.594.631C.257.631 0 .393 0 0m.308.036c0 .179.092.355.283.355C.784.391.877.22.877.036c0-.198-.059-.412-.286-.412-.224 0-.283.217-.283.412" style="fill:#004b9c;fill-opacity:1;fill-rule:nonzero;stroke:none" transform="matrix(15.14183 0 0 -15.14183 1021.049 305.923)"/><path d="M0 0h.278v-.162h.005a.414.414 0 0 0 .372.189c.267 0 .384-.198.384-.466v-.752H.745v.635c0 .147-.003.343-.192.343-.213 0-.259-.243-.259-.395v-.583H0Z" style="fill:#004b9c;fill-opacity:1;fill-rule:nonzero;stroke:none" transform="matrix(15.14183 0 0 -15.14183 1041.817 296.785)"/><path d="M0 0c0-.343.217-.616.591-.616.376 0 .594.273.594.616 0 .393-.257.631-.594.631C.257.631 0 .393 0 0m.308.036c0 .179.092.355.283.355C.785.391.877.22.877.036c0-.198-.059-.412-.286-.412-.224 0-.283.217-.283.412" style="fill:#004b9c;fill-opacity:1;fill-rule:nonzero;stroke:none" transform="matrix(15.14183 0 0 -15.14183 1068.967 305.923)"/><path d="M0 0h-.217v.227H0v.166c0 .239.127.405.36.405A.975.975 0 0 0 .576.772L.552.516C.526.532.488.558.424.558.326.558.295.467.295.374V.227h.257V0H.295v-.965H0Z" style="fill:#004b9c;fill-opacity:1;fill-rule:nonzero;stroke:none" transform="matrix(15.14183 0 0 -15.14183 1091.361 300.216)"/><path d="M0 0h.308v-.693L.861 0h.378L.608-.761l.657-.853H.863l-.551.75H.308v-.75H0Z" style="fill:#004b9c;fill-opacity:1;fill-rule:nonzero;stroke:none" transform="matrix(15.14183 0 0 -15.14183 1111.005 290.381)"/><path d="M0 0c0-.343.218-.616.591-.616.376 0 .595.273.595.616 0 .393-.258.631-.595.631C.257.631 0 .393 0 0m.308.036c0 .179.092.355.283.355C.785.391.877.22.877.036c0-.198-.059-.412-.286-.412-.223 0-.283.217-.283.412" style="fill:#004b9c;fill-opacity:1;fill-rule:nonzero;stroke:none" transform="matrix(15.14183 0 0 -15.14183 1131.027 305.923)"/><path d="M0 0h.262v-.271h.004C.279-.16.4.027.576.027c.028 0 .059 0 .09-.008v-.313a.28.28 0 0 1-.132.025c-.239 0-.239-.315-.239-.485v-.437H0Z" style="fill:#004b9c;fill-opacity:1;fill-rule:nonzero;stroke:none" transform="matrix(15.14183 0 0 -15.14183 1151.898 296.785)"/><path d="M0 0a.728.728 0 0 0-.375-.12c-.183 0-.31.108-.324.3h.782c0 .417-.118.719-.538.719C-.806.899-.98.615-.98.271c0-.391.218-.619.591-.619.159 0 .282.034.389.096zm-.699.394c.014.159.097.279.262.279s.231-.129.24-.279z" style="fill:#004b9c;fill-opacity:1;fill-rule:nonzero;stroke:none" transform="matrix(15.14183 0 0 -15.14183 1177.222 309.99)"/><path d="M0 0a.577.577 0 0 0 .349.129c.174 0 .255-.065.255-.257H.442a.858.858 0 0 1-.381-.069c-.112-.059-.193-.162-.193-.34 0-.227.196-.355.396-.355.134 0 .281.076.349.206h.005C.62-.722.62-.801.63-.863h.26a4.793 4.793 0 0 0-.013.265C.875-.51.872-.419.872-.299v.153c0 .351-.143.501-.487.501A.98.98 0 0 1-.009.266zm.149-.519c0 .183.196.206.328.206h.127a.415.415 0 0 0-.061-.245.246.246 0 0 0-.207-.106c-.105 0-.187.043-.187.145" style="fill:#004b9c;fill-opacity:1;fill-rule:nonzero;stroke:none" transform="matrix(15.14183 0 0 -15.14183 1182.22 301.753)"/></svg>