<svg xmlns="http://www.w3.org/2000/svg" width="1091.5961mm" height="400mm" viewBox="0 0 1091.5961 400.00001"><defs><clipPath id="a" clipPathUnits="userSpaceOnUse"><path d="M0 0h538.583v737.008H0Z"/></clipPath></defs><path d="M-92.676 178.524c0 82.85-67.156 150.005-150.005 150.005-82.85 0-149.995-67.155-149.995-150.005 0-82.849 67.146-149.995 149.995-149.995 82.85 0 150.005 67.146 150.005 149.995" style="fill:#fff;fill-opacity:1;fill-rule:nonzero;stroke:none;stroke-width:9.73552" transform="matrix(.96217 0 0 .96217 482.541 28.225)"/><path d="M0 0v.663h1.045V0h1.456v-.82h-4.119V0Zm2.329-2.684c0-.23-.048-.447-.146-.646a1.728 1.728 0 0 0-.391-.527 1.842 1.842 0 0 0-1.264-.491 1.838 1.838 0 0 0-1.264.491c-.164.15-.295.328-.392.527a1.473 1.473 0 0 0-.145.646c0 .23.049.449.145.651.097.203.228.38.392.532a1.838 1.838 0 0 0 1.264.491 1.842 1.842 0 0 0 1.264-.491c.164-.152.295-.329.391-.532.098-.202.146-.421.146-.651m-.919.01a.846.846 0 0 1-.258.614.86.86 0 0 1-.624.258.839.839 0 0 1-.618-.258.844.844 0 0 1-.256-.614c0-.237.085-.44.256-.608a.834.834 0 0 1 .618-.257c.242 0 .45.085.624.257a.823.823 0 0 1 .258.608m3.476-3.212a1.55 1.55 0 0 0-.155-.685 1.957 1.957 0 0 0-.409-.57 2.087 2.087 0 0 0-.61-.393 1.901 1.901 0 0 0-.736-.144 1.94 1.94 0 0 0-.743.144 2.068 2.068 0 0 0-.614.393 1.979 1.979 0 0 0-.41.57 1.628 1.628 0 0 0 0 1.376c.104.22.241.41.41.573.176.164.381.293.614.392a1.941 1.941 0 0 0 1.479 0c.23-.099.434-.228.61-.392.169-.163.306-.353.409-.573a1.6 1.6 0 0 0 .155-.691m-.966.01a.908.908 0 0 1-.281.663.923.923 0 0 1-.673.283.913.913 0 0 1-.67-.283.922.922 0 0 1-.275-.663c0-.254.092-.476.275-.66a.915.915 0 0 1 .67-.277c.261 0 .485.092.673.277a.893.893 0 0 1 .281.66m-.017 2.037h-.909v4.33h.909v-1.719h.811V.499h.944v-4.447h-.944v1.828h-.811Z" style="fill:#4f4c4d;fill-opacity:1;fill-rule:nonzero;stroke:none" transform="matrix(9.36719 0 0 -9.36719 475.227 101.026)"/><path d="M0 0v.845h4.548V0H2.611l2.02-2.468-.692-.564-1.62 2.02-1.61-2.157-.718.583L2.002 0Zm6.296-5.17a1.75 1.75 0 0 0-.165-.75 2.078 2.078 0 0 0-.436-.614 2.17 2.17 0 0 0-.66-.418 2.042 2.042 0 0 0-.796-.155c-.278 0-.545.05-.801.155a2.136 2.136 0 0 0-.663.418 2.067 2.067 0 0 0-.438.614 1.762 1.762 0 0 0-.162.75c0 .267.054.518.162.755.109.238.256.442.438.62.187.175.409.315.663.417a2.128 2.128 0 0 0 1.597 0c.251-.102.472-.242.66-.417.181-.178.327-.382.436-.62.109-.237.165-.488.165-.755m-.965.009c0 .298-.109.555-.327.77-.22.215-.478.323-.774.323-.297 0-.554-.108-.768-.323a1.05 1.05 0 0 1-.324-.77c0-.296.108-.551.324-.764.214-.211.471-.317.768-.317.296 0 .554.106.774.317.218.213.327.468.327.764m.655 2.028v1.721H4.512v.845h1.474v1.638h.983v-4.204z" style="fill:#4f4c4d;fill-opacity:1;fill-rule:nonzero;stroke:none" transform="matrix(9.36719 0 0 -9.36719 538.973 106.377)"/><path d="M0 0a2.05 2.05 0 0 0-.177-.839 2.324 2.324 0 0 0-.486-.691 2.437 2.437 0 0 0-.717-.464 2.158 2.158 0 0 0-.867-.172c-.31 0-.6.056-.869.172-.27.115-.509.27-.714.464-.206.2-.369.431-.487.691-.119.263-.179.54-.179.839 0 .296.06.575.179.836a2.245 2.245 0 0 0 1.201 1.156c.269.114.559.174.869.174.31 0 .599-.06.867-.174a2.44 2.44 0 0 0 .717-.465c.204-.2.366-.43.486-.691C-.061.575 0 .296 0 0m-3.012-2.905v-1.772H2.32v-.875h-6.315v2.647zM-.946-.01c0 .176-.035.343-.106.501a1.456 1.456 0 0 1-.276.417 1.532 1.532 0 0 1-.415.278c-.155.07-.32.104-.495.104-.176 0-.343-.034-.501-.104a1.455 1.455 0 0 1-.417-.278 1.422 1.422 0 0 1-.278-.417 1.223 1.223 0 0 1 0-.996c.069-.156.161-.295.278-.417.12-.114.26-.206.417-.276a1.239 1.239 0 0 1 .996 0c.154.07.292.162.415.276.114.122.208.261.276.417.071.154.106.319.106.495M2.12-2.858h-.984v5.077h.984V.491h1.136v-.975H2.12Z" style="fill:#4f4c4d;fill-opacity:1;fill-rule:nonzero;stroke:none" transform="matrix(9.36719 0 0 -9.36719 657.256 117.12)"/><path d="M0 0v.845h4.546V0H2.618L4.63-2.967l-.747-.501-1.564 2.383L.752-3.532l-.762.51L1.991 0Zm.545-6.697v2.647h.982v-1.772H7.04v-.875zm5.44 2.692v2.338H4.512v.874h1.473v1.864h.982v-5.076z" style="fill:#4f4c4d;fill-opacity:1;fill-rule:nonzero;stroke:none" transform="matrix(9.36719 0 0 -9.36719 694.417 106.38)"/><path d="M0 0h7.276v-.873H4.128v-2.038h-.99v2.038H0Zm1.555 3.875h4.166v1.001h.972V1.065H.581v3.811h.974Zm4.166-.854H1.555V1.93h4.166z" style="fill:#4f4c4d;fill-opacity:1;fill-rule:nonzero;stroke:none" transform="matrix(9.36719 0 0 -9.36719 772.391 143.3)"/><path d="M0 0v1.637h-4.456v1.234h10.32V1.637H1.398V0h3.636v-3.914H3.637v2.693H-3.75V0Zm5.008 7.11V3.763H3.611v2.114H-3.65V7.11Z" style="fill:#4f4c4d;fill-opacity:1;fill-rule:nonzero;stroke:none" transform="matrix(9.36719 0 0 -9.36719 496.105 269.427)"/><path d="M0 0h-1.383v7.803h-4.193v1.258H0Zm3.852 5.399h1.609V4.003H3.852V-1.47H2.467V9.756h1.385z" style="fill:#4f4c4d;fill-opacity:1;fill-rule:nonzero;stroke:none" transform="matrix(9.36719 0 0 -9.36719 613.633 292.068)"/><path d="M0 0h-1.397v7.805H-5.7v1.258H0Zm2.807 9.756h1.397V-1.471H2.807Z" style="fill:#4f4c4d;fill-opacity:1;fill-rule:nonzero;stroke:none" transform="matrix(9.36719 0 0 -9.36719 727.394 292.068)"/><path d="M0 0h8.659v-3.033H1.384v-.73h7.3V-4.92H5.021v-.78h4.468v-1.185H-.831V-5.7h4.454v.78H0v3.031h7.262v.718H0Zm-.125-7.64h8.784v-3.499H7.262v2.316H-.125z" style="fill:#4f4c4d;fill-opacity:1;fill-rule:nonzero;stroke:none" transform="matrix(9.36719 0 0 -9.36719 792.468 201.755)"/><path d="M0 0h-2.971v-1.7h-1.396V0h-3.096v1.233H0Zm-6.696-4.29v3.209h1.384V-3.07h7.728v-1.22zm5.703 8.569c0-.36-.077-.696-.228-1.007a3.007 3.007 0 0 0-.592-.831A2.943 2.943 0 0 0-3.8 1.684c-.386 0-.75.069-1.091.202a2.982 2.982 0 0 0-.898.555c-.246.244-.441.52-.592.831a2.264 2.264 0 0 0-.228 1.007c0 .36.076.697.228 1.012.151.316.346.594.592.837a2.938 2.938 0 0 0 1.989.756c.385 0 .748-.067 1.087-.202.34-.134.641-.317.9-.554.246-.243.441-.521.592-.837.151-.315.228-.652.228-1.012m-1.348 0c0 .401-.145.74-.435 1.012A1.446 1.446 0 0 1-3.8 5.7c-.396 0-.737-.137-1.026-.409a1.337 1.337 0 0 1-.434-1.012c0-.393.145-.73.434-1.001.289-.272.63-.41 1.026-.41.393 0 .735.138 1.024.41.29.271.435.608.435 1.001M.894 6.746h1.383v-8.572H.894v4.143H-.667v1.207H.894z" style="fill:#4f4c4d;fill-opacity:1;fill-rule:nonzero;stroke:none" transform="matrix(9.3672 0 0 -9.3672 964.243 263.881)"/><path d="M0 0c-2.45 1.665-5.585.987-7.234-1.515a5.1 5.1 0 0 0-4.246-2.353c-2.623 0-4.411 1.843-4.942 3.749h-.001l-.017.055-.015.064c-.209.796-.264 1.174-.264 2.02 0 4.557 4.679 9.632 11.412 9.632 6.898 0 10.844-5.25 11.863-8.169l-.052.157C4.547 9.346-.866 13.449-7.24 13.449c-8.017 0-14.519-6.499-14.519-14.52 0-7.172 5.171-13.307 12.345-13.307 5.719 0 9.565 3.205 11.326 7.627C2.88-4.332 2.194-1.492 0 0" style="fill:#14365f;fill-opacity:1;fill-rule:nonzero;stroke:none" transform="matrix(9.3672 0 0 -9.3672 316.736 189.939)"/><path d="M0 0c-.85 2.847-4.825 8.452-11.953 8.452-6.733 0-11.411-5.076-11.411-9.631 0-.846.054-1.225.263-2.021a4.181 4.181 0 0 0-.133 1.035c0 4.749 4.751 8.037 9.635 8.037 6.615 0 11.975-5.363 11.975-11.975a13.2 13.2 0 0 0-7.315-11.825v-.004C-3.352-15.908.637-10.556.637-4.272.637-2.786.438-1.474 0 0" style="fill:#ed1639;fill-opacity:1;fill-rule:nonzero;stroke:none" transform="matrix(9.3672 0 0 -9.3672 378.993 159.964)"/><path d="M0 0v.663h1.045V0h1.456v-.82h-4.119V0Zm2.329-2.684c0-.23-.048-.447-.146-.646a1.728 1.728 0 0 0-.391-.527 1.842 1.842 0 0 0-1.264-.491 1.838 1.838 0 0 0-1.264.491c-.164.15-.295.328-.392.527a1.473 1.473 0 0 0-.145.646c0 .23.049.449.145.651.097.203.228.38.392.532a1.838 1.838 0 0 0 1.264.491 1.842 1.842 0 0 0 1.264-.491c.164-.152.295-.329.391-.532.098-.202.146-.421.146-.651m-.919.01a.846.846 0 0 1-.258.614.86.86 0 0 1-.624.258.839.839 0 0 1-.618-.258.844.844 0 0 1-.256-.614c0-.237.085-.44.256-.608a.834.834 0 0 1 .618-.257c.242 0 .45.085.624.257a.823.823 0 0 1 .258.608m3.476-3.212a1.55 1.55 0 0 0-.155-.685 1.957 1.957 0 0 0-.409-.57 2.087 2.087 0 0 0-.61-.393 1.901 1.901 0 0 0-.736-.144 1.94 1.94 0 0 0-.743.144 2.068 2.068 0 0 0-.614.393 1.979 1.979 0 0 0-.41.57 1.628 1.628 0 0 0 0 1.376c.104.22.241.41.41.573.176.164.381.293.614.392a1.941 1.941 0 0 0 1.479 0c.23-.099.434-.228.61-.392.169-.163.306-.353.409-.573a1.6 1.6 0 0 0 .155-.691m-.966.01a.908.908 0 0 1-.281.663.923.923 0 0 1-.673.283.913.913 0 0 1-.67-.283.922.922 0 0 1-.275-.663c0-.254.092-.476.275-.66a.915.915 0 0 1 .67-.277c.261 0 .485.092.673.277a.893.893 0 0 1 .281.66m-.017 2.037h-.909v4.33h.909v-1.719h.811V.499h.944v-4.447h-.944v1.828h-.811Z" style="fill:#4f4c4d;fill-opacity:1;fill-rule:nonzero;stroke:none" transform="matrix(9.3672 0 0 -9.3672 475.227 101.026)"/><path d="M58.65 81.225v-8.227h44.278v8.227H84.07l19.666 24.027-6.737 5.49-15.771-19.665-15.675 21-6.99-5.676 19.578-25.176Zm61.296 50.332c0 2.6-.545 5.033-1.607 7.302a20.235 20.235 0 0 1-4.244 5.977c-1.83 1.714-3.982 3.057-6.426 4.07-2.443 1.022-5.033 1.509-7.75 1.509-2.706 0-5.305-.487-7.797-1.51-2.473-1.012-4.634-2.355-6.455-4.069a20.119 20.119 0 0 1-4.264-5.977c-1.052-2.269-1.577-4.702-1.577-7.302 0-2.6.525-5.043 1.577-7.35a20.014 20.014 0 0 1 4.264-6.036c1.82-1.704 3.982-3.067 6.455-4.06a20.714 20.714 0 0 1 7.798-1.519c2.716 0 5.306.516 7.75 1.52 2.443.992 4.594 2.355 6.425 4.059a20.128 20.128 0 0 1 4.244 6.036 17.374 17.374 0 0 1 1.607 7.35m-9.395-.087c0-2.902-1.061-5.404-3.184-7.497-2.141-2.093-4.653-3.144-7.535-3.144-2.891 0-5.393 1.051-7.477 3.144-2.103 2.093-3.154 4.595-3.154 7.497 0 2.881 1.051 5.364 3.154 7.438 2.084 2.054 4.586 3.086 7.477 3.086 2.882 0 5.394-1.032 7.535-3.086 2.123-2.074 3.184-4.557 3.184-7.438m6.377-19.744V94.971h-14.35v-8.226h14.35V70.798h9.57v40.928z" style="fill:#4f4c4d;fill-opacity:1;fill-rule:nonzero;stroke:none;stroke-width:9.73552" transform="matrix(.96217 0 0 .96217 482.541 28.225)"/><path d="M0 0a2.05 2.05 0 0 0-.177-.839 2.324 2.324 0 0 0-.486-.691 2.437 2.437 0 0 0-.717-.464 2.158 2.158 0 0 0-.867-.172c-.31 0-.6.056-.869.172-.27.115-.509.27-.714.464-.206.2-.369.431-.487.691-.119.263-.179.54-.179.839 0 .296.06.575.179.836a2.245 2.245 0 0 0 1.201 1.156c.269.114.559.174.869.174.31 0 .599-.06.867-.174a2.44 2.44 0 0 0 .717-.465c.204-.2.366-.43.486-.691C-.061.575 0 .296 0 0m-3.012-2.905v-1.772H2.32v-.875h-6.315v2.647zM-.946-.01c0 .176-.035.343-.106.501a1.456 1.456 0 0 1-.276.417 1.532 1.532 0 0 1-.415.278c-.155.07-.32.104-.495.104-.176 0-.343-.034-.501-.104a1.455 1.455 0 0 1-.417-.278 1.422 1.422 0 0 1-.278-.417 1.223 1.223 0 0 1 0-.996c.069-.156.161-.295.278-.417.12-.114.26-.206.417-.276a1.239 1.239 0 0 1 .996 0c.154.07.292.162.415.276.114.122.208.261.276.417.071.154.106.319.106.495M2.12-2.858h-.984v5.077h.984V.491h1.136v-.975H2.12Z" style="fill:#4f4c4d;fill-opacity:1;fill-rule:nonzero;stroke:none" transform="matrix(9.3672 0 0 -9.3672 657.257 117.12)"/><path d="M0 0v.845h4.546V0H2.618L4.63-2.967l-.747-.501-1.564 2.383L.752-3.532l-.762.51L1.991 0Zm.545-6.697v2.647h.982v-1.772H7.04v-.875zm5.44 2.692v2.338H4.512v.874h1.473v1.864h.982v-5.076z" style="fill:#4f4c4d;fill-opacity:1;fill-rule:nonzero;stroke:none" transform="matrix(9.36719 0 0 -9.36719 694.417 106.38)"/><path d="M0 0h7.276v-.873H4.128v-2.038h-.99v2.038H0Zm1.555 3.875h4.166v1.001h.972V1.065H.581v3.811h.974Zm4.166-.854H1.555V1.93h4.166z" style="fill:#4f4c4d;fill-opacity:1;fill-rule:nonzero;stroke:none" transform="matrix(9.36719 0 0 -9.36719 772.391 143.3)"/><path d="M0 0v1.637h-4.456v1.234h10.32V1.637H1.398V0h3.636v-3.914H3.637v2.693H-3.75V0Zm5.008 7.11V3.763H3.611v2.114H-3.65V7.11Z" style="fill:#4f4c4d;fill-opacity:1;fill-rule:nonzero;stroke:none" transform="matrix(9.36719 0 0 -9.36719 496.105 269.427)"/><path d="M0 0h-1.383v7.803h-4.193v1.258H0Zm3.852 5.399h1.609V4.003H3.852V-1.47H2.467V9.756h1.385z" style="fill:#4f4c4d;fill-opacity:1;fill-rule:nonzero;stroke:none" transform="matrix(9.36719 0 0 -9.36719 613.633 292.068)"/><path d="M0 0h-1.397v7.805H-5.7v1.258H0Zm2.807 9.756h1.397V-1.471H2.807Z" style="fill:#4f4c4d;fill-opacity:1;fill-rule:nonzero;stroke:none" transform="matrix(9.36719 0 0 -9.36719 727.394 292.068)"/><path d="M0 0h8.659v-3.033H1.384v-.73h7.3V-4.92H5.021v-.78h4.468v-1.185H-.831V-5.7h4.454v.78H0v3.031h7.262v.718H0Zm-.125-7.64h8.784v-3.499H7.262v2.316H-.125z" style="fill:#4f4c4d;fill-opacity:1;fill-rule:nonzero;stroke:none" transform="matrix(9.36719 0 0 -9.36719 792.468 201.755)"/><g clip-path="url(#a)" transform="matrix(9.36719 0 0 -9.36719 -3253.797 873.904)"><path d="M0 0h-2.971v-1.7h-1.396V0h-3.096v1.233H0Zm-6.696-4.29v3.209h1.384V-3.07h7.728v-1.22zm5.703 8.569c0-.36-.077-.696-.228-1.007a3.007 3.007 0 0 0-.592-.831A2.943 2.943 0 0 0-3.8 1.684c-.386 0-.75.069-1.091.202a2.982 2.982 0 0 0-.898.555c-.246.244-.441.52-.592.831a2.264 2.264 0 0 0-.228 1.007c0 .36.076.697.228 1.012.151.316.346.594.592.837a2.938 2.938 0 0 0 1.989.756c.385 0 .748-.067 1.087-.202.34-.134.641-.317.9-.554.246-.243.441-.521.592-.837.151-.315.228-.652.228-1.012m-1.348 0c0 .401-.145.74-.435 1.012A1.446 1.446 0 0 1-3.8 5.7c-.396 0-.737-.137-1.026-.409a1.337 1.337 0 0 1-.434-1.012c0-.393.145-.73.434-1.001.289-.272.63-.41 1.026-.41.393 0 .735.138 1.024.41.29.271.435.608.435 1.001M.894 6.746h1.383v-8.572H.894v4.143H-.667v1.207H.894z" style="fill:#4f4c4d;fill-opacity:1;fill-rule:nonzero;stroke:none" transform="translate(450.3 65.123)"/></g></svg>